<svg id="Photo_Sharing-pana_1_" data-name="Photo Sharing-pana (1)" xmlns="http://www.w3.org/2000/svg" width="458.74" height="374.981" viewBox="0 0 458.74 374.981">
  <g id="freepik--background-complete--inject-357" transform="translate(21.944 0)">
    <path id="Path_100017" data-name="Path 100017" d="M367.7,102.12c-3.79-2.3-8.63-.51-10.86,3.14s-2.59,7-1.49,11.52a14.07,14.07,0,0,0-9.51-6.94c-4.18-1-8.9,1.22-9.95,5.54a10.83,10.83,0,0,0,1.43,7.75,14.88,14.88,0,0,0,5.43,5.84c8.15,4.33,11.59,4.27,20.49,6.05,4.94-7.55,6.67-9.64,9.3-18.47a15,15,0,0,0-.35-8,10.93,10.93,0,0,0-4.49-6.43Z" transform="translate(-46.104 -64.068)" fill="#f5f5f5"/>
    <path id="Path_100018" data-name="Path 100018" d="M56.13,275.43a6.05,6.05,0,0,0,1-6.55A5.66,5.66,0,1,0,46.8,273.4a6,6,0,0,0,5.57,3.69c-7.43,4.72-3.25,13.2-3.25,13.2L68,282.06S64.54,273.13,56.13,275.43Z" transform="translate(-46.104 -64.068)" fill="#e0e0e0"/>
    <path id="Path_100019" data-name="Path 100019" d="M147.52,87.5a11.83,11.83,0,0,0,9.83-8.5c1.86-6.27-1.4-12.76-7.28-14.5s-12.14,1.93-14,8.2a11.82,11.82,0,0,0,3.7,12.58C122.66,82.94,118.21,101,118.21,101l38.72,11.47S163.06,94.69,147.52,87.5Z" transform="translate(-46.104 -64.068)" fill="#ebebeb"/>
    <path id="Path_100020" data-name="Path 100020" d="M420.55,123.71a3.46,3.46,0,0,0-4.82.29,5.91,5.91,0,0,0-1.71,4.67,6,6,0,0,0-3.31-3.79,3.5,3.5,0,0,0-4.67,1.37,4.6,4.6,0,0,0-.13,3.37,6.38,6.38,0,0,0,1.71,2.95c3,2.57,4.43,2.86,8,4.44,2.77-2.68,3.69-3.39,5.61-6.82a6.34,6.34,0,0,0,.6-3.36,4.66,4.66,0,0,0-1.28-3.12Z" transform="translate(-46.104 -64.068)" fill="#e0e0e0"/>
    <path id="Path_100021" data-name="Path 100021" d="M126.01,128.61l1.32,2.67,2.95.43-2.13,2.08.5,2.93-2.64-1.38-2.63,1.38.5-2.93-2.13-2.08,2.94-.43Z" transform="translate(-46.104 -64.068)" fill="#e0e0e0"/>
    <path id="Path_100022" data-name="Path 100022" d="M338.47,163.46l2.39,4.83,5.33.78-3.86,3.76.91,5.31-4.77-2.51-4.77,2.51.92-5.31-3.86-3.76,5.33-.78Z" transform="translate(-46.104 -64.068)" fill="#e0e0e0"/>
    <path id="Path_100023" data-name="Path 100023" d="M106.5,188.9l.65,1.33,1.48.22-1.07,1.04.25,1.46-1.31-.69-1.32.69.25-1.46-1.07-1.04,1.48-.22Z" transform="translate(-46.104 -64.068)" fill="#e0e0e0"/>
    <path id="Path_100024" data-name="Path 100024" d="M293.79,422.55c-16.81-11.74-20.62-33.53-20-53.12.11-3.27-.25-6.72,1.3-9.59s5.19-4.82,8.11-3.45c2.43,1.15,3.49,4,4.85,6.31a19.15,19.15,0,0,0,7.67,7.32c2.08,1.08,4.66,1.74,6.71.61,2.82-1.56,3.15-5.45,3.13-8.71q0-9.09-.11-18.18c0-3.25,0-6.57,1-9.66s3.25-5.95,6.34-6.82,6.92.92,7.57,4.1a28.756,28.756,0,0,1,.1,4.05c.09,1.35.72,2.85,2,3.22s2.6-.54,3.57-1.49c3.36-3.28,5.63-7.51,7.76-11.72s4.2-8.51,7.24-12.1,7.26-6.41,11.92-6.68,9.62,2.61,10.79,7.18-1.49,9.24-4.4,12.95a72.492,72.492,0,0,1-15.12,14.41,6,6,0,0,0-2.52,2.72c-.71,2.16,1.34,4.32,3.49,5,2.42.81,5,.56,7.58.85s5.29,1.42,6.25,3.82c1.33,3.32-1.45,6.81-4.19,9.09a62,62,0,0,1-18.4,10.62c-2.39.88-4.91,1.64-6.84,3.33s-3.09,4.6-1.93,6.89,4.16,3,6.67,2.56,4.75-1.82,7.13-2.73c4.47-1.68,10.24-1.37,13.11,2.49,1.88,2.54,2,6.07,1.09,9.1a23.83,23.83,0,0,1-4.93,8,62.57,62.57,0,0,1-26.7,18.76c-10.37,3.59-20,4.57-30.27.8" transform="translate(-46.104 -64.068)" fill="#ebebeb"/>
    <path id="Path_100025" data-name="Path 100025" d="M293.53,437.07a143,143,0,0,1,5.31-26.8,291.133,291.133,0,0,1,11.57-31.37l3.45-8.07c1.14-2.65,2.27-5.27,3.54-7.77a145.7,145.7,0,0,1,8.08-13.93c2.79-4.31,5.59-8.3,8.24-12s5.19-7.11,7.64-10.11A116.31,116.31,0,0,1,354,313.7c1.61-1.45,2.89-2.54,3.77-3.26l1-.81a2.594,2.594,0,0,1,.36-.27,2.159,2.159,0,0,1-.32.31l-1,.86c-.85.76-2.1,1.87-3.68,3.34a122.113,122.113,0,0,0-12.42,13.41c-2.42,3-4.94,6.43-7.57,10.14s-5.41,7.71-8.18,12a150.986,150.986,0,0,0-8,13.9c-1.25,2.49-2.37,5.09-3.51,7.74s-2.29,5.34-3.45,8.06a298.137,298.137,0,0,0-11.59,31.3A145.413,145.413,0,0,0,294,437.11" transform="translate(-46.104 -64.068)" fill="#e0e0e0"/>
    <path id="Path_100026" data-name="Path 100026" d="M317.57,363a6.752,6.752,0,0,1-.32-1.39c-.17-.9-.37-2.2-.6-3.82-.46-3.24-.94-7.73-1.46-12.69s-1.06-9.43-1.56-12.65c-.25-1.62-.47-2.92-.63-3.82a6.879,6.879,0,0,1-.18-1.41,6.941,6.941,0,0,1,.41,1.36c.23.89.51,2.19.81,3.79.62,3.22,1.23,7.7,1.75,12.66s.94,9.32,1.28,12.7c.16,1.53.3,2.82.41,3.85a6.309,6.309,0,0,1,.09,1.42Z" transform="translate(-46.104 -64.068)" fill="#e0e0e0"/>
    <path id="Path_100027" data-name="Path 100027" d="M359.38,355.23a9.23,9.23,0,0,1-1.67.2c-1.07.09-2.62.22-4.54.44-3.83.42-9.1,1.17-14.87,2.26s-11,2.32-14.69,3.31c-1.87.48-3.37.91-4.41,1.2a9.63,9.63,0,0,1-1.63.4,9.123,9.123,0,0,1,1.56-.63c1-.36,2.51-.85,4.37-1.39,3.7-1.09,8.89-2.38,14.69-3.48a143.513,143.513,0,0,1,14.94-2.09c1.93-.17,3.49-.24,4.57-.26a7.591,7.591,0,0,1,1.68.04Z" transform="translate(-46.104 -64.067)" fill="#e0e0e0"/>
    <path id="Path_100028" data-name="Path 100028" d="M299.36,409.5a2.081,2.081,0,0,1-.29-.51l-.71-1.51c-.62-1.32-1.46-3.25-2.47-5.64-1.56-3.53-3.34-8-7.34-18.93-2.74-7.44-5.26-14.16-7.17-19l-2.28-5.71-.62-1.56a2.1,2.1,0,0,1-.17-.56,2.34,2.34,0,0,1,.28.51l.72,1.51c.61,1.32,1.45,3.25,2.46,5.64,2,4.79,4.6,11.5,7.34,18.94s5.26,14.15,7.17,19c.94,2.34,1.71,4.27,2.29,5.7.24.63.44,1.14.61,1.56a2.491,2.491,0,0,1,.18.56Z" transform="translate(-46.104 -64.067)" fill="#e0e0e0"/>
    <path id="Path_100029" data-name="Path 100029" d="M354.92,391.59a2.452,2.452,0,0,1-.56.23l-1.61.54-5.95,1.93c-5,1.63-11.93,4-19.57,6.54s-14.58,4.86-19.63,6.38c-2.53.77-4.59,1.36-6,1.75l-1.65.43a2.348,2.348,0,0,1-.58.11,2,2,0,0,1,.55-.23l1.61-.54,6-1.93c5-1.62,11.94-3.95,19.57-6.54s14.58-4.85,19.64-6.38c2.52-.76,4.58-1.36,6-1.74l1.65-.44a2.3,2.3,0,0,1,.53-.11Z" transform="translate(-46.104 -64.067)" fill="#e0e0e0"/>
    <path id="Path_100030" data-name="Path 100030" d="M262.89,72.79V85.67A5.29,5.29,0,0,1,257.6,91H235.3v7.37l-4-7h0a4.71,4.71,0,0,1-4.36-4.7V72.79a5.3,5.3,0,0,1,5.3-5.3H257.6a5.29,5.29,0,0,1,5.29,5.3Z" transform="translate(-46.104 -64.068)" fill="#ebebeb"/>
    <ellipse id="Ellipse_213" data-name="Ellipse 213" cx="2.18" cy="2.18" rx="2.18" ry="2.18" transform="translate(204.636 13.672)" fill="#e0e0e0"/>
    <ellipse id="Ellipse_214" data-name="Ellipse 214" cx="2.18" cy="2.18" rx="2.18" ry="2.18" transform="translate(196.356 13.672)" fill="#e0e0e0"/>
    <path id="Path_100031" data-name="Path 100031" d="M234.18,79.92a2.18,2.18,0,1,0,2.18-2.18,2.18,2.18,0,0,0-2.18,2.18Z" transform="translate(-46.104 -64.068)" fill="#e0e0e0"/>
    <path id="Path_100032" data-name="Path 100032" d="M301.13,77.74l3.41,6.91,7.63,1.11-5.52,5.38,1.3,7.59-6.82-3.58-6.82,3.58,1.3-7.59-5.51-5.38,7.62-1.11Z" transform="translate(-46.104 -64.068)" fill="#e0e0e0"/>
    <path id="Path_100033" data-name="Path 100033" d="M209.9,112.81l1.71,3.45,3.81.55-2.76,2.69.65,3.8-3.41-1.79-3.41,1.79.65-3.8-2.76-2.69,3.82-.55Z" transform="translate(-46.104 -64.068)" fill="#e0e0e0"/>
  </g>
  <g id="freepik--Floor--inject-357" transform="translate(0 374.343)">
    <path id="Path_100034" data-name="Path 100034" d="M475.84,438.67c0,.14-101.12.26-225.83.26s-225.85-.12-225.85-.26,101.1-.26,225.85-.26S475.84,438.52,475.84,438.67Z" transform="translate(-24.16 -438.41)" fill="#263238"/>
  </g>
  <g id="freepik--Device--inject-357" transform="translate(131.28 70.132)">
    <path id="Path_100035" data-name="Path 100035" d="M282,143.5l-20-.1a5,5,0,0,0-4.88,5v3.63a5,5,0,0,1-4.88,5L213.31,157a5,5,0,0,1-4.84-5.1v-3.62a5,5,0,0,0-4.83-5.1h-7l-17.5-.18a15.72,15.72,0,0,0-15.79,15.66l-1.07,252.19a15.73,15.73,0,0,0,15.65,15.8l102.86.47a15.72,15.72,0,0,0,15.79-15.66l1.07-252.19A15.72,15.72,0,0,0,282,143.5Z" transform="translate(-155.44 -134.2)" fill="#fff"/>
    <path id="Path_100036" data-name="Path 100036" d="M184.05,181.52a3.29,3.29,0,0,0,2-3,3.08,3.08,0,1,0-6.15,0,3.27,3.27,0,0,0,2,3.06,4.93,4.93,0,0,0-4.17,3.58,7,7,0,0,0,4.27,2.3h1.89a7,7,0,0,0,4.34-2.31,4.85,4.85,0,0,0-4.18-3.63Z" transform="translate(-155.44 -134.2)" fill="#455a64"/>
    <path id="Path_100037" data-name="Path 100037" d="M182.9,187.47a13.2,13.2,0,0,0,1.68-.32,6.9,6.9,0,0,0,3.72-2.56,6.8,6.8,0,0,0,.93-6.41,6.783,6.783,0,0,0-12.72,0,6.8,6.8,0,0,0,.93,6.41,7,7,0,0,0,3.72,2.56c1.06.29,1.69.26,1.69.32a1.34,1.34,0,0,1-.45,0,5,5,0,0,1-1.29-.15,7.1,7.1,0,0,1-5.35-5.54,7.217,7.217,0,0,1,11.37-7.18,7.14,7.14,0,0,1,2.57,3.4,7.23,7.23,0,0,1,.28,3.8,7.1,7.1,0,0,1-5.35,5.54,5,5,0,0,1-1.29.15,1.25,1.25,0,0,1-.44-.02Z" transform="translate(-155.44 -134.2)" fill="#455a64"/>
    <rect id="Rectangle_20914" data-name="Rectangle 20914" width="56.2" height="2.8" transform="translate(42.91 45.7)" fill="#455a64"/>
    <ellipse id="Ellipse_215" data-name="Ellipse 215" cx="0.69" cy="0.69" rx="0.69" ry="0.69" transform="translate(129.23 43.12)" fill="#455a64"/>
    <path id="Path_100038" data-name="Path 100038" d="M286.05,180.48a.69.69,0,1,1-.69-.69A.69.69,0,0,1,286.05,180.48Z" transform="translate(-155.44 -134.2)" fill="#455a64"/>
    <ellipse id="Ellipse_216" data-name="Ellipse 216" cx="0.69" cy="0.69" rx="0.69" ry="0.69" transform="translate(129.23 48.06)" fill="#455a64"/>
    <rect id="Rectangle_20915" data-name="Rectangle 20915" width="134.42" height="116.69" transform="translate(7.79 59.76)" fill="#f5f5f5"/>
    <path id="Path_100039" data-name="Path 100039" d="M291.51,301.6a6.309,6.309,0,0,1,2.5-.26l-.26.26h0v-.96a3.792,3.792,0,0,1,.05-.79c.05-.46.12-.74.19-.74s.14.28.18.74c0,.22.05.49.06.79v1h0l-.26.27a6,6,0,0,1-2.46-.31Z" transform="translate(-155.44 -134.2)" fill="#e0e0e0"/>
    <path id="Path_100040" data-name="Path 100040" d="M281.8,301.6a11.491,11.491,0,0,1,4.86,0,11.07,11.07,0,0,1-4.86,0Z" transform="translate(-155.44 -134.2)" fill="#e0e0e0"/>
    <path id="Path_100041" data-name="Path 100041" d="M272.1,301.6a5.91,5.91,0,0,1,2.42-.26,6,6,0,0,1,2.43.26,5.69,5.69,0,0,1-2.43.27A5.63,5.63,0,0,1,272.1,301.6Z" transform="translate(-155.44 -134.2)" fill="#e0e0e0"/>
    <path id="Path_100042" data-name="Path 100042" d="M262.39,301.6a6,6,0,0,1,2.43-.26,5.91,5.91,0,0,1,2.42.26,5.63,5.63,0,0,1-2.42.27,5.69,5.69,0,0,1-2.43-.27Z" transform="translate(-155.44 -134.2)" fill="#e0e0e0"/>
    <path id="Path_100043" data-name="Path 100043" d="M252.68,301.6a11.491,11.491,0,0,1,4.86,0,11.07,11.07,0,0,1-4.86,0Z" transform="translate(-155.44 -134.2)" fill="#e0e0e0"/>
    <path id="Path_100044" data-name="Path 100044" d="M243,301.6a11.44,11.44,0,0,1,4.85,0,11,11,0,0,1-4.85,0Z" transform="translate(-155.44 -134.2)" fill="#e0e0e0"/>
    <path id="Path_100045" data-name="Path 100045" d="M233.27,301.6a11.491,11.491,0,0,1,4.86,0,11.07,11.07,0,0,1-4.86,0Z" transform="translate(-155.44 -134.2)" fill="#e0e0e0"/>
    <path id="Path_100046" data-name="Path 100046" d="M223.57,301.6a5.91,5.91,0,0,1,2.42-.26,6,6,0,0,1,2.43.26,5.69,5.69,0,0,1-2.43.27,5.63,5.63,0,0,1-2.42-.27Z" transform="translate(-155.44 -134.2)" fill="#e0e0e0"/>
    <path id="Path_100047" data-name="Path 100047" d="M213.86,301.6a6,6,0,0,1,2.43-.26,5.91,5.91,0,0,1,2.42.26,5.63,5.63,0,0,1-2.42.27A5.69,5.69,0,0,1,213.86,301.6Z" transform="translate(-155.44 -134.2)" fill="#e0e0e0"/>
    <path id="Path_100048" data-name="Path 100048" d="M204.15,301.6a11.491,11.491,0,0,1,4.86,0A11.07,11.07,0,0,1,204.15,301.6Z" transform="translate(-155.44 -134.2)" fill="#e0e0e0"/>
    <path id="Path_100049" data-name="Path 100049" d="M194.45,301.6a5.91,5.91,0,0,1,2.42-.26,6,6,0,0,1,2.43.26,5.69,5.69,0,0,1-2.43.27A5.63,5.63,0,0,1,194.45,301.6Z" transform="translate(-155.44 -134.2)" fill="#e0e0e0"/>
    <path id="Path_100050" data-name="Path 100050" d="M184.74,301.6a11.491,11.491,0,0,1,4.86,0,11.07,11.07,0,0,1-4.86,0Z" transform="translate(-155.44 -134.2)" fill="#e0e0e0"/>
    <path id="Path_100051" data-name="Path 100051" d="M177.39,299.1a6.31,6.31,0,0,1,.26,2.5l-.26-.26h1l.8.06c.45.05.73.11.73.18s-.28.14-.73.19h-1.77c-.12-.12.26.26-.26-.27a6.31,6.31,0,0,1,.23-2.4Z" transform="translate(-155.44 -134.2)" fill="#e0e0e0"/>
    <path id="Path_100052" data-name="Path 100052" d="M177.39,289.25a11.82,11.82,0,0,1,0,4.93A11.82,11.82,0,0,1,177.39,289.25Z" transform="translate(-155.44 -134.2)" fill="#e0e0e0"/>
    <path id="Path_100053" data-name="Path 100053" d="M177.39,279.4a6.11,6.11,0,0,1,.26,2.46,6.18,6.18,0,0,1-.26,2.47,6.18,6.18,0,0,1-.26-2.47A6.11,6.11,0,0,1,177.39,279.4Z" transform="translate(-155.44 -134.2)" fill="#e0e0e0"/>
    <path id="Path_100054" data-name="Path 100054" d="M177.39,269.55a11.77,11.77,0,0,1,0,4.92A11.77,11.77,0,0,1,177.39,269.55Z" transform="translate(-155.44 -134.2)" fill="#e0e0e0"/>
    <path id="Path_100055" data-name="Path 100055" d="M177.39,259.69a6.18,6.18,0,0,1,.26,2.47,6.11,6.11,0,0,1-.26,2.46,6.11,6.11,0,0,1-.26-2.46A6.18,6.18,0,0,1,177.39,259.69Z" transform="translate(-155.44 -134.2)" fill="#e0e0e0"/>
    <path id="Path_100056" data-name="Path 100056" d="M177.39,249.84a6.11,6.11,0,0,1,.26,2.46,6.18,6.18,0,0,1-.26,2.47,6.18,6.18,0,0,1-.26-2.47A6.11,6.11,0,0,1,177.39,249.84Z" transform="translate(-155.44 -134.2)" fill="#e0e0e0"/>
    <path id="Path_100057" data-name="Path 100057" d="M177.39,240a11.77,11.77,0,0,1,0,4.92A11.77,11.77,0,0,1,177.39,240Z" transform="translate(-155.44 -134.2)" fill="#e0e0e0"/>
    <path id="Path_100058" data-name="Path 100058" d="M177.39,230.13a6.18,6.18,0,0,1,.26,2.47,6.11,6.11,0,0,1-.26,2.46,6.11,6.11,0,0,1-.26-2.46,6.18,6.18,0,0,1,.26-2.47Z" transform="translate(-155.44 -134.2)" fill="#e0e0e0"/>
    <path id="Path_100059" data-name="Path 100059" d="M177.39,220.28a6.11,6.11,0,0,1,.26,2.46,6.18,6.18,0,0,1-.26,2.47,6.18,6.18,0,0,1-.26-2.47A6.11,6.11,0,0,1,177.39,220.28Z" transform="translate(-155.44 -134.2)" fill="#e0e0e0"/>
    <path id="Path_100060" data-name="Path 100060" d="M177.39,210.43a11.77,11.77,0,0,1,0,4.92A11.77,11.77,0,0,1,177.39,210.43Z" transform="translate(-155.44 -134.2)" fill="#e0e0e0"/>
    <path id="Path_100061" data-name="Path 100061" d="M179.89,203a6.11,6.11,0,0,1-2.5.26l.26-.26h0v1a3.3,3.3,0,0,1-.06.8c0,.45-.11.73-.18.73s-.14-.28-.19-.73V203h0l.26-.26a6.31,6.31,0,0,1,2.41.26Z" transform="translate(-155.44 -134.2)" fill="#e0e0e0"/>
    <path id="Path_100062" data-name="Path 100062" d="M189.6,203a11.49,11.49,0,0,1-4.86,0A11.49,11.49,0,0,1,189.6,203Z" transform="translate(-155.44 -134.2)" fill="#e0e0e0"/>
    <path id="Path_100063" data-name="Path 100063" d="M199.3,203a5.79,5.79,0,0,1-2.43.26,5.72,5.72,0,0,1-2.42-.26,5.91,5.91,0,0,1,2.42-.26,6,6,0,0,1,2.43.26Z" transform="translate(-155.44 -134.2)" fill="#e0e0e0"/>
    <path id="Path_100064" data-name="Path 100064" d="M209,203a11.49,11.49,0,0,1-4.86,0,11.49,11.49,0,0,1,4.86,0Z" transform="translate(-155.44 -134.2)" fill="#e0e0e0"/>
    <path id="Path_100065" data-name="Path 100065" d="M218.71,203a5.721,5.721,0,0,1-2.42.26,5.79,5.79,0,0,1-2.43-.26,6,6,0,0,1,2.43-.26,5.91,5.91,0,0,1,2.42.26Z" transform="translate(-155.44 -134.2)" fill="#e0e0e0"/>
    <path id="Path_100066" data-name="Path 100066" d="M228.42,203a5.791,5.791,0,0,1-2.43.26,5.72,5.72,0,0,1-2.42-.26,5.91,5.91,0,0,1,2.42-.26,6,6,0,0,1,2.43.26Z" transform="translate(-155.44 -134.2)" fill="#e0e0e0"/>
    <path id="Path_100067" data-name="Path 100067" d="M238.13,203a11.49,11.49,0,0,1-4.86,0,11.49,11.49,0,0,1,4.86,0Z" transform="translate(-155.44 -134.2)" fill="#e0e0e0"/>
    <path id="Path_100068" data-name="Path 100068" d="M247.83,203a11.44,11.44,0,0,1-4.85,0,11.44,11.44,0,0,1,4.85,0Z" transform="translate(-155.44 -134.2)" fill="#e0e0e0"/>
    <path id="Path_100069" data-name="Path 100069" d="M257.54,203a11.49,11.49,0,0,1-4.86,0A11.49,11.49,0,0,1,257.54,203Z" transform="translate(-155.44 -134.2)" fill="#e0e0e0"/>
    <path id="Path_100070" data-name="Path 100070" d="M267.24,203a5.72,5.72,0,0,1-2.42.26,5.79,5.79,0,0,1-2.43-.26,6,6,0,0,1,2.43-.26,5.91,5.91,0,0,1,2.42.26Z" transform="translate(-155.44 -134.2)" fill="#e0e0e0"/>
    <path id="Path_100071" data-name="Path 100071" d="M277,203a5.79,5.79,0,0,1-2.43.26,5.72,5.72,0,0,1-2.42-.26,5.91,5.91,0,0,1,2.42-.26A6,6,0,0,1,277,203Z" transform="translate(-155.44 -134.2)" fill="#e0e0e0"/>
    <path id="Path_100072" data-name="Path 100072" d="M286.66,203a11.49,11.49,0,0,1-4.86,0A11.49,11.49,0,0,1,286.66,203Z" transform="translate(-155.44 -134.2)" fill="#e0e0e0"/>
    <path id="Path_100073" data-name="Path 100073" d="M294,205.5a6.11,6.11,0,0,1-.26-2.5c.52.52.14.15.26.26h-.97l-.8-.05c-.45-.05-.73-.12-.73-.19s.28-.14.73-.18a3.921,3.921,0,0,0,.8-.06h1l.26.26a6.31,6.31,0,0,1-.29,2.46Z" transform="translate(-155.44 -134.2)" fill="#e0e0e0"/>
    <path id="Path_100074" data-name="Path 100074" d="M294,215.35a11.769,11.769,0,0,1,0-4.92,11.77,11.77,0,0,1,0,4.92Z" transform="translate(-155.44 -134.2)" fill="#e0e0e0"/>
    <path id="Path_100075" data-name="Path 100075" d="M294,225.21a6,6,0,0,1-.26-2.47,5.91,5.91,0,0,1,.26-2.46,6.11,6.11,0,0,1,.26,2.46,6.18,6.18,0,0,1-.26,2.47Z" transform="translate(-155.44 -134.2)" fill="#e0e0e0"/>
    <path id="Path_100076" data-name="Path 100076" d="M294,235.06a5.91,5.91,0,0,1-.26-2.46,6,6,0,0,1,.26-2.47,6.18,6.18,0,0,1,.26,2.47,6.11,6.11,0,0,1-.26,2.46Z" transform="translate(-155.44 -134.2)" fill="#e0e0e0"/>
    <path id="Path_100077" data-name="Path 100077" d="M294,244.91a11.769,11.769,0,0,1,0-4.92,11.77,11.77,0,0,1,0,4.92Z" transform="translate(-155.44 -134.2)" fill="#e0e0e0"/>
    <path id="Path_100078" data-name="Path 100078" d="M294,254.77a6,6,0,0,1-.26-2.47,5.91,5.91,0,0,1,.26-2.46,6.11,6.11,0,0,1,.26,2.46,6.18,6.18,0,0,1-.26,2.47Z" transform="translate(-155.44 -134.2)" fill="#e0e0e0"/>
    <path id="Path_100079" data-name="Path 100079" d="M294,264.62a5.91,5.91,0,0,1-.26-2.46,6,6,0,0,1,.26-2.47,6.18,6.18,0,0,1,.26,2.47,6.11,6.11,0,0,1-.26,2.46Z" transform="translate(-155.44 -134.2)" fill="#e0e0e0"/>
    <path id="Path_100080" data-name="Path 100080" d="M294,274.47a11.769,11.769,0,0,1,0-4.92,11.77,11.77,0,0,1,0,4.92Z" transform="translate(-155.44 -134.2)" fill="#e0e0e0"/>
    <path id="Path_100081" data-name="Path 100081" d="M294,284.33a6,6,0,0,1-.26-2.47,5.91,5.91,0,0,1,.26-2.46,6.11,6.11,0,0,1,.26,2.46,6.18,6.18,0,0,1-.26,2.47Z" transform="translate(-155.44 -134.2)" fill="#e0e0e0"/>
    <path id="Path_100082" data-name="Path 100082" d="M294,294.18a11.82,11.82,0,0,1,0-4.93A11.82,11.82,0,0,1,294,294.18Z" transform="translate(-155.44 -134.2)" fill="#e0e0e0"/>
    <path id="Path_100083" data-name="Path 100083" d="M215.37,249.17v16.86h29.19V249.17h-6.25v10.7H221.56v-10.7Z" transform="translate(-155.44 -134.2)" fill="#e0e0e0"/>
    <path id="Path_100084" data-name="Path 100084" d="M226.64,255.47h6.77V244.08h6.43l-9.47-15.19L220.2,243.75h6.6Z" transform="translate(-155.44 -134.2)" fill="#e0e0e0"/>
    <path id="Path_100085" data-name="Path 100085" d="M193.55,329.39l-1.31-.6a3.33,3.33,0,1,1,1-.72Zm-3-7.14a3.4,3.4,0,1,0,0,6.8,3.49,3.49,0,0,0,1.64-.51h0l1,.44L193,328v-.05a3.36,3.36,0,0,0,.91-2.3,3.4,3.4,0,0,0-3.37-3.4Z" transform="translate(-155.44 -134.2)" fill="#263238"/>
    <path id="Path_100086" data-name="Path 100086" d="M202,328.89l-1.48-3.68-2.8-2.6h6.85Zm-3.65-6,2.39,2.23,1.26,3.14,2.2-5.37Z" transform="translate(-155.44 -134.2)" fill="#263238"/>
    <rect id="Rectangle_20916" data-name="Rectangle 20916" width="4.46" height="0.25" transform="translate(45.145 190.796) rotate(-32.59)" fill="#263238"/>
    <path id="Path_100087" data-name="Path 100087" d="M228.43,323.92a1.4,1.4,0,1,1-1.39-1.36,1.38,1.38,0,0,1,1.39,1.36Z" transform="translate(-155.44 -134.2)" fill="#263238"/>
    <path id="Path_100088" data-name="Path 100088" d="M232.76,323.94a1.4,1.4,0,1,1-1.39-1.36,1.37,1.37,0,0,1,1.39,1.36Z" transform="translate(-155.44 -134.2)" fill="#263238"/>
    <path id="Path_100089" data-name="Path 100089" d="M237.1,324a1.4,1.4,0,1,1-1.4-1.36,1.38,1.38,0,0,1,1.4,1.36Z" transform="translate(-155.44 -134.2)" fill="#263238"/>
    <path id="Path_100090" data-name="Path 100090" d="M284.19,329.74l-2.83-2.83-2.69,2.69v-8.13h5.52Zm-2.83-3.18.09.08,2.49,2.5v-7.42h-5V329Z" transform="translate(-155.44 -134.2)" fill="#263238"/>
    <path id="Path_100091" data-name="Path 100091" d="M278.56,343.53c0,.14-23.6.26-52.7.26s-52.7-.12-52.7-.26,23.59-.26,52.7-.26S278.56,343.38,278.56,343.53Z" transform="translate(-155.44 -134.2)" fill="#263238"/>
    <path id="Path_100092" data-name="Path 100092" d="M225.63,349.76c0,.14-11.75.26-26.23.26s-26.24-.12-26.24-.26,11.74-.26,26.24-.26S225.63,349.61,225.63,349.76Z" transform="translate(-155.44 -134.2)" fill="#263238"/>
    <path id="Path_100093" data-name="Path 100093" d="M251.28,368.45c0,.14-11.74.26-26.23.26s-26.24-.12-26.24-.26,11.75-.27,26.24-.27S251.28,368.3,251.28,368.45Z" transform="translate(-155.44 -134.2)" fill="#263238"/>
    <path id="Path_100094" data-name="Path 100094" d="M194.06,368.45c0,.14-4.68.26-10.45.26s-10.45-.12-10.45-.26a101.074,101.074,0,0,1,10.45-.27,101.065,101.065,0,0,1,10.45.27Z" transform="translate(-155.44 -134.2)" fill="#263238"/>
    <path id="Path_100095" data-name="Path 100095" d="M251.28,390.23c0,.14-11.74.26-26.23.26s-26.24-.12-26.24-.26,11.75-.26,26.24-.26S251.28,390.08,251.28,390.23Z" transform="translate(-155.44 -134.2)" fill="#263238"/>
    <path id="Path_100096" data-name="Path 100096" d="M194.06,390.23c0,.14-4.68.26-10.45.26s-10.45-.12-10.45-.26a103,103,0,0,1,10.45-.26,103,103,0,0,1,10.45.26Z" transform="translate(-155.44 -134.2)" fill="#263238"/>
    <path id="Path_100097" data-name="Path 100097" d="M231.34,376.3c0,.15-7.13.27-15.92.27s-15.91-.12-15.91-.27,7.12-.26,15.91-.26S231.34,376.16,231.34,376.3Z" transform="translate(-155.44 -134.2)" fill="#263238"/>
    <path id="Path_100098" data-name="Path 100098" d="M231.34,398.77c0,.15-7.13.26-15.92.26s-15.91-.11-15.91-.26,7.12-.26,15.91-.26S231.34,398.63,231.34,398.77Z" transform="translate(-155.44 -134.2)" fill="#263238"/>
    <path id="Path_100099" data-name="Path 100099" d="M182.82,323.26a2.12,2.12,0,0,0-4.18.1,2.12,2.12,0,0,0-4.18-.1,2.83,2.83,0,0,0,.51,2.06,8.251,8.251,0,0,0,1.48,1.59l2.22,2c.76-.68,1.4-1.32,2.16-2a8.632,8.632,0,0,0,1.49-1.59,2.82,2.82,0,0,0,.5-2.06Z" transform="translate(-155.44 -134.2)" fill="#ff385c"/>
    <path id="Path_100100" data-name="Path 100100" d="M282.15,134.68l-103.07-.48a22.46,22.46,0,0,0-22.55,22.36l-1.09,258.38a22.44,22.44,0,0,0,22.34,22.54l103.07.48A22.44,22.44,0,0,0,303.4,415.6l1.09-258.38A22.44,22.44,0,0,0,282.15,134.68Zm14.43,276.9a15.72,15.72,0,0,1-15.79,15.66l-102.86-.48A15.72,15.72,0,0,1,162.28,411l1.07-252.19a15.72,15.72,0,0,1,15.79-15.66l17.49.08h7a5,5,0,0,1,4.83,5.1V152a5,5,0,0,0,4.83,5.1l38.95.18a5,5,0,0,0,4.87-5v-3.63A5,5,0,0,1,262,143.5l20,.1a15.71,15.71,0,0,1,15.65,15.78Z" transform="translate(-155.44 -134.2)" fill="#263238"/>
  </g>
  <g id="freepik--character-2--inject-357" transform="translate(215.4 92.22)">
    <path id="Path_100101" data-name="Path 100101" d="M402.83,224.21l-18.05-6s-8,23-10.42,23.2c-13.55,1.24-28-3.25-33.12-5-.51-.57-1.1-1.27-1.76-2.12a8.06,8.06,0,0,1-1.27-2.43,12.46,12.46,0,0,1-.73-3.35,1.06,1.06,0,0,0-1.82-.84c-.59.76-.74,3.66.6,6.79s-3.4.63-5.14-.24-7.25-3.33-7.94-3c-1,.47-.7,1.64,1.06,2.48s6.86,3.7,6.35,4.59-9.3-3.68-9.3-3.68-1.72-1.29-2.34-.27c-1.12,1.84,8.6,6,9.53,6.38.65.26.13,1.25-.55.94s-8.67-4.77-9.82-2.91c-.89,1.43,7.95,3.51,9.09,5.34s-6.54-2.25-7.33-.86c-.3.52-.44,1,4.31,2.67a103,103,0,0,0,10.6,2.7v.05s47.5,21.24,57.74.76C403.37,227.62,402.83,224.21,402.83,224.21Z" transform="translate(-239.56 -156.288)" fill="#eb996e"/>
    <rect id="Rectangle_20917" data-name="Rectangle 20917" width="134.15" height="107.25" transform="matrix(1, -0.002, 0.002, 1, 0.308, 35.671)" fill="#ebebeb"/>
    <path id="Path_100102" data-name="Path 100102" d="M374,191.73h-9.8l-27.45.11-96.9.29.23-.23c.07,31.92.15,68.51.23,107.23h0l-.26-.26,134.14-.21L374,299V199.35c0,5,.05,12.33.09,21.68.07,18.75.15,45.58.26,78v.22h-.22l-134.14.29h-.26v-.28c-.06-38.72-.12-75.31-.17-107.23v-.23h.23l97-.06H374Z" transform="translate(-239.56 -156.288)" fill="#263238"/>
    <rect id="Rectangle_20918" data-name="Rectangle 20918" width="124.72" height="93.74" transform="matrix(1, -0.002, 0.002, 1, 4.941, 42.413)" fill="#ff385c"/>
    <path id="Path_100103" data-name="Path 100103" d="M244.66,292.47l43.45-58.35,27.06,36.4L333.43,251l35.95,41.24Z" transform="translate(-239.56 -156.288)" fill="#ff385c"/>
    <path id="Path_100104" data-name="Path 100104" d="M326.54,226.91a9.82,9.82,0,1,1-9.84-9.8,9.82,9.82,0,0,1,9.84,9.8Z" transform="translate(-239.56 -156.288)" fill="#ff385c"/>
    <g id="Group_91726" data-name="Group 91726" transform="translate(5.1 77.832)" opacity="0.2">
      <path id="Path_100105" data-name="Path 100105" d="M244.66,292.47l43.45-58.35,27.06,36.4L333.43,251l35.95,41.24Z" transform="translate(-244.66 -234.12)"/>
    </g>
    <g id="Group_91727" data-name="Group 91727" transform="translate(67.34 60.822)" opacity="0.2">
      <path id="Path_100106" data-name="Path 100106" d="M326.54,226.91a9.82,9.82,0,1,1-9.84-9.8,9.82,9.82,0,0,1,9.84,9.8Z" transform="translate(-306.9 -217.11)"/>
    </g>
    <path id="Path_100107" data-name="Path 100107" d="M479.56,397.76l-35-21.23-6.83,17.11,36.17,18.29s-2.59,10.05-2,12.25L481.57,399Z" transform="translate(-239.56 -156.288)" fill="#ffbe9d"/>
    <path id="Path_100108" data-name="Path 100108" d="M471.86,424.19l1.01.39,10.03-25.91-1.08-.43Z" transform="translate(-239.56 -156.288)" fill="#263238"/>
    <path id="Path_100109" data-name="Path 100109" d="M476.09,415.29c0,.15-.93.25-1.87.84s-1.45,1.36-1.59,1.29.23-1.07,1.32-1.73S476.11,415.15,476.09,415.29Z" transform="translate(-239.56 -156.288)" fill="#263238"/>
    <path id="Path_100110" data-name="Path 100110" d="M478.94,397.14c.15,0-.21,1.91-.06,4.24s.69,4.16.55,4.21a8.62,8.62,0,0,1-1.07-4.18,8.53,8.53,0,0,1,.58-4.27Z" transform="translate(-239.56 -156.288)" fill="#263238"/>
    <path id="Path_100111" data-name="Path 100111" d="M478.1,397.47a55.062,55.062,0,0,1-2.9,6.93,52.369,52.369,0,0,1-3.37,6.71,108.705,108.705,0,0,1,6.27-13.64Z" transform="translate(-239.56 -156.288)" fill="#263238"/>
    <path id="Path_100112" data-name="Path 100112" d="M378.59,394.3H360.17l-3.57,40.37s-10.29,1.33-12.13,2.66l27-.33.42-2.33h0Z" transform="translate(-239.56 -156.288)" fill="#ffbe9d"/>
    <path id="Path_100113" data-name="Path 100113" d="M344.47,437.33v1.08l27.79-.3v-1.16Z" transform="translate(-239.56 -156.288)" fill="#263238"/>
    <path id="Path_100114" data-name="Path 100114" d="M354.3,438c-.14.06-.58-.77-1.48-1.42s-1.8-.85-1.78-1a2.35,2.35,0,0,1,2.09.59C354.16,436.87,354.43,437.92,354.3,438Z" transform="translate(-239.56 -156.288)" fill="#263238"/>
    <path id="Path_100115" data-name="Path 100115" d="M372.21,433.87c0,.15-1.85.52-4,1.52s-3.61,2.19-3.71,2.07a11.22,11.22,0,0,1,7.67-3.59Z" transform="translate(-239.56 -156.288)" fill="#263238"/>
    <path id="Path_100116" data-name="Path 100116" d="M371.59,433.21a55,55,0,0,1-7.51-.12,53,53,0,0,1-7.48-.64,54.992,54.992,0,0,1,7.51.12,54.912,54.912,0,0,1,7.48.64Z" transform="translate(-239.56 -156.288)" fill="#263238"/>
    <path id="Path_100117" data-name="Path 100117" d="M397.23,288.74s3.84,83,6.46,86.43,50.38,34,50.38,34l11.27-26.44s-34.66-24.07-34.63-25.63.26-82.38.26-82.38Z" transform="translate(-239.56 -156.288)" fill="#455a64"/>
    <path id="Path_100118" data-name="Path 100118" d="M407.1,338.41a4.917,4.917,0,0,1,.11.63l.24,1.82.83,6.82c.67,5.87,1.6,14,2.67,23.48l-.07-.15,8.59,8.6.47.47h0a166.411,166.411,0,0,0,14,10.22L445.7,398c3.36,2.22,6,4.07,7.85,5.38.91.66,1.61,1.19,2.08,1.54l.53.41c.12.1.18.15.17.16l-.2-.12-.56-.37-2.14-1.45c-1.85-1.26-4.55-3.07-7.93-5.24s-7.43-4.73-11.88-7.66a156.148,156.148,0,0,1-14-10.21h0l-.47-.47-8.57-8.61-.07-.07v-.08c-1-9.45-1.87-17.63-2.49-23.51-.28-2.88-.51-5.19-.68-6.83l-.15-1.83a2.579,2.579,0,0,1-.09-.63Z" transform="translate(-239.56 -156.288)" fill="#263238"/>
    <path id="Path_100119" data-name="Path 100119" d="M418.39,318.84a.791.791,0,0,1,0,.25v.74c0,.69,0,1.64.05,2.84,0,2.52.05,6.08.09,10.47s0,9.68.05,15.51v9.17a18.65,18.65,0,0,0,.39,4.76,15.51,15.51,0,0,0,5,8.25c1.25,1,2.58,2,3.85,2.91,2.55,1.89,5,3.69,7.41,5.39l12.61,9c3.58,2.59,6.46,4.71,8.43,6.2l2.25,1.74.58.46q.19.17.18.18l-.21-.13-.61-.43-2.31-1.65-8.52-6.07c-3.62-2.55-7.92-5.58-12.68-9-2.38-1.69-4.87-3.48-7.43-5.37-1.28-.95-2.58-1.88-3.89-2.93a16,16,0,0,1-3.27-3.85,15.79,15.79,0,0,1-1.9-4.68,19.731,19.731,0,0,1-.39-4.87v-9.17c0-5.83,0-11.08.06-15.51l.08-10.47V319A.67.67,0,0,1,418.39,318.84Z" transform="translate(-239.56 -156.288)" fill="#263238"/>
    <path id="Path_100120" data-name="Path 100120" d="M426.07,305.53a1.1,1.1,0,0,1,0,.24v3.42c0,2.39-.06,5.8-.11,10-.15,8.51-.35,20.26-.58,33.4v.05a8.53,8.53,0,0,0,0,3.38,12.589,12.589,0,0,0,2,4.6,23,23,0,0,0,3.24,3.76c2.42,2.19,4.9,4.21,7.22,6.13,4.67,3.84,9,7.16,12.69,9.84s6.79,4.73,8.94,6.11L462,388l.65.42.21.16a.466.466,0,0,1-.24-.11l-.67-.38c-.59-.33-1.45-.83-2.54-1.5-2.18-1.33-5.3-3.34-9-6s-8.09-5.94-12.79-9.76c-2.34-1.93-4.8-3.92-7.26-6.14a24,24,0,0,1-3.32-3.83,13.12,13.12,0,0,1-2.1-4.8,8.84,8.84,0,0,1,0-3.59v.05c.29-13.14.54-24.89.73-33.39.12-4.21.21-7.61.28-10,0-1.14.07-2.05.1-2.71v-.7a.753.753,0,0,1,.02-.19Z" transform="translate(-239.56 -156.288)" fill="#263238"/>
    <path id="Path_100121" data-name="Path 100121" d="M433.31,269l.74,3a35.47,35.47,0,0,1-3.73,26.18l-33.16,57.48a46.171,46.171,0,0,0-5.08,13.07l-9.27,45.34-28.51-.62s5.69-33,8.68-51.65c2.26-14,21.06-57.64,30.16-78.23L397.3,275h0Z" transform="translate(-239.56 -156.288)" fill="#455a64"/>
    <path id="Path_100122" data-name="Path 100122" d="M400.34,279.39a2.252,2.252,0,0,1-.13.34l-.4,1-1.61,3.71c-.71,1.6-1.58,3.56-2.53,5.87s-2.09,4.89-3.24,7.81-2.46,6.09-3.75,9.54-2.66,7.14-4.08,11c-2.75,7.81-5.61,16.47-8.33,25.63s-5,18-6.9,26.07c-.92,4-1.82,7.87-2.55,11.49s-1.43,7-2,10-1.07,5.87-1.51,8.32-.79,4.57-1.06,6.3-.5,3-.65,4c-.08.44-.14.78-.19,1a1.5,1.5,0,0,1-.08.35,1.64,1.64,0,0,1,0-.36c0-.26.08-.6.13-1,.13-.95.32-2.29.56-4s.55-3.86,1-6.32.84-5.26,1.44-8.34,1.19-6.46,1.95-10.07,1.61-7.46,2.52-11.51c1.89-8.08,4.17-16.91,6.86-26.1s5.6-17.84,8.38-25.65c1.43-3.9,2.76-7.61,4.13-11s2.61-6.63,3.81-9.53,2.33-5.5,3.31-7.79,1.87-4.24,2.61-5.83l1.7-3.67.46-.95a1.169,1.169,0,0,1,.15-.31Z" transform="translate(-239.56 -156.288)" fill="#263238"/>
    <path id="Path_100123" data-name="Path 100123" d="M416.44,276.84a1.64,1.64,0,0,1-.15.34c-.13.25-.29.58-.49,1l-1.94,3.77c-.85,1.63-1.89,3.63-3,6s-2.51,5-3.89,8c-.7,1.48-1.44,3-2.2,4.66s-1.51,3.34-2.31,5.1c-1.61,3.52-3.2,7.33-4.9,11.33-3.31,8-6.75,17-10,26.44s-6,18.65-8.33,27c-1.12,4.2-2.21,8.19-3.1,12-.45,1.88-.92,3.69-1.32,5.44s-.77,3.43-1.13,5c-.74,3.21-1.3,6.13-1.83,8.69s-1,4.76-1.28,6.57-.61,3.19-.79,4.17c-.09.45-.16.81-.22,1.08a1.8,1.8,0,0,1-.09.36,1.469,1.469,0,0,1,0-.37,9.993,9.993,0,0,1,.17-1.09c.16-1,.39-2.39.69-4.18s.68-4,1.19-6.6,1-5.49,1.76-8.7l1.1-5.05c.39-1.76.85-3.57,1.29-5.45.87-3.77,2-7.77,3.05-12,2.31-8.39,5.06-17.56,8.31-27.07s6.74-18.42,10.08-26.45c1.72-4,3.32-7.82,5-11.33.81-1.75,1.56-3.47,2.33-5.09l2.24-4.65c1.4-3,2.78-5.62,4-7.95s2.23-4.33,3.11-5.94,1.55-2.85,2-3.73l.54-1a1.558,1.558,0,0,1,.11-.3Z" transform="translate(-239.56 -156.288)" fill="#263238"/>
    <path id="Path_100124" data-name="Path 100124" d="M435.18,273.72s-.07.12-.22.33l-.66.95c-.62.84-1.49,2.05-2.61,3.6l-1.89,2.6-2.16,3.15c-1.53,2.28-3.35,4.82-5.16,7.76l-2.9,4.57c-1,1.59-2,3.3-3,5-2.12,3.46-4.16,7.29-6.35,11.29-4.25,8.08-8.59,17.13-12.59,26.87s-7.17,19.28-9.78,28c-1.23,4.39-2.45,8.56-3.36,12.51-.47,2-1,3.87-1.37,5.71s-.76,3.61-1.12,5.3c-.76,3.37-1.23,6.46-1.73,9.15-.24,1.35-.46,2.61-.66,3.77s-.33,2.22-.46,3.18c-.29,1.88-.51,3.36-.66,4.39-.08.49-.14.86-.19,1.15a1.74,1.74,0,0,1-.08.38,3.813,3.813,0,0,1,0-.39c0-.28.08-.66.13-1.15.14-1,.32-2.52.56-4.41.13-1,.27-2,.42-3.19s.4-2.42.62-3.78c.47-2.7.92-5.79,1.66-9.17l1.09-5.32c.38-1.84.88-3.74,1.34-5.72.9-4,2.1-8.14,3.32-12.55,2.59-8.76,5.8-18.29,9.75-28.08a287.924,287.924,0,0,1,12.65-26.89c2.21-4,4.27-7.83,6.41-11.29,1.05-1.74,2-3.44,3-5l2.94-4.56c1.84-2.93,3.68-5.46,5.23-7.72.79-1.13,1.51-2.19,2.2-3.14l1.93-2.57,2.68-3.55.71-.91A3.535,3.535,0,0,1,435.18,273.72Z" transform="translate(-239.56 -156.288)" fill="#263238"/>
    <path id="Path_100125" data-name="Path 100125" d="M397.16,355.64c-.12-.07,7.2-13,16.35-28.87s16.69-28.68,16.81-28.61-7.2,13-16.35,28.87S397.29,355.71,397.16,355.64Z" transform="translate(-239.56 -156.288)" fill="#263238"/>
    <path id="Path_100126" data-name="Path 100126" d="M420.67,205.19h0l7.88.14,6.27,17.94-6.65,22.89c-1.49,6,9.62,17.13,9.62,26.5l-47.08,6.74,3-19.9-4.07-13.39v-1l-15.3-7.63,5.05-12.37c7.77-18.2,21.34-19.31,21.34-19.31Z" transform="translate(-239.56 -156.288)" fill="#263238"/>
    <path id="Path_100127" data-name="Path 100127" d="M389.91,244.91a2.76,2.76,0,0,1-1-.51,7.57,7.57,0,0,1-2-2.1,6.78,6.78,0,0,1-1-4.23,9.41,9.41,0,0,1,4.85-7.84l-.13.18c.37-2.71.7-5,1-6.69a16.7,16.7,0,0,1,.49-2.61,16.5,16.5,0,0,1-.19,2.65c-.17,1.66-.44,4-.77,6.72v.12l-.12.06a9.15,9.15,0,0,0-4.6,7.44,6.58,6.58,0,0,0,.88,4,8.31,8.31,0,0,0,1.86,2.14A9.113,9.113,0,0,1,389.91,244.91Z" transform="translate(-239.56 -156.288)" fill="#455a64"/>
    <path id="Path_100128" data-name="Path 100128" d="M428.55,205.33s14.84,1.75,13.27,19.39c-1.6,18-4.33,20.19-4.33,20.19l-20.93-8.16c4.37-8.85,4.49-8.94,6.58-18.46l5.41-13Z" transform="translate(-239.56 -156.288)" fill="#263238"/>
    <path id="Path_100129" data-name="Path 100129" d="M423.93,218.17a15.555,15.555,0,0,1-.78,2.74c-.55,1.66-1.32,4-2.29,6.46s-2,4.7-2.76,6.28a15.234,15.234,0,0,1-1.35,2.49,16.431,16.431,0,0,1,1-2.65c.68-1.61,1.63-3.83,2.6-6.31l2.43-6.4a16.1,16.1,0,0,1,1.15-2.61Z" transform="translate(-239.56 -156.288)" fill="#455a64"/>
    <path id="Path_100130" data-name="Path 100130" d="M427.41,170.31c1.86,3.73,2.85,7,6.55,8.88,1.67.87,3.7,1.36,4.71,2.95s.58,4.23,2,5.74c2,2.19,6.13.41,8.39,2.35,2,1.72,1.37,5.43,3.54,7,1.22.86,2.89.67,4.28,1.21,2.29.88,3.37,3.51,3.67,5.94a10.44,10.44,0,0,1-.71,5.75,5.89,5.89,0,0,1-4.47,3.42c-2.59.27-5.52-1.51-7.62,0a10.058,10.058,0,0,0-1.74,2.13,6.54,6.54,0,0,1-10.74-.67c-1.45-2.41-1.36-5.73-3.47-7.58a12.39,12.39,0,0,0-4-1.82c-1.37-.51-2.8-1.37-3.21-2.77a12.2,12.2,0,0,0-2-3.43c-1.06-1.58-2.47.35-3.87-.43s-.87-2.3-1-3.9" transform="translate(-239.56 -156.288)" fill="#ff385c"/>
    <path id="Path_100131" data-name="Path 100131" d="M420.34,204.49a3,3,0,0,1,.11,1,8.149,8.149,0,0,1-.56,2.76,8.281,8.281,0,0,1-15.05.91,7.689,7.689,0,0,1-.88-2.68,2.571,2.571,0,0,1,0-1,11.15,11.15,0,0,0,1.22,3.53,8.35,8.35,0,0,0,2.78,2.86,8.153,8.153,0,0,0,9.2-.55,8.45,8.45,0,0,0,2.41-3.18,11.349,11.349,0,0,0,.77-3.65Z" transform="translate(-239.56 -156.288)" fill="#455a64"/>
    <path id="Path_100132" data-name="Path 100132" d="M420.15,205.41l1.34-31.07L409.14,165l-11.21,5.49s-.37,14.08,0,20.19,6.54,6.76,6.54,6.76-.14,3.57-.28,7.34a8,8,0,0,0,8.06,8.27h0A8,8,0,0,0,420.15,205.41Z" transform="translate(-239.56 -156.288)" fill="#ffbe9d"/>
    <path id="Path_100133" data-name="Path 100133" d="M399.16,180.79a.78.78,0,1,0,.78-.78.78.78,0,0,0-.78.78Z" transform="translate(-239.56 -156.288)" fill="#263238"/>
    <path id="Path_100134" data-name="Path 100134" d="M398.4,179.94c.1.1.68-.39,1.52-.44s1.47.36,1.56.25-.06-.24-.34-.43a2.1,2.1,0,0,0-2.46.16C398.43,179.7,398.35,179.9,398.4,179.94Z" transform="translate(-239.56 -156.288)" fill="#263238"/>
    <path id="Path_100135" data-name="Path 100135" d="M408.22,180.79a.78.78,0,1,0,.225-.558.78.78,0,0,0-.225.558Z" transform="translate(-239.56 -156.288)" fill="#263238"/>
    <path id="Path_100136" data-name="Path 100136" d="M407.73,179.93c.1.1.68-.39,1.52-.43s1.47.36,1.56.24-.06-.23-.34-.42a2.08,2.08,0,0,0-2.46.15C407.76,179.69,407.68,179.89,407.73,179.93Z" transform="translate(-239.56 -156.288)" fill="#263238"/>
    <path id="Path_100137" data-name="Path 100137" d="M439.27,191.92a4.4,4.4,0,0,1-2.21-.5,6.1,6.1,0,0,1-2.42-2.34,25.409,25.409,0,0,1-1.81-3.87c-1.14-2.83-2-5.47-2.59-7.39L430,177a8.219,8.219,0,0,0-.16-.83c-3.34-12.73-14.54-15.1-16.75-15.1-2.38,0-6.53-1.3-12.59,5a13.7,13.7,0,0,0-2.29,3.17,13.81,13.81,0,0,0-2.7,5.75,7.151,7.151,0,0,0-.14,3c.12,0,.14-1.16.61-2.93a14.472,14.472,0,0,1,1.17-3,11.58,11.58,0,0,0,.63,7l2.17-.6,7.77-2.65c-.7-2.41.33-5.4.92-6.8l.06-.05A12.16,12.16,0,0,0,419,179l1.45,20c10.34-2.22,10.09-16,10-18.86.47,1.58,1.08,3.4,1.84,5.31a23.622,23.622,0,0,0,1.9,3.94,6.41,6.41,0,0,0,2.68,2.42,4.26,4.26,0,0,0,2.42.35c.57-.11.84-.29.83-.32a6.751,6.751,0,0,0-.85.08Z" transform="translate(-239.56 -156.288)" fill="#ff385c"/>
    <path id="Path_100138" data-name="Path 100138" d="M404.7,187a6.9,6.9,0,0,0-1.38-.17c-.21,0-.42,0-.47-.2A1.23,1.23,0,0,1,403,186c.18-.55.37-1.13.58-1.74.4-1.24.74-2.37,1-3.19a5.542,5.542,0,0,0,.31-1.36,6.06,6.06,0,0,0-.54,1.28c-.29.81-.67,1.92-1.07,3.16-.19.62-.37,1.2-.55,1.76a1.37,1.37,0,0,0-.08.88.51.51,0,0,0,.36.3,1.19,1.19,0,0,0,.36,0,5.48,5.48,0,0,0,1.33-.09Z" transform="translate(-239.56 -156.288)" fill="#263238"/>
    <path id="Path_100139" data-name="Path 100139" d="M422.15,186.78a7.659,7.659,0,0,1,.32-3,2.87,2.87,0,0,1,2.2-1.9,2.42,2.42,0,0,1,2.48,2,3,3,0,0,1-1.51,2.93,3.88,3.88,0,0,1-3.39.1" transform="translate(-239.56 -156.288)" fill="#ffbe9d"/>
    <path id="Path_100140" data-name="Path 100140" d="M423.93,185.89c0-.07.33.08.76,0a1.37,1.37,0,0,0,.91-1.3,1,1,0,0,0-.22-.81.88.88,0,0,0-.66-.2c-.46,0-.78.16-.81.08s.21-.28.75-.44a1.2,1.2,0,0,1,1,.2,1.39,1.39,0,0,1,.42,1.2,1.91,1.91,0,0,1-.45,1.14,1.44,1.44,0,0,1-.9.48C424.15,186.25,423.88,185.92,423.93,185.89Z" transform="translate(-239.56 -156.288)" fill="#eb996e"/>
    <path id="Path_100141" data-name="Path 100141" d="M418.8,164.31a4.69,4.69,0,0,1-2.85-3.17,4.13,4.13,0,0,1,1.25-4,3.68,3.68,0,0,1,4.14-.39,5.21,5.21,0,0,1,2.06,2.89,4.09,4.09,0,0,1,.25,2.36,3.46,3.46,0,0,1-2.56,2.31,10.06,10.06,0,0,1-3.59.1" transform="translate(-239.56 -156.288)" fill="#ff385c"/>
    <path id="Path_100142" data-name="Path 100142" d="M443.32,181.24a3,3,0,0,0,.06-1.24,2.81,2.81,0,0,0-.67-1.27,3.27,3.27,0,0,0-1.63-.94,7.11,7.11,0,0,0-2.35-.17c-.86.06-1.78.21-2.79.24a5.51,5.51,0,0,1-3.1-.74,4.93,4.93,0,0,1-1.85-2.86,15.38,15.38,0,0,0-3.05-5.46,16,16,0,0,0-3.94-3.28,21.65,21.65,0,0,0-4.4-1.84,4.55,4.55,0,0,1,1.29.21,13.54,13.54,0,0,1,3.29,1.31,15.6,15.6,0,0,1,4.12,3.29,15.21,15.21,0,0,1,3.18,5.61,4.54,4.54,0,0,0,1.64,2.6,5.16,5.16,0,0,0,2.81.68c1,0,1.89-.15,2.77-.19a7.35,7.35,0,0,1,2.48.24,3.58,3.58,0,0,1,1.75,1.11,2.94,2.94,0,0,1,.65,1.42,2.279,2.279,0,0,1-.09,1C443.41,181.15,443.33,181.25,443.32,181.24Z" transform="translate(-239.56 -156.288)" fill="#ff385c"/>
    <path id="Path_100143" data-name="Path 100143" d="M423.28,165.5a14.62,14.62,0,0,0-7.46-3.94,8.34,8.34,0,0,1,7.46,3.94Z" transform="translate(-239.56 -156.288)" fill="#263238"/>
    <path id="Path_100144" data-name="Path 100144" d="M404.47,197.46a15.28,15.28,0,0,0,8.09-2.74s-2,4.51-8.15,4.26Z" transform="translate(-239.56 -156.288)" fill="#eb996e"/>
    <path id="Path_100145" data-name="Path 100145" d="M407.48,187.82a15.6,15.6,0,0,1-4.07,1.41,2.37,2.37,0,0,0,2.79.79,1.75,1.75,0,0,0,1.28-2.2Z" transform="translate(-239.56 -156.288)" fill="#fff"/>
    <path id="Path_100146" data-name="Path 100146" d="M418.67,237.53c-2.3,5.77-4.9,11.57-6.13,11.68-13.54,1.24-28-3.25-33.11-5-.52-.58-1.11-1.27-1.76-2.13a8.2,8.2,0,0,1-1.28-2.43,12.66,12.66,0,0,1-.72-3.34,1.06,1.06,0,0,0-1.83-.84c-.58.76-.73,3.66.6,6.78s-3.39.64-5.13-.23-7.25-3.33-7.95-3c-1,.47-.69,1.65,1.07,2.48s6.85,3.7,6.34,4.6-9.29-3.69-9.29-3.69-1.73-1.28-2.34-.26c-1.12,1.83,8.59,6,9.53,6.38.64.26.13,1.25-.55.93s-8.67-4.76-9.83-2.9c-.89,1.42,8,3.5,9.1,5.34s-6.55-2.26-7.34-.86c-.29.52-.44.95,4.32,2.66A101.708,101.708,0,0,0,373,256.37v.05s48.55,21.73,57.74.76c2.2-5,4.36-9.87,5.59-12.74" transform="translate(-239.56 -156.288)" fill="#ffbe9d"/>
    <path id="Path_100147" data-name="Path 100147" d="M304.15,299.4l.67-107.7-6.84-.14-.51,107.84Z" transform="translate(-239.56 -156.288)" fill="#263238"/>
  </g>
  <g id="freepik--character-1--inject-357" transform="translate(28.43 103.308)">
    <path id="Path_100148" data-name="Path 100148" d="M119.87,279.83,69.66,325.42a18.87,18.87,0,0,0-5.93,13.75h0c0,10.46,8.87,17.3,19.33,17.26,25.51-.1,66.93-1.62,66.63-1.32s.41-15.69.41-15.69l-58.65-2.56,46.18-39.39-17.76-17.64" transform="translate(-52.59 -167.376)" fill="#cc8f71"/>
    <path id="Path_100149" data-name="Path 100149" d="M122.5,291.15s-6.63,59.27-6.08,63.69,2.21,78.22,2.21,78.22l15.55-.61,4.2-77.81,13-59.12Z" transform="translate(-52.59 -167.375)" fill="#cc8f71"/>
    <path id="Path_100150" data-name="Path 100150" d="M116,339.41a19.94,19.94,0,0,1,0,3c0,1.87,0,4.45.11,7.31s.37,5.42.57,7.28a24.12,24.12,0,0,1,.26,3,14.229,14.229,0,0,1-.63-3,71.742,71.742,0,0,1-.72-7.31,69.48,69.48,0,0,1,.05-7.35,14.38,14.38,0,0,1,.36-2.93Z" transform="translate(-52.59 -167.375)" fill="#a8674a"/>
    <path id="Path_100151" data-name="Path 100151" d="M85.75,340.26a11.419,11.419,0,0,1,2.84-2,11.339,11.339,0,0,1,3.1-1.51,11.87,11.87,0,0,1-2.84,2A12,12,0,0,1,85.75,340.26Z" transform="translate(-52.59 -167.375)" fill="#a8674a"/>
    <path id="Path_100152" data-name="Path 100152" d="M74.87,223.16,53.58,208.38l-.99,1.66,21.15,14.97Z" transform="translate(-52.59 -167.376)" fill="#263238"/>
    <path id="Path_100153" data-name="Path 100153" d="M67.64,222.89S65,215.53,64.36,214s-1.62-4.3-2-4.36-1.87.14,0,4.82S60,216.19,60,216.19l-4.08-2.88s-3.26,9.38-1.5,12.28a46.381,46.381,0,0,0,4.67,6.14Z" transform="translate(-52.59 -167.376)" fill="#cc8f71"/>
    <path id="Path_100154" data-name="Path 100154" d="M113.7,178c-4.34,3-1.18,8.87-3.67,11.36-.93.92-2.25,1.38-3.16,2.32-3.13,3.23.48,9.33-2.26,12.89-.93,1.22-2.42,1.84-3.64,2.78a8.75,8.75,0,0,0-2,11.17l24.14-5.31-3.76-32.91Z" transform="translate(-52.59 -167.376)" fill="#263238"/>
    <path id="Path_100155" data-name="Path 100155" d="M142.88,174.27c1.52,3.6,7.06,3.23,9.65,6.15,1.68,1.9,1.79,4.82,3.47,6.71s4.52,2.25,6.76,3.48c4.51,2.47,6.1,8,7.28,13.06a126.728,126.728,0,0,1-26.41,7.55c-1.06.19-4.85.26-10.83,1.41l-2-33.95,12.08-4.41" transform="translate(-52.59 -167.376)" fill="#263238"/>
    <path id="Path_100156" data-name="Path 100156" d="M123.08,216.7c0-2-1-11-1-11s-6.43-.36-7.13-6.69-1-21-1-21l11.37-6.28,10.59,9.46,2.35,31.45Z" transform="translate(-52.59 -167.376)" fill="#cc8f71"/>
    <path id="Path_100157" data-name="Path 100157" d="M137.65,185.75s-10.52-.47-12.84-9.87L114,186.93a12.27,12.27,0,0,1,2.17-13.72c6-6.85,10.36-5.7,12.82-5.83,2.31-.11,14.06,1.78,18.18,14.84.3.95.62,3.32.84,4.38Z" transform="translate(-52.59 -167.376)" fill="#263238"/>
    <path id="Path_100158" data-name="Path 100158" d="M115.5,188.61a.82.82,0,0,0,.86.77.81.81,0,1,0-.86-.77Z" transform="translate(-52.59 -167.376)" fill="#263238"/>
    <path id="Path_100159" data-name="Path 100159" d="M114.67,187.77c.11.1.69-.44,1.56-.53s1.55.29,1.64.17-.08-.24-.38-.42a2.06,2.06,0,0,0-1.32-.28,2.17,2.17,0,0,0-1.23.56C114.69,187.51,114.62,187.72,114.67,187.77Z" transform="translate(-52.59 -167.376)" fill="#263238"/>
    <path id="Path_100160" data-name="Path 100160" d="M124.92,188.15a.81.81,0,1,0,.2-.591.81.81,0,0,0-.2.591Z" transform="translate(-52.59 -167.376)" fill="#263238"/>
    <path id="Path_100161" data-name="Path 100161" d="M124.37,187.28c.11.1.68-.44,1.55-.53s1.55.3,1.64.18-.08-.24-.37-.42a2.16,2.16,0,0,0-2.55.28C124.39,187,124.32,187.24,124.37,187.28Z" transform="translate(-52.59 -167.376)" fill="#263238"/>
    <path id="Path_100162" data-name="Path 100162" d="M121.58,194.83a5.64,5.64,0,0,0-1.44-.11c-.22,0-.44,0-.5-.19a1.28,1.28,0,0,1,.09-.71l.51-1.84a31.9,31.9,0,0,0,1.1-4.79,36.061,36.061,0,0,0-1.45,4.7c-.16.65-.32,1.26-.48,1.85a1.43,1.43,0,0,0,0,.92.6.6,0,0,0,.39.3,1.24,1.24,0,0,0,.38,0,5.76,5.76,0,0,0,1.4-.13Z" transform="translate(-52.59 -167.376)" fill="#263238"/>
    <path id="Path_100163" data-name="Path 100163" d="M124.51,195.51c.86-.63-2.37,1.58-4.16,1.67a2.44,2.44,0,0,0,2.94.68A1.841,1.841,0,0,0,124.51,195.51Z" transform="translate(-52.59 -167.376)" fill="#fff"/>
    <path id="Path_100164" data-name="Path 100164" d="M121.88,205.68a15.94,15.94,0,0,0,8.27-3.26s-1.68,4.75-8.06,4.81Z" transform="translate(-52.59 -167.376)" fill="#a8674a"/>
    <path id="Path_100165" data-name="Path 100165" d="M125.08,175.1s-2.1,4.61-.94,7.94l-10,3.13S111.14,173.39,125.08,175.1Z" transform="translate(-52.59 -167.376)" fill="#263238"/>
    <path id="Path_100166" data-name="Path 100166" d="M138.2,358,74.75,316.11c13.42-14.36,28-27,44.37-37.2l38.5-2.57C161.68,307.39,138.38,333.07,138.2,358Z" transform="translate(-52.59 -167.376)" fill="#263238"/>
    <path id="Path_100167" data-name="Path 100167" d="M118.68,431.76l-.09,2.76s-13.56,2.66-10.32,3.74c2.89,1,20.8.79,25.18.67h1v-6.57Z" transform="translate(-52.59 -167.375)" fill="#ff385c"/>
    <g id="Group_91728" data-name="Group 91728" transform="translate(76.1 266.837)" opacity="0.5">
      <path id="Path_100168" data-name="Path 100168" d="M128.69,438.61a5.44,5.44,0,0,1,2.12-3.32,5.29,5.29,0,0,1,3.74-1.05l-.13,4.43Z" transform="translate(-128.69 -434.212)" fill="#fff"/>
    </g>
    <g id="Group_91729" data-name="Group 91729" transform="translate(55.164 268.675)" opacity="0.5">
      <path id="Path_100169" data-name="Path 100169" d="M112,436.05s-4.76,1.23-4.2,2,18.67,1.29,26.67.82v-.36l-21.12-.41S112.88,436.12,112,436.05Z" transform="translate(-107.754 -436.05)" fill="#fff"/>
    </g>
    <path id="Path_100170" data-name="Path 100170" d="M134.67,438.54h-3.94c-2.44,0-5.81,0-9.52-.1s-7.08-.26-9.51-.41l-2.88-.2-.78-.07h.74l2.89.14c2.43.12,5.79.26,9.5.36s7.08.14,9.52.15h3.66a1.581,1.581,0,0,1,.32.13Z" transform="translate(-52.59 -167.375)" fill="#263238"/>
    <path id="Path_100171" data-name="Path 100171" d="M113.3,438.38a7.129,7.129,0,0,0-.5-1.39,7,7,0,0,0-1-1.13,2.15,2.15,0,0,1,1.12,1,2.1,2.1,0,0,1,.38,1.52Z" transform="translate(-52.59 -167.375)" fill="#263238"/>
    <path id="Path_100172" data-name="Path 100172" d="M118,436.14a3.263,3.263,0,0,1-.48-.62,1.84,1.84,0,0,1-.32-.72,1.928,1.928,0,0,1,.48.62C117.9,435.79,118.09,436.11,118,436.14Z" transform="translate(-52.59 -167.375)" fill="#263238"/>
    <path id="Path_100173" data-name="Path 100173" d="M119.34,435.49a2.231,2.231,0,0,1-.54-.38c-.26-.25-.46-.49-.42-.53s.28.13.55.39S119.38,435.46,119.34,435.49Z" transform="translate(-52.59 -167.375)" fill="#263238"/>
    <path id="Path_100174" data-name="Path 100174" d="M120.2,434a1.89,1.89,0,0,1-.83.08c-.46,0-.83-.05-.83-.11a1.89,1.89,0,0,1,.83-.08A2,2,0,0,1,120.2,434Z" transform="translate(-52.59 -167.375)" fill="#263238"/>
    <path id="Path_100175" data-name="Path 100175" d="M120.51,433a1.67,1.67,0,0,1-.93.25,1.61,1.61,0,0,1-1-.16,5.934,5.934,0,0,1,.94,0,5.7,5.7,0,0,1,.99-.09Z" transform="translate(-52.59 -167.375)" fill="#263238"/>
    <path id="Path_100176" data-name="Path 100176" d="M117.54,434.74a3,3,0,0,1-1,0,7,7,0,0,1-1.07-.27,3.058,3.058,0,0,1-.62-.28.5.5,0,0,1-.24-.32.39.39,0,0,1,.17-.4,1.85,1.85,0,0,1,2.29.61,1.68,1.68,0,0,1,.31.69.52.52,0,0,1,0,.27,2.76,2.76,0,0,0-.44-.88,1.829,1.829,0,0,0-.85-.59,1.57,1.57,0,0,0-1.22,0c-.16.12-.11.31.07.42a3.679,3.679,0,0,0,.57.26,7.127,7.127,0,0,0,1,.3C117.16,434.7,117.54,434.71,117.54,434.74Z" transform="translate(-52.59 -167.375)" fill="#263238"/>
    <path id="Path_100177" data-name="Path 100177" d="M117.28,434.78a1,1,0,0,1-.1-.71,1.6,1.6,0,0,1,.3-.73,1,1,0,0,1,.86-.5.41.41,0,0,1,.3.48,1.15,1.15,0,0,1-.18.45,3.17,3.17,0,0,1-.5.6,1.42,1.42,0,0,1-.6.4s.21-.18.5-.49a3.329,3.329,0,0,0,.44-.6c.15-.21.26-.6,0-.65s-.52.21-.68.41a1.71,1.71,0,0,0-.31.66A2.94,2.94,0,0,0,117.28,434.78Z" transform="translate(-52.59 -167.375)" fill="#263238"/>
    <path id="Path_100178" data-name="Path 100178" d="M134.46,434.19a7.2,7.2,0,0,0-1.17,0,5,5,0,0,0-4.24,3.19c-.26.68-.3,1.13-.33,1.13s0-.12,0-.32a4.5,4.5,0,0,1,.2-.85,4.83,4.83,0,0,1,4.36-3.29,5,5,0,0,1,.87.05A1,1,0,0,1,134.46,434.19Z" transform="translate(-52.59 -167.375)" fill="#263238"/>
    <path id="Path_100179" data-name="Path 100179" d="M126.74,437a8.909,8.909,0,0,1-2.32.16,9,9,0,0,1-2.32-.25,19.386,19.386,0,0,1,2.32.06C125.74,437.03,126.73,437,126.74,437Z" transform="translate(-52.59 -167.375)" fill="#263238"/>
    <path id="Path_100180" data-name="Path 100180" d="M129.84,437.09s-.09.22-.2.45-.17.44-.23.44-.07-.25.06-.52S129.81,437.05,129.84,437.09Z" transform="translate(-52.59 -167.375)" fill="#263238"/>
    <path id="Path_100181" data-name="Path 100181" d="M131.06,435.66a1.1,1.1,0,0,1-.24.37c-.17.17-.34.26-.37.22s.07-.2.23-.36S131,435.63,131.06,435.66Z" transform="translate(-52.59 -167.375)" fill="#263238"/>
    <path id="Path_100182" data-name="Path 100182" d="M132.75,435c0,.06-.22,0-.46.13s-.4.19-.45.15.1-.25.39-.34A.631.631,0,0,1,132.75,435Z" transform="translate(-52.59 -167.375)" fill="#263238"/>
    <path id="Path_100183" data-name="Path 100183" d="M134,434.76c0,.05-.07.13-.21.18s-.25.05-.27,0,.08-.13.21-.18S133.93,434.71,134,434.76Z" transform="translate(-52.59 -167.375)" fill="#263238"/>
    <path id="Path_100184" data-name="Path 100184" d="M147.64,355.29l2.76.09s2.65,13.56,3.73,10.32c1-2.89.8-20.8.68-25.18v-1l-6.56-.05Z" transform="translate(-52.59 -167.375)" fill="#ff385c"/>
    <g id="Group_91730" data-name="Group 91730" transform="translate(97.538 172.045)" opacity="0.5">
      <path id="Path_100185" data-name="Path 100185" d="M154.49,345.28a5.49,5.49,0,0,1-3.33-2.12,5.33,5.33,0,0,1-1-3.74l4.43.13Z" transform="translate(-150.128 -339.42)" fill="#fff"/>
    </g>
    <g id="Group_91731" data-name="Group 91731" transform="translate(99.34 172.155)" opacity="0.5">
      <path id="Path_100186" data-name="Path 100186" d="M151.93,362s1.23,4.76,2,4.19,1.3-18.66.82-26.66h-.35l-.4,21.14S152,361.09,151.93,362Z" transform="translate(-151.93 -339.53)" fill="#fff"/>
    </g>
    <path id="Path_100187" data-name="Path 100187" d="M154.42,339.3v3.94c0,2.44,0,5.81-.1,9.52s-.27,7.08-.42,9.51c-.08,1.14-.14,2.1-.2,2.88a4.526,4.526,0,0,1-.06.78,1.141,1.141,0,0,1,0,.27.921.921,0,0,1,0-.27c0-.24,0-.49,0-.79,0-.78.08-1.74.14-2.88.11-2.43.26-5.79.36-9.5s.14-7.08.15-9.52v-3.66a.9.9,0,0,1,.13-.28Z" transform="translate(-52.59 -167.375)" fill="#263238"/>
    <path id="Path_100188" data-name="Path 100188" d="M154.26,360.67a6.893,6.893,0,0,0-1.39.5,6.459,6.459,0,0,0-1.13.95,2.474,2.474,0,0,1,2.52-1.45Z" transform="translate(-52.59 -167.375)" fill="#263238"/>
    <path id="Path_100189" data-name="Path 100189" d="M152,355.93a1.91,1.91,0,0,1-.63.48,1.78,1.78,0,0,1-.72.32,2.039,2.039,0,0,1,.62-.49C151.64,356.01,152,355.88,152,355.93Z" transform="translate(-52.59 -167.375)" fill="#263238"/>
    <path id="Path_100190" data-name="Path 100190" d="M151.37,354.62a2.073,2.073,0,0,1-.39.55c-.26.26-.49.46-.52.42s.13-.28.38-.55S151.33,354.59,151.37,354.62Z" transform="translate(-52.59 -167.375)" fill="#263238"/>
    <path id="Path_100191" data-name="Path 100191" d="M149.9,353.77a1.89,1.89,0,0,1,.08.83,2,2,0,0,1-.11.83,1.89,1.89,0,0,1-.08-.83,2,2,0,0,1,.11-.83Z" transform="translate(-52.59 -167.375)" fill="#263238"/>
    <path id="Path_100192" data-name="Path 100192" d="M148.85,353.46a1.61,1.61,0,0,1,.24.93,1.57,1.57,0,0,1-.15.95,6,6,0,0,1,0-.94,5.7,5.7,0,0,1-.09-.94Z" transform="translate(-52.59 -167.375)" fill="#263238"/>
    <path id="Path_100193" data-name="Path 100193" d="M150.62,356.43a2.83,2.83,0,0,1,0,1,5.158,5.158,0,0,1-.27,1.08,2.54,2.54,0,0,1-.27.62.57.57,0,0,1-.32.24.4.4,0,0,1-.41-.17,1.88,1.88,0,0,1,.61-2.29,1.791,1.791,0,0,1,.69-.31.549.549,0,0,1,.28,0,2.51,2.51,0,0,0-.88.44,1.76,1.76,0,0,0-.59.85,1.57,1.57,0,0,0,.05,1.22c.11.16.3.1.42-.07a3.679,3.679,0,0,0,.26-.57,7.123,7.123,0,0,0,.3-1A8.829,8.829,0,0,1,150.62,356.43Z" transform="translate(-52.59 -167.375)" fill="#263238"/>
    <path id="Path_100194" data-name="Path 100194" d="M150.66,356.69a1,1,0,0,1-.71.1,1.68,1.68,0,0,1-.74-.3,1,1,0,0,1-.49-.86.4.4,0,0,1,.48-.3,1.15,1.15,0,0,1,.45.18,3.171,3.171,0,0,1,.6.5,1.56,1.56,0,0,1,.4.6,6.219,6.219,0,0,0-.5-.5,3.361,3.361,0,0,0-.59-.45c-.22-.14-.6-.25-.65,0s.21.52.41.68a1.739,1.739,0,0,0,.65.31A3,3,0,0,0,150.66,356.69Z" transform="translate(-52.59 -167.375)" fill="#263238"/>
    <path id="Path_100195" data-name="Path 100195" d="M150.07,339.51a10.628,10.628,0,0,0,0,1.17,5.12,5.12,0,0,0,1,2.58,5,5,0,0,0,2.21,1.66,11.182,11.182,0,0,0,1.13.33.81.81,0,0,1-.32,0,3.709,3.709,0,0,1-.85-.19,4.83,4.83,0,0,1-3.29-4.36,4.169,4.169,0,0,1,.05-.87C150,339.61,150.06,339.5,150.07,339.51Z" transform="translate(-52.59 -167.375)" fill="#263238"/>
    <path id="Path_100196" data-name="Path 100196" d="M152.88,347.23a8.64,8.64,0,0,1,.17,2.32,9,9,0,0,1-.25,2.32,17.114,17.114,0,0,1,.06-2.32C152.92,348.23,152.83,347.24,152.88,347.23Z" transform="translate(-52.59 -167.375)" fill="#263238"/>
    <path id="Path_100197" data-name="Path 100197" d="M153,344.12s.21.1.45.21.44.17.44.23-.26.07-.53-.06S152.93,344.16,153,344.12Z" transform="translate(-52.59 -167.375)" fill="#263238"/>
    <path id="Path_100198" data-name="Path 100198" d="M151.54,342.91a1.014,1.014,0,0,1,.36.24c.16.17.27.34.23.37s-.2-.07-.37-.23S151.5,343,151.54,342.91Z" transform="translate(-52.59 -167.375)" fill="#263238"/>
    <path id="Path_100199" data-name="Path 100199" d="M150.92,341.22c.06,0,.05.22.12.46s.2.4.16.44-.25-.09-.34-.39S150.87,341.2,150.92,341.22Z" transform="translate(-52.59 -167.375)" fill="#263238"/>
    <path id="Path_100200" data-name="Path 100200" d="M150.64,340c.05,0,.13.07.18.21a.444.444,0,0,1,0,.27c0,.02-.13-.08-.17-.21S150.59,340,150.64,340Z" transform="translate(-52.59 -167.375)" fill="#263238"/>
    <path id="Path_100201" data-name="Path 100201" d="M67.41,222.18c.43-1,25.85,21.58,31,19.81,2.41-.83,9.13-7.75,15.61-14.91v-.16a60.809,60.809,0,0,1,13.78-16,10.81,10.81,0,0,1,16.76,4.24c5,11.93,4.37,26.83,9.79,49.26l.38,1.37-.08-.14c.82,3.3,1.78,6.75,2.89,10.38l-2.81-10.24a23.389,23.389,0,0,0,2.34,3.35,10,10,0,0,1,2.38,3.66c.36,1.43-.39,3.26-1.85,3.42v.12l-37.92,2.54V279a3.45,3.45,0,0,1-3.45-2,6.12,6.12,0,0,1-.26-4.16,28.432,28.432,0,0,1,1.51-4c.18-.45.35-.91.5-1.37l-1.11-11.27c-7.9,5.72-15.62,10.27-19.49,9.6-9.75-1.69-40.28-32.55-40.28-32.55S67,223.13,67.41,222.18Z" transform="translate(-52.59 -167.376)" fill="#455a64"/>
    <path id="Path_100202" data-name="Path 100202" d="M142.33,223.64a8.941,8.941,0,0,1-.57,1.58c-.39,1-1,2.44-1.88,4.17s-2,3.76-3.31,5.94a81.548,81.548,0,0,1-4.81,6.79,79.265,79.265,0,0,1-5.57,6.18c-1.83,1.8-3.55,3.33-5.06,4.54s-2.75,2.16-3.65,2.76a9.7,9.7,0,0,1-1.42.9,11,11,0,0,1,1.3-1.07c.86-.65,2.07-1.62,3.54-2.87s3.15-2.8,4.95-4.59a75.374,75.374,0,0,0,5.5-6.18,80.978,80.978,0,0,0,4.81-6.72c1.38-2.13,2.51-4.13,3.39-5.84s1.58-3.11,2-4.09a10.778,10.778,0,0,1,.78-1.5Z" transform="translate(-52.59 -167.376)" fill="#263238"/>
    <path id="Path_100203" data-name="Path 100203" d="M98.18,250.32a16.37,16.37,0,0,1-.63-4,16.14,16.14,0,0,1-.12-4.06,16.08,16.08,0,0,1,.64,4,15.841,15.841,0,0,1,.11,4.06Z" transform="translate(-52.59 -167.376)" fill="#263238"/>
    <path id="Path_100204" data-name="Path 100204" d="M100.21,249.89a26.33,26.33,0,0,1-1.83-7.18A26.33,26.33,0,0,1,100.21,249.89Z" transform="translate(-52.59 -167.376)" fill="#263238"/>
  </g>
  <g id="freepik--speech-bubble--inject-357" transform="translate(16.152 68.369)">
    <path id="Path_100205" data-name="Path 100205" d="M79.4,156.39a6,6,0,0,0-11.74.3,6,6,0,0,0-11.74-.3,8.09,8.09,0,0,0,1.42,5.81,23.79,23.79,0,0,0,4.18,4.45c2.13,1.91,4.09,3.71,6.22,5.62,2.13-1.91,3.94-3.71,6.07-5.62A23.79,23.79,0,0,0,78,162.2,8,8,0,0,0,79.4,156.39Z" transform="translate(-40.312 -132.437)" fill="#ff385c"/>
    <path id="Path_100206" data-name="Path 100206" d="M90.39,171.93s.09.25.23.72l.63,2.1c.54,1.87,1.32,4.58,2.33,8.05l.06.21-.21-.06-10-2.45h.15a27,27,0,1,1-32.5-43.115A26.78,26.78,0,0,1,67,132.44a28.7,28.7,0,0,1,7.77,1.25,29.13,29.13,0,0,1,6.69,3.21,27.81,27.81,0,0,1,8.92,9.75,27.41,27.41,0,0,1,3.08,10.48,26.42,26.42,0,0,1-.58,8.24,25.391,25.391,0,0,1-1.69,4.94c-.25.55-.45.95-.6,1.22s-.23.4-.23.4a.914.914,0,0,1,.18-.42,10.7,10.7,0,0,0,.56-1.24,27.5,27.5,0,0,0,1.58-4.94A26.727,26.727,0,0,0,67,132.92a28.38,28.38,0,0,0-8,1.13,27.731,27.731,0,0,0-7.59,3.72,26.58,26.58,0,1,0,32,42.43h.14l10,2.54-.15.16c-1-3.5-1.71-6.24-2.22-8.12l-.56-2.1A4.674,4.674,0,0,1,90.39,171.93Z" transform="translate(-40.312 -132.437)" fill="#263238"/>
  </g>
</svg>
