<svg xmlns="http://www.w3.org/2000/svg" width="743.507" height="661.726" viewBox="0 0 743.507 661.726">
  <g id="Illustration" transform="translate(-6)">
    <g id="Shape" transform="translate(6)">
      <path id="Oval" d="M703.956,200.8C703.956,89.9,613.706,0,502.38,0S300.8,89.9,300.8,200.8s90.248,200.8,201.576,200.8S703.956,311.705,703.956,200.8Zm-327.8,0c0-69.443,56.511-125.738,126.221-125.738S628.6,131.362,628.6,200.8s-56.51,125.737-126.22,125.737S376.159,270.246,376.159,200.8Z" transform="translate(39.552)" fill="#7367f0" fill-rule="evenodd" opacity="0.053"/>
      <g id="Oval_2" transform="translate(0 261.484)" opacity="0.141">
        <path id="Path_99476" data-name="Path 99476" d="M120.289,283.414a57.145,57.145,0,1,0-57.144,56.926A57.035,57.035,0,0,0,120.289,283.414Zm-76.611,0a19.467,19.467,0,1,1,19.467,19.392A19.43,19.43,0,0,1,43.678,283.414Z" transform="translate(-6 -226.488)" fill="#8bf78f" fill-rule="evenodd"/>
      </g>
      <ellipse id="Oval_3" cx="113.033" cy="112.6" rx="113.033" ry="112.6" transform="translate(120.569 387.846)" fill="rgba(115,103,240,0.06)"/>
      <ellipse id="Oval_4" cx="40.19" cy="40.036" rx="40.19" ry="40.036" transform="translate(155.734 66.309)" fill="#cef5ff" opacity="0.141"/>
      <g id="Oval_5" transform="translate(629.219 460.41)">
        <ellipse id="Ellipse_3601" data-name="Ellipse 3601" cx="40.19" cy="40.036" rx="40.19" ry="40.036" fill="rgba(115,103,240,0.14)"/>
      </g>
    </g>
    <g id="File_Organizer" data-name="File Organizer" transform="translate(163.014 137.387)">
      <g id="Phone3" transform="translate(76.82)">
        <path id="Rectangle" d="M208.539,148.021A29.021,29.021,0,0,1,237.56,119H433.6a29.021,29.021,0,0,1,29.021,29.021v465.5A29.022,29.022,0,0,1,433.6,642.541H237.56a29.021,29.021,0,0,1-29.021-29.021Z" transform="translate(-208.539 -119)" fill="#c4e3e7" fill-rule="evenodd"/>
        <g id="Group_48" data-name="Group 48" transform="translate(9.165 10.55)">
          <path id="Rectangle_2" d="M216.477,149.522a21.384,21.384,0,0,1,21.384-21.384h35.662a1.735,1.735,0,0,1,1.734,1.684h0a12.431,12.431,0,0,0,12.426,12.069H380.2a12.432,12.432,0,0,0,12.426-12.069h0a1.734,1.734,0,0,1,1.733-1.684h35.663A21.385,21.385,0,0,1,451.4,149.522V606.069a21.385,21.385,0,0,1-21.384,21.384H237.861a21.384,21.384,0,0,1-21.384-21.384Z" transform="translate(-216.477 -128.138)" fill="#161d31" fill-rule="evenodd"/>
          <g id="Group_91427" data-name="Group 91427" transform="translate(28.617 85.724)">
            <ellipse id="Oval_6" cx="20.15" cy="20.005" rx="20.15" ry="20.005" transform="translate(40.299 198.174)" fill="#7367f0" opacity="0.099"/>
            <path id="Oval_7" d="M411.088,374.04c53.729,0,97.285,43.243,97.285,96.587s-43.556,96.586-97.285,96.586S313.8,523.97,313.8,470.627,357.359,374.04,411.088,374.04Zm0,42.2a54.39,54.39,0,1,0,54.782,54.389A54.587,54.587,0,0,0,411.088,416.237Z" transform="translate(-230.056 -175.866)" fill="#c8f5d0" fill-rule="evenodd" opacity="0.141"/>
            <path id="Rectangle_4" d="M241.264,208.954a6.563,6.563,0,0,1,6.563-6.565H414.158a6.563,6.563,0,0,1,6.563,6.565h0a6.563,6.563,0,0,1-6.563,6.563H247.827a6.563,6.563,0,0,1-6.563-6.563Z" transform="translate(-241.264 -202.389)" fill="rgba(104,222,158,0.64)" fill-rule="evenodd"/>
          </g>
        </g>
        <path id="Path" d="M336.991,126.939a3.752,3.752,0,1,1,.143,7.5l-.143,0h-44.5a3.752,3.752,0,1,1-.143-7.5l.143,0Z" transform="translate(-196.175 -117.773)" fill="#56cdd9"/>
        <path id="Path_2" d="M344.876,126.4a3.907,3.907,0,0,1,.144,7.813l-.144,0h-.207a3.907,3.907,0,0,1-.144-7.811l.144,0Z" transform="translate(-188.113 -117.857)" fill="#56cdd9"/>
      </g>
      <g id="Icon54" transform="translate(93.192 177.175)">
        <g id="Group_37" data-name="Group 37">
          <path id="Rectangle_5" d="M222.72,277.081a4.618,4.618,0,0,1,4.618-4.618H236.1a4.618,4.618,0,0,1,4.618,4.618v4.044a1.408,1.408,0,0,0,1.409,1.407h57.736a4.618,4.618,0,0,1,4.618,4.618v49.3a4.618,4.618,0,0,1-4.618,4.618H227.338a4.618,4.618,0,0,1-4.618-4.618Z" transform="translate(-222.72 -272.463)" fill="#fff" fill-rule="evenodd"/>
          <path id="Rectangle_6" d="M240.8,277.775a1.408,1.408,0,0,1,1.389-1.185H304.9a1.407,1.407,0,0,1,1.39,1.631l-9.421,58.639a1.408,1.408,0,0,1-1.39,1.185H232.767a1.408,1.408,0,0,1-1.39-1.63Z" transform="translate(-221.385 -271.825)" fill="#fff" fill-rule="evenodd"/>
          <path id="Rectangle_7" d="M309.6,290.108a4.618,4.618,0,0,1,4.533,5.506l-7.058,36.037a9.238,9.238,0,0,1-9.064,7.462H228.2a4.618,4.618,0,0,1-4.531-5.506l7.058-36.038a9.235,9.235,0,0,1,9.063-7.46Z" transform="translate(-222.587 -269.737)" fill="#ffcc7b" fill-rule="evenodd"/>
        </g>
      </g>
      <g id="Group_28" data-name="Group 28" transform="translate(0 112.528)">
        <path id="Rectangle_8" d="M142,223.4a6.927,6.927,0,0,1,6.927-6.927H187.8l14.653,15v49.337a6.927,6.927,0,0,1-6.927,6.927h-46.6A6.927,6.927,0,0,1,142,280.808Z" transform="translate(-142 -216.468)" fill="#b7b1fb" fill-rule="evenodd"/>
        <g id="Icon" transform="translate(12.303 22.776)">
          <path id="Mask" d="M179.392,260.633V240.952a3.624,3.624,0,0,0-3.69-3.69h-6.151a1.23,1.23,0,1,0,0,2.46H175.7a1.162,1.162,0,0,1,1.23,1.23v19.681a1.162,1.162,0,0,1-1.23,1.23h-6.151a1.23,1.23,0,1,0,0,2.46H175.7A3.624,3.624,0,0,0,179.392,260.633Zm-7.5-10.333a1.344,1.344,0,0,1,0,.985c0,.122-.122.246-.246.368l-4.921,4.921a1.191,1.191,0,0,1-1.723,0,1.188,1.188,0,0,1,0-1.723l2.83-2.829H156.018a1.23,1.23,0,1,1,0-2.46h11.811l-2.83-2.83a1.218,1.218,0,0,1,1.723-1.721l4.921,4.921a.658.658,0,0,1,.124.184A.618.618,0,0,0,171.888,250.3Z" transform="translate(-152.327 -236.031)" fill-rule="evenodd"/>
          <g id="Group_91428" data-name="Group 91428">
            <g id="Icon_Color" data-name="Icon Color">
              <rect id="ð_Icon_Color" data-name="ð¨ Icon Color" width="29.526" height="29.521" fill="#fff"/>
            </g>
          </g>
        </g>
        <path id="Path_3" d="M196.319,231.471H185.13a3.463,3.463,0,0,1-3.464-3.464V216.468Z" transform="translate(-135.871 -216.468)" fill="#7367f0" opacity="0.34"/>
      </g>
      <g id="Group" transform="translate(26.446 297.574)">
        <path id="Rectangle_9" d="M164.907,383.675a6.927,6.927,0,0,1,6.927-6.927h71.782a6.927,6.927,0,0,1,6.927,6.927v57.413a6.927,6.927,0,0,1-6.927,6.927H171.834a6.927,6.927,0,0,1-6.927-6.927Z" transform="translate(-164.907 -376.748)" fill="#6fd9e6" fill-rule="evenodd"/>
        <g id="Icon_2" transform="translate(24.606 18.45)">
          <path id="Mask_3" d="M213.107,406.888h-1.435v-4.305a8.612,8.612,0,0,0-17.224,0v4.305h-1.435a4.228,4.228,0,0,0-4.306,4.305v10.045a4.228,4.228,0,0,0,4.306,4.3h20.094a4.228,4.228,0,0,0,4.305-4.3V411.193A4.228,4.228,0,0,0,213.107,406.888Zm-15.789-4.305a5.741,5.741,0,0,1,11.483,0v4.305H197.318Zm15.789,20.09a1.355,1.355,0,0,0,1.435-1.434V411.193a1.356,1.356,0,0,0-1.435-1.435H193.012a1.357,1.357,0,0,0-1.436,1.435v10.045a1.356,1.356,0,0,0,1.436,1.434Z" transform="translate(-185.836 -392.537)" fill-rule="evenodd"/>
          <g id="Group_91429" data-name="Group 91429">
            <g id="Icon_Color_2" data-name="Icon Color_2">
              <rect id="ð_Icon_Color_2" data-name="ð¨ Icon Color_2" width="34.448" height="34.441" fill="#fff"/>
            </g>
          </g>
        </g>
      </g>
      <g id="Group_34" data-name="Group 34" transform="translate(71.783 70.017)">
        <path id="Rectangle_10" d="M229.265,186.573a6.927,6.927,0,0,1,6.927-6.927h71.782a6.927,6.927,0,0,1,6.927,6.927v57.414a6.927,6.927,0,0,1-6.927,6.927H236.192a6.927,6.927,0,0,1-6.927-6.927Z" transform="translate(-200.299 -179.646)" fill="#baf3c4"/>
        <g id="Group_91430" data-name="Group 91430" transform="translate(0 15.004)">
          <ellipse id="Oval_8" cx="11.334" cy="11.253" rx="11.334" ry="11.253" transform="translate(55.412)" fill="#fff"/>
          <ellipse id="Oval_9" cx="40.929" cy="40.635" rx="40.929" ry="40.635" transform="translate(0 28.757)" fill="#28c76f"/>
          <ellipse id="Oval_10" cx="48.485" cy="47.512" rx="48.485" ry="47.512" transform="translate(66.747 12.503)" fill="#69e09e"/>
        </g>
      </g>
      <g id="Group_23" data-name="Group 23" transform="translate(214.136 41.26)">
        <g id="Rectangle_12">
          <path id="Path_99477" data-name="Path 99477" d="M327.477,166.329a11.545,11.545,0,0,1,11.545-11.591H466.3a11.545,11.545,0,0,1,11.545,11.5l.664,166.957a11.546,11.546,0,0,1-11.545,11.591H339.686a11.546,11.546,0,0,1-11.545-11.5Z" transform="translate(-327.477 -154.738)" fill="#313a53" fill-rule="evenodd"/>
        </g>
        <path id="Rectangle_13" d="M368.889,260.288a3.751,3.751,0,0,1,3.751-3.751h47.909a3.751,3.751,0,0,1,3.751,3.751h0a3.75,3.75,0,0,1-3.751,3.751H372.64a3.75,3.75,0,0,1-3.751-3.751Z" transform="translate(-321.078 -139.009)" fill="#7367f0" opacity="0.34"/>
        <path id="Rectangle_14" d="M357.98,277.616a3.752,3.752,0,0,1,3.751-3.751h73.1a3.751,3.751,0,0,1,3.751,3.751h0a3.751,3.751,0,0,1-3.751,3.751h-73.1a3.752,3.752,0,0,1-3.751-3.751Z" transform="translate(-322.764 -136.331)" fill="#7367f0" opacity="0.34"/>
        <g id="Icon8" transform="translate(46.551 31.257)">
          <g id="Oval_11">
            <ellipse id="Ellipse_3602" data-name="Ellipse 3602" cx="29.06" cy="29.492" rx="29.06" ry="29.492" fill="#fff"/>
          </g>
          <g id="Group_70" data-name="Group 70" transform="translate(17.631 13.754)">
            <path id="Combined_Shape" data-name="Combined Shape" d="M395.046,208.485a7.38,7.38,0,1,0-7.434-7.381A7.407,7.407,0,0,0,395.046,208.485Zm-.937,2.09a11.039,11.039,0,0,0-11.039,11.038,1.262,1.262,0,0,0,1.262,1.262h21.43a1.262,1.262,0,0,0,1.262-1.262,11.039,11.039,0,0,0-11.039-11.038Z" transform="translate(-383.069 -193.725)" fill="#7367f0" fill-rule="evenodd"/>
          </g>
        </g>
      </g>
      <g id="Wom3.5" transform="translate(289.671 87.522)">
        <g id="RArm" transform="translate(126.249 72.503)">
          <path id="Path_4" d="M519.319,345.209S505.236,359.04,506.1,360.392s7.96-1.8,7.96-1.8-8.854,14.528-7.032,15.645,11.137-1.144,13.993-4.139,7.265-18.107,7.265-18.107l21.42-39.825-15.534-5.337Z" transform="translate(-501.668 -250.002)" fill="#fff" fill-rule="evenodd"/>
          <path id="Path_5" d="M505.526,279.2c5.915,9.123,25.823,35.124,25.823,35.124l-1.451,5.187,18.3,12.453s5.2-14.256,5.649-16.261c1.487-6.615-28.57-48.832-35.3-54.933C507.945,251.159,496.488,265.252,505.526,279.2Z" transform="translate(-502.256 -257.607)" fill="#fd8715" fill-rule="evenodd"/>
          <path id="Path_6" d="M532.324,313.643c.342-.66-4.729-7-4.729-7l-.859,3.08S531.983,314.3,532.324,313.643Z" transform="translate(-498.473 -250.03)" fill="rgba(0,0,0,0.16)" fill-rule="evenodd"/>
          <path id="Path_70" data-name="Path 70" d="M526.353,309.714l19.437,14.737-4.332,9.531-16.995-18.768Z" transform="translate(-498.824 -249.556)" fill="#ffedc2" fill-rule="evenodd"/>
        </g>
        <g id="RLeg" transform="translate(92.749 153.177)">
          <path id="Path_7" d="M515.616,542.024l-1.079,18.262,13.839.358-2.6-18.62Z" transform="translate(-466.858 -294.336)" fill="#fff" fill-rule="evenodd"/>
          <path id="Path_8" d="M529.517,548.256s-.388,11,1.906,14.838a19.2,19.2,0,0,1,3.11,9.113,35.64,35.64,0,0,1-.126,4.692H511.5s-.574-11.572.943-13.754,2.512-2.219,2.512-4.147.341-10.67.341-10.67Z" transform="translate(-467.343 -293.373)" fill="#391b0b" fill-rule="evenodd"/>
          <path id="Path_9" d="M473.239,331.36l35.9-3.875.528.486c2.558,2.421,13.679,13.661,16.873,29.027,6.032,29.007-2.041,82.582-1.862,94.33s5.762,18.837,8.086,35.447,2.542,90.845,2.542,90.845c-6.161,3.625-11.581,3.884-18.927-.217Z" transform="translate(-473.239 -327.485)" fill="#4e3319" fill-rule="evenodd"/>
          <path id="Path_10" d="M505.308,514.022,473.239,331.129l19.962-2.154C494.09,392.511,506.5,478.395,505.308,514.022Z" transform="translate(-473.239 -327.255)" fill="rgba(255,255,255,0.19)" fill-rule="evenodd"/>
        </g>
        <g id="LLeg" transform="translate(62.949 158.21)">
          <path id="Path_11" d="M481.847,540.361l-11.8.19s.776,12.162-3.763,16.281l-.248.216c-5.478,4.559,15.659,2.914,15.659,2.914Z" transform="translate(-444.692 -299.625)" fill="#fff" fill-rule="evenodd"/>
          <path id="Path_12" d="M485.207,548.573l-.339,28.266-8.4.006-.073-6.965s-2.651,6.494-6.7,6.869-22.168.145-22.168.145-1.5-6.521,7.508-9.482c7.5-2.461,15.785-18.839,15.785-18.839Z" transform="translate(-447.427 -298.356)" fill="#391b0b" fill-rule="evenodd"/>
          <path id="Path_13" d="M457.814,333.2l40.314-1.357.3.553c1.956,3.684,12.674,25.252,9.365,49.765-4.646,34.409-16.455,74.747-17.034,80.909-1.031,10.986,1.031,18.941,1.876,30.289s-3.223,82.718-3.223,82.718c-5.983,3.572-13.1,4.273-22.152.107,0,0-8.171-96.94-8.231-112.282S457.814,333.2,457.814,333.2Z" transform="translate(-445.822 -331.844)" fill="#604021" fill-rule="evenodd"/>
          <path id="Path_14" d="M466.11,370.274l-.268,2.549c-2.687,26.883-2.667,83.974-1.626,92.778l.142,1.135q1.732,14.9.112,75.67l-1.4-17.482q-3.993-50.457-4.035-61.165l-.048-7.388c-.232-29.872-1.17-123.316-1.17-123.316l8.5-.285Q467.68,354.9,466.11,370.274Z" transform="translate(-445.822 -331.701)" fill="rgba(255,255,255,0.19)" fill-rule="evenodd"/>
        </g>
        <g id="Head" transform="translate(86.877 4.211)">
          <path id="Path_15" d="M471.59,223.96c-4.96.539-4.609,9.2,1.429,9.649,1.234,8.346,5.636,12.322,11,12.783l-.3,12.625L507.46,259a36.718,36.718,0,0,1-6.35-21.128c.332-12.21-.224-23.679-.224-23.679l-30.744.547Z" transform="translate(-468.153 -196.023)" fill="#fff" fill-rule="evenodd"/>
          <path id="Path_16" d="M470.454,226.8c5.777-2.269,10.045,7.5,14.466,14.286s15.873,5.634,17.452,0c5.976-12.342,11.126-29.119,4.153-30.5C505.542,192.757,458.521,196.968,470.454,226.8Z" transform="translate(-468.097 -198.218)" fill="#8b5030" fill-rule="evenodd"/>
          <path id="Combined_Shape_2" data-name="Combined Shape_2" d="M500.737,203.079H490.379l-.085.1c-9.062,10.042-11.078,24.844-6.816,38.183a9.52,9.52,0,0,0,.954,1.029c-4.716-13.444-2.891-28.568,6.206-38.73h10.785C501.2,203.457,500.974,203.265,500.737,203.079Z" transform="translate(-466.116 -197.741)" fill="rgba(0,0,0,0.2)" fill-rule="evenodd"/>
          <ellipse id="Oval_12" cx="5.667" cy="5.626" rx="5.667" ry="5.626" transform="translate(22.669)" fill="#fb9934"/>
        </g>
        <g id="Body" transform="translate(69.434 63.883)">
          <path id="Path_17" d="M467.7,255.831c-5.3,7.724-14.121,33.937-14.622,39.833-.563,6.8,6.782,17.639,6.9,27.486s-5.478,39.5-3.8,42.271,49.409,15.033,52.523,14.967,22.685-16.758,20.228-22.526-13.938-20.1-12.77-27.961,7.861-36.866,11.191-46.738,2.211-20.239-3.978-24.486c-3.064-2.1-11.237-8.075-25.792-8.047S468.108,255.233,467.7,255.831Z" transform="translate(-453.044 -250.066)" fill="#fd8715" fill-rule="evenodd"/>
          <path id="Path_68" data-name="Path 68" d="M479.979,250.141s-.613,3.322,2.069,3.322,20.668.588,23.1-.463,1.705-2.859,1.705-2.859Z" transform="translate(-448.892 -250.141)" fill="#fff6e1" fill-rule="evenodd"/>
          <path id="Path_18" d="M460.01,270.125l.163-.082q14.711-7.291,17.673-.644,3.829,8.593-19.858,41.291c-2.169-6.612-5.289-12.916-4.914-17.437C453.365,289.841,456.443,279.625,460.01,270.125Z" transform="translate(-453.044 -247.655)" fill="rgba(0,0,0,0.16)" fill-rule="evenodd"/>
        </g>
        <g id="LArm" transform="translate(0 32.968)">
          <path id="Path_19" d="M403.882,260.648s-1.766-3.808-4.544-4.837-7.024-7.854-6.367-9.835,6.4-7.477,6.4-7.477-5.079-13.531-2.83-15.058c1.987-1.35,9.507,15.693,9.507,15.693s4.422.662,5.441,2.4c2.572,4.392.628,14.272.628,14.272l26.1,37.867-11.977,15.245Z" transform="translate(-392.903 -223.364)" fill="#fff" fill-rule="evenodd"/>
          <path id="Path_20" d="M466.786,258.791c-8.827,7.786-30.419,28.442-30.419,28.442l-3.207-4.88-16.147,16.416s12.18,17.937,16.147,18.062c10.334.327,28.851-19.046,46.26-34.172C495.029,269.1,483.241,244.279,466.786,258.791Z" transform="translate(-389.178 -218.571)" fill="#fd8715" fill-rule="evenodd"/>
          <path id="Path_21" d="M434.714,283.261s-6.057,6.955-6.556,6.2,4.568-9.213,4.568-9.213Z" transform="translate(-387.461 -214.575)" fill="rgba(0,0,0,0.16)" fill-rule="evenodd"/>
          <path id="Path_69" data-name="Path 69" d="M435.952,280.125,417.224,300.8l-5.77-11.8,20.935-13.043Z" transform="translate(-390.037 -215.238)" fill="#ffedc2" fill-rule="evenodd"/>
        </g>
        <path id="Path_22" d="M492.8,200.167s5.3-6.858,11.427-5.058,11.662,12.828,9.032,23.194-.458,16.282,2.717,23.27c8.527,18.8-21,30.731-21,30.731s2.3-13.928-2.177-22.339c-4.615-8.661-7.235-19.769-7.235-26.565C485.568,211.581,492.8,200.167,492.8,200.167Z" transform="translate(-378.585 -194.808)" fill="#8b5030" fill-rule="evenodd"/>
      </g>
      <g id="Group_39" data-name="Group 39" transform="translate(337.508 8.752)">
        <path id="Rectangle_15" d="M434.338,135.466c21.335-12.206,42.962-11.483,64.832,0l-1.385,15.319a66.669,66.669,0,0,1-31.031,50.509h0A64.887,64.887,0,0,1,435.195,149.5Z" transform="translate(-434.338 -126.581)" fill="#28c76f" fill-rule="evenodd"/>
        <ellipse id="Oval_13" cx="17.681" cy="17.554" rx="17.681" ry="17.554" transform="translate(14.735 16.091)" fill="#1ca258"/>
        <g id="Group_40" data-name="Group 40" transform="translate(19.854 21.175)">
          <path id="Path_23" d="M463.844,144.922a12.29,12.29,0,0,1,11.9,9.07.773.773,0,0,1-1.5.393,10.777,10.777,0,0,0-21.17,2.718,13.735,13.735,0,0,0,3.3,8.976.763.763,0,0,1-.109,1.081.778.778,0,0,1-1.089-.109,15.258,15.258,0,0,1-3.651-9.948A12.245,12.245,0,0,1,463.844,144.922Z" transform="translate(-451.535 -144.922)" fill="#fff" fill-rule="evenodd"/>
          <path id="Path_24" d="M460.564,148.726a8.474,8.474,0,0,1,10.72,4.906l.088.242c.83,2.393,1.959,3.476,3.4,3.458a.768.768,0,1,1,.02,1.535c-2.153.028-3.752-1.436-4.782-4.2l-.1-.291a6.919,6.919,0,0,0-8.841-4.2c-3.294,1.126-5.054,5.106-4.28,8.615a10.974,10.974,0,0,0,.586,1.888l.221.51c.734,1.612,1.689,2.82,6,7.966a.765.765,0,0,1-.1,1.082.778.778,0,0,1-1.09-.1l-2.312-2.774c-2.775-3.362-3.4-4.32-4.1-5.983l-.048-.117a12.631,12.631,0,0,1-.669-2.144C454.346,154.908,456.46,150.13,460.564,148.726Z" transform="translate(-450.991 -144.407)" fill="#fff" fill-rule="evenodd"/>
          <path id="Path_25" d="M461.783,152.286a4.281,4.281,0,0,1,5.48,2.7c1.017,3.262,2.887,5.288,5.649,6.158a.766.766,0,0,1,.5.964.775.775,0,0,1-.971.5c-3.268-1.03-5.5-3.446-6.659-7.168a2.733,2.733,0,0,0-3.5-1.7c-1.547.529-2.312,2.01-1.89,4.037a12.059,12.059,0,0,0,2.506,4.264l.246.309c.2.253.416.511.647.787l2.486,2.92a.765.765,0,0,1-.1,1.082.779.779,0,0,1-1.09-.1l-1.988-2.33-.5-.59c-.236-.283-.454-.548-.663-.808l-.5-.634a12.338,12.338,0,0,1-2.558-4.587C458.307,155.33,459.471,153.076,461.783,152.286Z" transform="translate(-450.422 -143.82)" fill="#fff" fill-rule="evenodd"/>
          <path id="Path_26" d="M462.641,155.883a.775.775,0,0,1,.966.509c.834,2.7,2.466,4.62,5.537,6.91a.764.764,0,0,1,.155,1.075.778.778,0,0,1-1.083.154c-3.309-2.467-5.141-4.618-6.089-7.688A.768.768,0,0,1,462.641,155.883Z" transform="translate(-449.904 -143.234)" fill="#fff" fill-rule="evenodd"/>
        </g>
      </g>
    </g>
  </g>
</svg>
