<svg xmlns="http://www.w3.org/2000/svg" width="696.869" height="579.719" viewBox="0 0 696.869 579.719">
  <g id="Secure_login-rafiki" data-name="Secure login-rafiki" transform="translate(-86.663 -132.67)">
    <g id="freepik--background-complete--inject-2" transform="translate(134.539 149.37)">
      <rect id="Rectangle_20726" data-name="Rectangle 20726" width="15.42" height="0.444" transform="translate(433.65 516.263)" fill="#ebebeb"/>
      <path id="Path_99480" data-name="Path 99480" d="M316.54,282.45h213.2a14.621,14.621,0,0,1-13.982,14.6c-22.908,1.047-58.165,4.667-69.326,17.336-20.849,23.635-18.827,106.642,6.139,125.859,7.807,6.033,30.626,17.993,30.626,17.993H363.083s21.293-12.208,28.728-17.993c24.842-19.377,25.534-102.331,4.6-125.859-10.735-12.066-43.775-15.97-65.937-17.194A14.745,14.745,0,0,1,316.54,282.45Z" transform="translate(106.481 23.084)" fill="#f5f5f5"/>
      <path id="Path_99481" data-name="Path 99481" d="M493.209,291.12c-21.648,1.774-47.59,6.015-56.888,16.555a42.125,42.125,0,0,0-7.1,12.208H393.469a43.474,43.474,0,0,0-7.1-12.208c-9.333-10.487-35.488-14.8-56.781-16.555Z" transform="translate(116.587 29.798)" fill="#e6e6e6"/>
      <path id="Path_99482" data-name="Path 99482" d="M386.058,296.968l2.91-33.128H346.932l-2.892,33.128Z" transform="translate(127.777 8.672)" fill="#ebebeb"/>
      <path id="Path_99483" data-name="Path 99483" d="M367.72,296.968l2.91-33.128h2.254l-2.892,33.128Z" transform="translate(146.115 8.672)" fill="#e0e0e0"/>
      <path id="Path_99484" data-name="Path 99484" d="M380.068,292.126l2.307-26.386H348.927l-2.307,26.386Z" transform="translate(129.775 10.143)" fill="#f0f0f0"/>
      <path id="Path_99485" data-name="Path 99485" d="M376.227,288.991l1.916-22.02H350.214l-1.934,22.02Z" transform="translate(131.061 11.096)" fill="#fafafa"/>
      <path id="Path_99486" data-name="Path 99486" d="M377.444,305.814h42.213l-4.684-53.534H372.76Z" transform="translate(150.019 -0.28)" fill="#e6e6e6"/>
      <path id="Path_99487" data-name="Path 99487" d="M378.32,305.814h-2.005L371.63,252.28h2.005Z" transform="translate(149.143 -0.28)" fill="#e0e0e0"/>
      <path id="Path_99488" data-name="Path 99488" d="M379.186,297.982h33.608l-3.726-42.621H375.46Z" transform="translate(152.109 2.105)" fill="#f0f0f0"/>
      <path id="Path_99489" data-name="Path 99489" d="M380.3,292.935h28.089l-3.123-35.595H377.19Z" transform="translate(153.449 3.638)" fill="#fafafa"/>
      <path id="Path_99490" data-name="Path 99490" d="M390.581,269.994h0a4.88,4.88,0,0,1-6.92,0h0a4.9,4.9,0,0,1,0-6.9h0a4.915,4.915,0,0,1,6.92,0h0A4.9,4.9,0,0,1,390.581,269.994Z" transform="translate(157.359 6.989)" fill="#ebebeb"/>
      <path id="Path_99491" data-name="Path 99491" d="M386.244,270.2h0a3.549,3.549,0,0,1,5.057,0h0a3.549,3.549,0,0,1-2.52,6.1h0a3.549,3.549,0,0,1-2.537-6.1Z" transform="translate(159.619 12.779)" fill="#f0f0f0"/>
      <rect id="Rectangle_20731" data-name="Rectangle 20731" width="199.072" height="220.17" transform="translate(205.424 244.512) rotate(180)" fill="#e0e0e0"/>
      <rect id="Rectangle_20732" data-name="Rectangle 20732" width="206.471" height="220.17" transform="translate(206.471 244.512) rotate(180)" fill="#f0f0f0"/>
      <rect id="Rectangle_20733" data-name="Rectangle 20733" width="189.33" height="203.029" transform="translate(198.078 234.38) rotate(180)" fill="#fff"/>
      <rect id="Rectangle_20734" data-name="Rectangle 20734" width="5.483" height="203.029" transform="translate(14.213 234.38) rotate(180)" fill="#e0e0e0"/>
      <rect id="Rectangle_20735" data-name="Rectangle 20735" width="5.483" height="184.93" transform="translate(13.628 182.833) rotate(-90)" fill="#e0e0e0"/>
      <rect id="Rectangle_20736" data-name="Rectangle 20736" width="192.276" height="9.191" transform="translate(201.006 177.35) rotate(180)" fill="#f0f0f0"/>
      <path id="Path_99492" data-name="Path 99492" d="M384.385,172.292s1.774-11.711-6.76-19.217-7.79-11.977-5.323-12.563,4.684,6.938,8.446,9c0,0,.124-10.646-3.691-14.639s-5.82-14.089-2.183-14.2,3.992,6.033,4.755,10.434,4.791,10.646,4.791,10.646.781-9.582,3.247-13.521-4.1-12.953-1.562-16.892,7.1,3.549,6.654,12.013-6,17.46-4.684,26.279c0,0,2.484-6.193,4.7-6.761s4.489-4.649,5.98-6.175,3.389,3.744,0,8.624-12,17.939-10.646,28.479Z" transform="translate(148.384 -110.262)" fill="#e6e6e6"/>
      <path id="Path_99493" data-name="Path 99493" d="M376.786,142.22l-2.8,17.549a8.872,8.872,0,0,0,8.872,10.327h2.981a8.872,8.872,0,0,0,8.872-10.327l-2.857-17.549Z" transform="translate(150.872 -85.513)" fill="#f5f5f5"/>
      <rect id="Rectangle_20737" data-name="Rectangle 20737" width="197.67" height="10.15" transform="translate(372.273 78.107)" fill="#e6e6e6"/>
      <rect id="Rectangle_20738" data-name="Rectangle 20738" width="8.712" height="37.44" transform="translate(381.375 40.667)" fill="#f0f0f0"/>
      <rect id="Rectangle_20739" data-name="Rectangle 20739" width="8.712" height="37.44" transform="translate(423.482 40.667)" fill="#f0f0f0"/>
      <rect id="Rectangle_20740" data-name="Rectangle 20740" width="8.712" height="37.44" transform="matrix(0.985, -0.17, 0.17, 0.985, 471.423, 41.193)" fill="#f0f0f0"/>
      <rect id="Rectangle_20741" data-name="Rectangle 20741" width="8.712" height="32.507" transform="translate(392.164 45.6)" fill="#f0f0f0"/>
      <rect id="Rectangle_20742" data-name="Rectangle 20742" width="8.712" height="32.507" transform="translate(412.179 45.6)" fill="#f0f0f0"/>
      <rect id="Rectangle_20743" data-name="Rectangle 20743" width="8.712" height="32.507" transform="translate(462.715 45.6)" fill="#f0f0f0"/>
      <rect id="Rectangle_20744" data-name="Rectangle 20744" width="8.712" height="32.507" transform="translate(435.124 46.34) rotate(-12.53)" fill="#f0f0f0"/>
      <rect id="Rectangle_20745" data-name="Rectangle 20745" width="4.347" height="39.303" transform="translate(404.052 38.804)" fill="#f0f0f0"/>
      <rect id="Rectangle_20746" data-name="Rectangle 20746" width="4.347" height="39.303" transform="translate(455.848 38.804)" fill="#f0f0f0"/>
      <rect id="Rectangle_20747" data-name="Rectangle 20747" width="197.67" height="10.15" transform="translate(569.96 164.077) rotate(180)" fill="#e6e6e6"/>
      <rect id="Rectangle_20748" data-name="Rectangle 20748" width="8.712" height="37.44" transform="translate(560.858 153.928) rotate(180)" fill="#f0f0f0"/>
      <rect id="Rectangle_20749" data-name="Rectangle 20749" width="8.712" height="37.44" transform="translate(518.751 153.928) rotate(180)" fill="#f0f0f0"/>
      <rect id="Rectangle_20750" data-name="Rectangle 20750" width="8.712" height="37.44" transform="matrix(-0.985, -0.17, 0.17, -0.985, 464.474, 153.889)" fill="#f0f0f0"/>
      <rect id="Rectangle_20751" data-name="Rectangle 20751" width="8.712" height="32.507" transform="translate(550.069 153.928) rotate(180)" fill="#f0f0f0"/>
      <rect id="Rectangle_20752" data-name="Rectangle 20752" width="8.712" height="32.507" transform="translate(530.054 153.928) rotate(180)" fill="#f0f0f0"/>
      <rect id="Rectangle_20753" data-name="Rectangle 20753" width="8.712" height="32.507" transform="translate(479.518 153.928) rotate(180)" fill="#f0f0f0"/>
      <rect id="Rectangle_20754" data-name="Rectangle 20754" width="8.712" height="32.507" transform="translate(500.076 153.889) rotate(-167.47)" fill="#f0f0f0"/>
      <rect id="Rectangle_20755" data-name="Rectangle 20755" width="4.347" height="39.303" transform="translate(538.18 153.928) rotate(180)" fill="#f0f0f0"/>
      <rect id="Rectangle_20756" data-name="Rectangle 20756" width="4.347" height="39.303" transform="translate(486.385 153.928) rotate(180)" fill="#f0f0f0"/>
      <rect id="Rectangle_20757" data-name="Rectangle 20757" width="42.426" height="29.296" transform="translate(433.685 153.591) rotate(180)" fill="#f5f5f5"/>
    </g>
    <g id="freepik--Shadow--inject-2" transform="translate(95.449 672.217)">
      <ellipse id="freepik--path--inject-2" cx="344.042" cy="20.086" rx="344.042" ry="20.086" fill="#f5f5f5"/>
    </g>
    <g id="freepik--Plant--inject-2" transform="translate(546.357 513.64)">
      <path id="Path_99494" data-name="Path 99494" d="M349.7,449.836s-8.872-19.164,1.242-38.079,12.953-23.351,6.565-27.22-9.351,15.207-9.351,15.207a42.586,42.586,0,0,1-.94-26.74c4.454-13.681,7.257-35.95,1.171-38.345s-1.153,27.787-6.441,38.079a88.408,88.408,0,0,1-5.164-22.429c-.728-10.984.408-28.533-4.4-33.022s-7.878-1.4-3.158,22.854a253.574,253.574,0,0,1,4.685,43.935s-10.416-31.8-17.425-32.72-6.991,9.369-.994,18.294,17.549,24.931,19.43,33.164c0,0-11.445-23.919-21.737-16.591s8.961,21.79,17.549,27.007,14.55,37.955,14.55,37.955Z" transform="translate(-310.227 -315.552)" fill="#6c8ddc"/>
      <path id="Path_99495" data-name="Path 99495" d="M349.7,449.836s-8.872-19.164,1.242-38.079,12.953-23.351,6.565-27.22-9.351,15.207-9.351,15.207a42.586,42.586,0,0,1-.94-26.74c4.454-13.681,7.257-35.95,1.171-38.345s-1.153,27.787-6.441,38.079a88.408,88.408,0,0,1-5.164-22.429c-.728-10.984.408-28.533-4.4-33.022s-7.878-1.4-3.158,22.854a253.574,253.574,0,0,1,4.685,43.935s-10.416-31.8-17.425-32.72-6.991,9.369-.994,18.294,17.549,24.931,19.43,33.164c0,0-11.445-23.919-21.737-16.591s8.961,21.79,17.549,27.007,14.55,37.955,14.55,37.955Z" transform="translate(-310.227 -315.552)" opacity="0.2"/>
      <path id="Path_99496" data-name="Path 99496" d="M333.8,454.433s8.553-19.306-1.774-38.043-13.237-23.174-6.885-27.131,9.511,14.976,9.511,14.976a42.586,42.586,0,0,0,.621-26.758c-4.613-13.592-7.683-35.826-1.615-38.31s1.491,27.77,6.885,37.973a88.094,88.094,0,0,0,4.9-22.517c.6-10.984-.745-28.515,4.01-33.075s7.861-1.508,3.425,22.8a252.628,252.628,0,0,0-4.152,44.005s10.043-31.939,17.034-32.969,7.1,9.262,1.207,18.276-17.23,25.2-19.039,33.448c0,0,11.161-24.1,21.541-16.91s-8.695,21.914-17.212,27.273-14.089,38.168-14.089,38.168Z" transform="translate(-301.268 -312.288)" fill="#6c8ddc"/>
      <path id="Path_99497" data-name="Path 99497" d="M381.653,387.91H310.96l5.731,50.589h59.248Z" transform="translate(-309.659 -259.517)" fill="#263238"/>
    </g>
    <g id="freepik--Window--inject-2" transform="translate(364.701 132.67)">
      <rect id="Rectangle_20758" data-name="Rectangle 20758" width="382.422" height="340.652" rx="2.48" transform="translate(14.477 6.299)" opacity="0.2"/>
      <rect id="Rectangle_20759" data-name="Rectangle 20759" width="382.422" height="340.652" rx="2.48" transform="translate(0.015 0)" fill="#6c8ddc"/>
      <path id="Path_99498" data-name="Path 99498" d="M207.867,118V423.838a4.081,4.081,0,0,0,3.549,4.4H586.634a4.081,4.081,0,0,0,3.655-4.4V118Z" transform="translate(-207.851 -87.569)" fill="#fff" opacity="0.6"/>
      <rect id="Rectangle_20760" data-name="Rectangle 20760" width="373.355" height="270.19" transform="translate(4.54 48.371)" fill="#fff"/>
      <ellipse id="Ellipse_3603" data-name="Ellipse 3603" cx="5.607" cy="6.761" rx="5.607" ry="6.761" transform="translate(364.339 7.524)" fill="#fff" opacity="0.6"/>
      <ellipse id="Ellipse_3604" data-name="Ellipse 3604" cx="5.607" cy="6.761" rx="5.607" ry="6.761" transform="translate(345.973 7.524)" fill="#fff" opacity="0.6"/>
      <path id="Path_99499" data-name="Path 99499" d="M403.677,111.851c0,3.726-2.5,6.743-5.607,6.743s-5.589-3.017-5.589-6.743,2.5-6.761,5.589-6.761S403.677,108.107,403.677,111.851Z" transform="translate(-64.872 -97.566)" fill="#fff" opacity="0.6"/>
      <path id="Path_99500" data-name="Path 99500" d="M280.385,145.89v69.681l-17.922,21.612H222.77V145.89Z" transform="translate(-196.298 -65.97)" fill="#6c8ddc"/>
      <path id="Path_99501" data-name="Path 99501" d="M280.385,145.89v69.681l-17.922,21.612H222.77V145.89Z" transform="translate(-196.298 -65.97)" fill="#fff" opacity="0.7"/>
      <path id="Path_99502" data-name="Path 99502" d="M263.062,185.16,245.14,206.772V185.16Z" transform="translate(-178.974 -35.559)" fill="#6c8ddc" opacity="0.3"/>
      <rect id="Rectangle_20761" data-name="Rectangle 20761" width="39.747" height="2.608" transform="translate(35.415 93.086)" fill="#6c8ddc" opacity="0.3"/>
      <rect id="Rectangle_20762" data-name="Rectangle 20762" width="39.747" height="2.608" transform="translate(35.415 102.987)" fill="#6c8ddc" opacity="0.3"/>
      <rect id="Rectangle_20763" data-name="Rectangle 20763" width="39.747" height="2.626" transform="translate(35.415 112.906)" fill="#6c8ddc" opacity="0.3"/>
      <rect id="Rectangle_20764" data-name="Rectangle 20764" width="39.747" height="2.608" transform="translate(35.415 122.825)" fill="#6c8ddc" opacity="0.3"/>
      <rect id="Rectangle_20765" data-name="Rectangle 20765" width="29.473" height="2.626" transform="translate(35.415 132.744)" fill="#6c8ddc" opacity="0.3"/>
      <path id="Path_99503" data-name="Path 99503" d="M331.885,145.89v69.681l-17.922,21.612H274.27V145.89Z" transform="translate(-156.416 -65.97)" fill="#6c8ddc"/>
      <path id="Path_99504" data-name="Path 99504" d="M331.885,145.89v69.681l-17.922,21.612H274.27V145.89Z" transform="translate(-156.416 -65.97)" fill="#fff" opacity="0.7"/>
      <path id="Path_99505" data-name="Path 99505" d="M314.562,185.16,296.64,206.772V185.16Z" transform="translate(-139.092 -35.559)" fill="#6c8ddc" opacity="0.3"/>
      <rect id="Rectangle_20766" data-name="Rectangle 20766" width="39.747" height="2.608" transform="translate(126.78 93.086)" fill="#6c8ddc" opacity="0.3"/>
      <rect id="Rectangle_20767" data-name="Rectangle 20767" width="39.747" height="2.608" transform="translate(126.78 102.987)" fill="#6c8ddc" opacity="0.3"/>
      <rect id="Rectangle_20768" data-name="Rectangle 20768" width="39.747" height="2.626" transform="translate(126.78 112.906)" fill="#6c8ddc" opacity="0.3"/>
      <rect id="Rectangle_20769" data-name="Rectangle 20769" width="39.747" height="2.608" transform="translate(126.78 122.825)" fill="#6c8ddc" opacity="0.3"/>
      <rect id="Rectangle_20770" data-name="Rectangle 20770" width="29.473" height="2.626" transform="translate(126.78 132.744)" fill="#6c8ddc" opacity="0.3"/>
      <path id="Path_99506" data-name="Path 99506" d="M383.385,145.89v69.681l-17.922,21.612H325.77V145.89Z" transform="translate(-116.533 -65.97)" fill="#6c8ddc"/>
      <path id="Path_99507" data-name="Path 99507" d="M383.385,145.89v69.681l-17.922,21.612H325.77V145.89Z" transform="translate(-116.533 -65.97)" fill="#fff" opacity="0.7"/>
      <path id="Path_99508" data-name="Path 99508" d="M366.062,185.16,348.14,206.772V185.16Z" transform="translate(-99.209 -35.559)" fill="#6c8ddc" opacity="0.3"/>
      <rect id="Rectangle_20771" data-name="Rectangle 20771" width="39.747" height="2.608" transform="translate(218.162 93.086)" fill="#6c8ddc" opacity="0.3"/>
      <rect id="Rectangle_20772" data-name="Rectangle 20772" width="39.747" height="2.608" transform="translate(218.162 102.987)" fill="#6c8ddc" opacity="0.3"/>
      <rect id="Rectangle_20773" data-name="Rectangle 20773" width="39.747" height="2.626" transform="translate(218.162 112.906)" fill="#6c8ddc" opacity="0.3"/>
      <rect id="Rectangle_20774" data-name="Rectangle 20774" width="39.747" height="2.608" transform="translate(218.162 122.825)" fill="#6c8ddc" opacity="0.3"/>
      <rect id="Rectangle_20775" data-name="Rectangle 20775" width="29.473" height="2.626" transform="translate(218.162 132.744)" fill="#6c8ddc" opacity="0.3"/>
      <path id="Path_99509" data-name="Path 99509" d="M434.885,145.89v69.681l-17.939,21.612H377.27V145.89Z" transform="translate(-76.651 -65.97)" fill="#6c8ddc"/>
      <path id="Path_99510" data-name="Path 99510" d="M434.885,145.89v69.681l-17.939,21.612H377.27V145.89Z" transform="translate(-76.651 -65.97)" fill="#fff" opacity="0.7"/>
      <path id="Path_99511" data-name="Path 99511" d="M417.569,185.16,399.63,206.772V185.16Z" transform="translate(-59.335 -35.559)" fill="#6c8ddc" opacity="0.3"/>
      <rect id="Rectangle_20776" data-name="Rectangle 20776" width="39.747" height="2.608" transform="translate(309.545 93.086)" fill="#6c8ddc" opacity="0.3"/>
      <rect id="Rectangle_20777" data-name="Rectangle 20777" width="39.747" height="2.608" transform="translate(309.545 102.987)" fill="#6c8ddc" opacity="0.3"/>
      <rect id="Rectangle_20778" data-name="Rectangle 20778" width="39.747" height="2.626" transform="translate(309.545 112.906)" fill="#6c8ddc" opacity="0.3"/>
      <rect id="Rectangle_20779" data-name="Rectangle 20779" width="39.747" height="2.608" transform="translate(309.545 122.825)" fill="#6c8ddc" opacity="0.3"/>
      <rect id="Rectangle_20780" data-name="Rectangle 20780" width="29.473" height="2.626" transform="translate(309.545 132.744)" fill="#6c8ddc" opacity="0.3"/>
      <path id="Path_99512" data-name="Path 99512" d="M280.385,213.89v69.681l-17.922,21.612H222.77V213.89Z" transform="translate(-196.298 -13.31)" fill="#6c8ddc"/>
      <path id="Path_99513" data-name="Path 99513" d="M280.385,213.89v69.681l-17.922,21.612H222.77V213.89Z" transform="translate(-196.298 -13.31)" fill="#fff" opacity="0.7"/>
      <path id="Path_99514" data-name="Path 99514" d="M263.062,253.16,245.14,274.772V253.16Z" transform="translate(-178.974 17.101)" fill="#6c8ddc" opacity="0.3"/>
      <rect id="Rectangle_20781" data-name="Rectangle 20781" width="39.747" height="2.608" transform="translate(35.415 213.746)" fill="#6c8ddc" opacity="0.3"/>
      <rect id="Rectangle_20782" data-name="Rectangle 20782" width="39.747" height="2.608" transform="translate(35.415 223.647)" fill="#6c8ddc" opacity="0.3"/>
      <rect id="Rectangle_20783" data-name="Rectangle 20783" width="39.747" height="2.626" transform="translate(35.415 233.566)" fill="#6c8ddc" opacity="0.3"/>
      <rect id="Rectangle_20784" data-name="Rectangle 20784" width="39.747" height="2.626" transform="translate(35.415 243.485)" fill="#6c8ddc" opacity="0.3"/>
      <rect id="Rectangle_20785" data-name="Rectangle 20785" width="29.473" height="2.608" transform="translate(35.415 253.404)" fill="#6c8ddc" opacity="0.3"/>
      <path id="Path_99515" data-name="Path 99515" d="M331.885,213.89v69.681l-17.922,21.612H274.27V213.89Z" transform="translate(-156.416 -13.31)" fill="#6c8ddc"/>
      <path id="Path_99516" data-name="Path 99516" d="M331.885,213.89v69.681l-17.922,21.612H274.27V213.89Z" transform="translate(-156.416 -13.31)" fill="#fff" opacity="0.7"/>
      <path id="Path_99517" data-name="Path 99517" d="M314.562,253.16,296.64,274.772V253.16Z" transform="translate(-139.092 17.101)" fill="#6c8ddc" opacity="0.3"/>
      <rect id="Rectangle_20786" data-name="Rectangle 20786" width="39.747" height="2.608" transform="translate(126.78 213.746)" fill="#6c8ddc" opacity="0.3"/>
      <rect id="Rectangle_20787" data-name="Rectangle 20787" width="39.747" height="2.608" transform="translate(126.78 223.647)" fill="#6c8ddc" opacity="0.3"/>
      <rect id="Rectangle_20788" data-name="Rectangle 20788" width="39.747" height="2.626" transform="translate(126.78 233.566)" fill="#6c8ddc" opacity="0.3"/>
      <rect id="Rectangle_20789" data-name="Rectangle 20789" width="39.747" height="2.626" transform="translate(126.78 243.485)" fill="#6c8ddc" opacity="0.3"/>
      <rect id="Rectangle_20790" data-name="Rectangle 20790" width="29.473" height="2.608" transform="translate(126.78 253.404)" fill="#6c8ddc" opacity="0.3"/>
      <path id="Path_99518" data-name="Path 99518" d="M383.385,213.89v69.681l-17.922,21.612H325.77V213.89Z" transform="translate(-116.533 -13.31)" fill="#6c8ddc"/>
      <path id="Path_99519" data-name="Path 99519" d="M383.385,213.89v69.681l-17.922,21.612H325.77V213.89Z" transform="translate(-116.533 -13.31)" fill="#fff" opacity="0.7"/>
      <path id="Path_99520" data-name="Path 99520" d="M366.062,253.16,348.14,274.772V253.16Z" transform="translate(-99.209 17.101)" fill="#6c8ddc" opacity="0.3"/>
      <rect id="Rectangle_20791" data-name="Rectangle 20791" width="39.747" height="2.608" transform="translate(218.162 213.746)" fill="#6c8ddc" opacity="0.3"/>
      <rect id="Rectangle_20792" data-name="Rectangle 20792" width="39.747" height="2.608" transform="translate(218.162 223.647)" fill="#6c8ddc" opacity="0.3"/>
      <rect id="Rectangle_20793" data-name="Rectangle 20793" width="39.747" height="2.626" transform="translate(218.162 233.566)" fill="#6c8ddc" opacity="0.3"/>
      <rect id="Rectangle_20794" data-name="Rectangle 20794" width="39.747" height="2.626" transform="translate(218.162 243.485)" fill="#6c8ddc" opacity="0.3"/>
      <rect id="Rectangle_20795" data-name="Rectangle 20795" width="29.473" height="2.608" transform="translate(218.162 253.404)" fill="#6c8ddc" opacity="0.3"/>
      <path id="Path_99521" data-name="Path 99521" d="M434.885,213.89v69.681l-17.939,21.612H377.27V213.89Z" transform="translate(-76.651 -13.31)" fill="#6c8ddc"/>
      <path id="Path_99522" data-name="Path 99522" d="M434.885,213.89v69.681l-17.939,21.612H377.27V213.89Z" transform="translate(-76.651 -13.31)" fill="#fff" opacity="0.7"/>
      <path id="Path_99523" data-name="Path 99523" d="M417.569,253.16,399.63,274.772V253.16Z" transform="translate(-59.335 17.101)" fill="#6c8ddc" opacity="0.3"/>
      <rect id="Rectangle_20796" data-name="Rectangle 20796" width="39.747" height="2.608" transform="translate(309.545 213.746)" fill="#6c8ddc" opacity="0.3"/>
      <rect id="Rectangle_20797" data-name="Rectangle 20797" width="39.747" height="2.608" transform="translate(309.545 223.647)" fill="#6c8ddc" opacity="0.3"/>
      <rect id="Rectangle_20798" data-name="Rectangle 20798" width="39.747" height="2.626" transform="translate(309.545 233.566)" fill="#6c8ddc" opacity="0.3"/>
      <rect id="Rectangle_20799" data-name="Rectangle 20799" width="39.747" height="2.626" transform="translate(309.545 243.485)" fill="#6c8ddc" opacity="0.3"/>
      <rect id="Rectangle_20800" data-name="Rectangle 20800" width="29.473" height="2.608" transform="translate(309.545 253.404)" fill="#6c8ddc" opacity="0.3"/>
    </g>
    <g id="freepik--Padlock--inject-2" transform="translate(437.325 218.445)">
      <rect id="Rectangle_20801" data-name="Rectangle 20801" width="107.405" height="84.356" rx="4.35" transform="translate(44.36 57.065)" opacity="0.1"/>
      <g id="Group_91434" data-name="Group 91434" transform="translate(61.306 3.549)" opacity="0.1">
        <path id="Path_99524" data-name="Path 99524" d="M359.488,200.785H348.841V189.269a27.432,27.432,0,1,0-54.865,0v11.516H283.33V189.269a38.079,38.079,0,1,1,76.158,0Z" transform="translate(-283.33 -151.19)"/>
      </g>
      <rect id="Rectangle_20802" data-name="Rectangle 20802" width="107.405" height="84.356" rx="4.35" transform="translate(0 53.516)" fill="#263238"/>
      <rect id="Rectangle_20803" data-name="Rectangle 20803" width="87.976" height="84.356" rx="4.35" transform="translate(0 53.516)" fill="#fff" opacity="0.2"/>
      <path id="Path_99525" data-name="Path 99525" d="M283.517,201.79c0-5.82-3.549-10.54-7.914-10.54s-7.9,4.72-7.9,10.54a10.93,10.93,0,0,0,4.951,9.759l-1.473,22h8.872l-1.455-22a10.966,10.966,0,0,0,4.915-9.759Z" transform="translate(-234.135 -116.618)" fill="#263238"/>
      <path id="Path_99526" data-name="Path 99526" d="M334.488,198.785H323.841V187.269a27.432,27.432,0,0,0-54.865,0v11.516H258.33V187.269a38.079,38.079,0,0,1,76.158,0Z" transform="translate(-241.384 -149.19)" fill="#263238"/>
      <g id="Group_91435" data-name="Group 91435" transform="translate(16.946)" opacity="0.4">
        <path id="Path_99527" data-name="Path 99527" d="M334.488,198.785H323.841V187.269a27.432,27.432,0,0,0-54.865,0v11.516H258.33V187.269a38.079,38.079,0,0,1,76.158,0Z" transform="translate(-258.33 -149.19)" fill="#fff"/>
      </g>
      <path id="Path_99528" data-name="Path 99528" d="M328.107,187.268v11.516h-7.222V185.955a34.779,34.779,0,0,0-34.8-34.779A33.838,33.838,0,0,0,266.57,157.3a38.044,38.044,0,0,1,61.519,29.97Z" transform="translate(-235.003 -149.189)" fill="#fff" opacity="0.2"/>
    </g>
    <g id="freepik--Desk--inject-2" transform="translate(218.682 367.37)">
      <path id="Path_99529" data-name="Path 99529" d="M235.232,300.871H192.22v-1.65h9.706a2.8,2.8,0,0,0,2.733-2.307l4.347-25.871.852-5.093h14.728l13.184,31.088a2.75,2.75,0,0,1-2.537,3.833Z" transform="translate(-73.937 -207.694)" fill="#6c8ddc"/>
      <path id="Path_99530" data-name="Path 99530" d="M235.232,300.871H192.22v-1.65h9.706a2.8,2.8,0,0,0,2.733-2.307l4.347-25.871.852-5.093h14.728l13.184,31.088a2.75,2.75,0,0,1-2.537,3.833Z" transform="translate(-73.937 -207.694)" fill="#fff" opacity="0.4"/>
      <path id="Path_99531" data-name="Path 99531" d="M231.049,297H197.69a2.8,2.8,0,0,0,2.733-2.307l4.347-25.871h15.437l11.747,26.811a.976.976,0,0,1-.9,1.366Z" transform="translate(-69.701 -205.472)" opacity="0.2"/>
      <path id="Path_99532" data-name="Path 99532" d="M267.615,300.9H181.574a1.26,1.26,0,0,1-1.278-1.561l12.243-64.66a1.987,1.987,0,0,1,1.774-1.562h86.024a1.242,1.242,0,0,1,1.26,1.562l-12.208,64.642a1.987,1.987,0,0,1-1.774,1.579Z" transform="translate(-83.2 -233.119)" fill="#6c8ddc"/>
      <path id="Path_99533" data-name="Path 99533" d="M267.615,300.9H181.574a1.26,1.26,0,0,1-1.278-1.561l12.243-64.66a1.987,1.987,0,0,1,1.774-1.562h86.024a1.242,1.242,0,0,1,1.26,1.562l-12.208,64.642a1.987,1.987,0,0,1-1.774,1.579Z" transform="translate(-83.2 -233.119)" fill="#fff" opacity="0.4"/>
      <path id="Path_99534" data-name="Path 99534" d="M266.615,300.9H180.574a1.26,1.26,0,0,1-1.278-1.561l12.243-64.66a1.987,1.987,0,0,1,1.774-1.562h86.024a1.242,1.242,0,0,1,1.26,1.562L268.39,299.324a1.987,1.987,0,0,1-1.774,1.579Z" transform="translate(-83.974 -233.119)" fill="#263238"/>
      <path id="Path_99535" data-name="Path 99535" d="M263.752,295.186H181.49l11.321-59.816h82.244Z" transform="translate(-82.247 -231.376)" fill="#6c8ddc"/>
      <path id="Path_99536" data-name="Path 99536" d="M147.05,289.432V287.41l33.111-6.69h64.784a4.347,4.347,0,0,1,4.347,4.347h0a4.365,4.365,0,0,1-4.347,4.365Z" transform="translate(-108.918 -196.256)" fill="#6c8ddc"/>
      <path id="Path_99537" data-name="Path 99537" d="M249.292,285.085a4.348,4.348,0,0,1-1.26,3.07,4.4,4.4,0,0,1-3.088,1.277H147.05v-2.005l33.128-6.707h64.766a4.347,4.347,0,0,1,4.347,4.365Z" transform="translate(-108.918 -196.256)" fill="#fff" opacity="0.4"/>
      <path id="Path_99538" data-name="Path 99538" d="M223.736,285.085a4.348,4.348,0,0,1-1.26,3.07,4.4,4.4,0,0,1-3.088,1.277H180.05v-2.005l33.128-6.707h6.21a4.347,4.347,0,0,1,4.347,4.365Z" transform="translate(-83.362 -196.256)" fill="#fff" opacity="0.4"/>
      <path id="Path_99539" data-name="Path 99539" d="M218.01,513.176h8.872L242.8,291.48H231.034Z" transform="translate(-53.965 -187.924)" fill="#263238"/>
      <path id="Path_99540" data-name="Path 99540" d="M218.01,513.021h8.872l15.136-210.694.781-10.647H231.034l-.621,10.647Z" transform="translate(-53.965 -187.769)" fill="#fff" opacity="0.1"/>
      <path id="Path_99541" data-name="Path 99541" d="M225,301.794h11.6l.781-10.114H225.621Z" transform="translate(-48.552 -187.769)" opacity="0.2"/>
      <path id="Path_99542" data-name="Path 99542" d="M182,513.176h8.854l1.455-221.7H180.54Z" transform="translate(-82.983 -187.924)" fill="#263238"/>
      <path id="Path_99543" data-name="Path 99543" d="M180.54,291.68l.231,35.772,1.207,185.568h8.872l1.207-185.568.231-35.772Z" transform="translate(-82.983 -187.769)" fill="#fff" opacity="0.1"/>
      <path id="Path_99544" data-name="Path 99544" d="M180.54,291.68l.231,36.163h11.285l.231-36.163Z" transform="translate(-82.983 -187.769)" opacity="0.2"/>
      <path id="Path_99545" data-name="Path 99545" d="M128.33,513.176h8.854l15.934-221.7H141.354Z" transform="translate(-123.415 -187.924)" fill="#263238"/>
      <path id="Path_99546" data-name="Path 99546" d="M128.32,513.021h8.872l15.154-210.694.781-10.647H141.362l-.639,10.647Z" transform="translate(-123.423 -187.769)" fill="#fff" opacity="0.1"/>
      <path id="Path_99547" data-name="Path 99547" d="M135.31,301.794h11.622l.781-10.114H135.949Z" transform="translate(-118.009 -187.769)" opacity="0.2"/>
      <path id="Path_99548" data-name="Path 99548" d="M282.1,513.176h8.854l-13.024-221.7H266.18Z" transform="translate(-16.662 -187.924)" fill="#263238"/>
      <path id="Path_99549" data-name="Path 99549" d="M266.18,291.68l.781,10.647L282.1,513.021h8.854L278.565,302.327l-.639-10.647Z" transform="translate(-16.662 -187.769)" fill="#fff" opacity="0.1"/>
      <path id="Path_99550" data-name="Path 99550" d="M277.927,291.68H266.18l.781,10.114h11.6Z" transform="translate(-16.662 -187.769)" opacity="0.2"/>
      <path id="Path_99551" data-name="Path 99551" d="M3.833,0H258.124a3.833,3.833,0,0,1,3.833,3.833v7.275H0V3.833A3.833,3.833,0,0,1,3.833,0Z" transform="translate(270.581 109.093) rotate(180)" fill="#6c8ddc"/>
      <path id="Path_99552" data-name="Path 99552" d="M3.833,0H258.124a3.833,3.833,0,0,1,3.833,3.833v7.275H0V3.833A3.833,3.833,0,0,1,3.833,0Z" transform="translate(270.581 109.093) rotate(180)" fill="#fff" opacity="0.4"/>
      <rect id="Rectangle_20804" data-name="Rectangle 20804" width="261.975" height="5.554" transform="translate(270.581 103.539) rotate(180)" opacity="0.2"/>
      <path id="Path_99553" data-name="Path 99553" d="M128.683,291.886H401.641a3.123,3.123,0,0,0,3.123-3.123h0a3.123,3.123,0,0,0-3.123-3.123H128.683a3.123,3.123,0,0,0-3.123,3.123h0a3.123,3.123,0,0,0,3.123,3.123Z" transform="translate(-125.56 -192.446)" fill="#6c8ddc"/>
      <path id="Path_99554" data-name="Path 99554" d="M128.683,291.886H401.641a3.123,3.123,0,0,0,3.123-3.123h0a3.123,3.123,0,0,0-3.123-3.123H128.683a3.123,3.123,0,0,0-3.123,3.123h0a3.123,3.123,0,0,0,3.123,3.123Z" transform="translate(-125.56 -192.446)" fill="#fff" opacity="0.4"/>
      <path id="Path_99555" data-name="Path 99555" d="M191.591,259.309A2.662,2.662,0,0,1,189,256.151l1.1-5.66a3.425,3.425,0,0,1,3.336-2.75h46.135a2.609,2.609,0,0,1,2.041.976,2.555,2.555,0,0,1,.55,2.183l-1.1,5.66a3.389,3.389,0,0,1-3.318,2.75Z" transform="translate(-76.467 -221.797)" fill="#fff" opacity="0.3"/>
      <path id="Path_99556" data-name="Path 99556" d="M237.372,258.035H191.237a1.774,1.774,0,0,1-1.774-2.094l1.118-5.678a2.484,2.484,0,0,1,2.449-2.023h46.135a1.774,1.774,0,0,1,1.774,2.094l-1.1,5.678A2.5,2.5,0,0,1,237.372,258.035Z" transform="translate(-76.095 -221.409)" fill="#fff"/>
      <ellipse id="Ellipse_3605" data-name="Ellipse 3605" cx="2.857" cy="2.271" rx="2.857" ry="2.271" transform="translate(117.585 32.787) rotate(-55.03)" fill="#263238"/>
      <path id="Path_99557" data-name="Path 99557" d="M201.386,252.169a3.265,3.265,0,0,1-2.946,2.679,2.058,2.058,0,0,1-1.9-2.679,3.283,3.283,0,0,1,2.946-2.679,2.041,2.041,0,0,1,1.9,2.679Z" transform="translate(-70.665 -220.441)" fill="#263238"/>
      <path id="Path_99558" data-name="Path 99558" d="M205.464,252.169a3.283,3.283,0,0,1-2.946,2.679,2.058,2.058,0,0,1-1.916-2.679,3.3,3.3,0,0,1,2.963-2.679,2.058,2.058,0,0,1,1.9,2.679Z" transform="translate(-67.521 -220.441)" fill="#263238"/>
      <ellipse id="Ellipse_3606" data-name="Ellipse 3606" cx="2.857" cy="2.271" rx="2.857" ry="2.271" transform="translate(139.237 32.774) rotate(-55.03)" fill="#263238"/>
      <path id="Path_99559" data-name="Path 99559" d="M213.594,252.169a3.3,3.3,0,0,1-2.963,2.679,2.058,2.058,0,0,1-1.9-2.679,3.3,3.3,0,0,1,2.946-2.679,2.058,2.058,0,0,1,1.916,2.679Z" transform="translate(-61.225 -220.441)" fill="#263238"/>
      <ellipse id="Ellipse_3607" data-name="Ellipse 3607" cx="2.857" cy="2.271" rx="2.857" ry="2.271" transform="translate(153.652 32.803) rotate(-55.03)" fill="#263238"/>
      <path id="Path_99560" data-name="Path 99560" d="M220.965,259.363a1.988,1.988,0,0,1-1.561-.728,2.023,2.023,0,0,1-.408-1.774l1.4-7.1a2.644,2.644,0,0,1,2.52-2.094h7.1a1.987,1.987,0,0,1,1.561.728,2.023,2.023,0,0,1,.408,1.774l-1.4,7.1a2.644,2.644,0,0,1-2.52,2.094Z" transform="translate(-53.247 -221.851)" fill="#fff" opacity="0.3"/>
      <path id="Path_99561" data-name="Path 99561" d="M220.58,258.051h7.1a1.774,1.774,0,0,0,1.632-1.348l1.4-7.1a1.1,1.1,0,0,0-1.1-1.384h-7.1a1.774,1.774,0,0,0-1.65,1.384l-1.4,7.1a1.1,1.1,0,0,0,1.118,1.348Z" transform="translate(-52.863 -221.425)" fill="#263238"/>
      <path id="Path_99562" data-name="Path 99562" d="M222.265,255.459a.355.355,0,0,1-.284-.124.479.479,0,0,1,.124-.639l2.821-2.342-1.881-2.342a.5.5,0,0,1,.745-.639l2.129,2.662a.461.461,0,0,1-.124.639l-3.176,2.662A.55.55,0,0,1,222.265,255.459Z" transform="translate(-50.945 -220.625)" fill="#6c8ddc"/>
      <path id="Path_99563" data-name="Path 99563" d="M226.161,251.637H221.37a.355.355,0,0,1-.355-.444.568.568,0,0,1,.532-.444h4.773a.355.355,0,0,1,.355.444.568.568,0,0,1-.515.444Z" transform="translate(-51.647 -219.466)" fill="#6c8ddc"/>
    </g>
    <g id="freepik--speech-bubble--inject-2" transform="translate(230.375 238.336)">
      <rect id="Rectangle_20805" data-name="Rectangle 20805" width="52.878" height="52.878" rx="4.12" transform="translate(52.878 52.878) rotate(180)" fill="#6c8ddc"/>
      <path id="Path_99564" data-name="Path 99564" d="M144.72,189.08l4.134,17.78,4.134-17.78Z" transform="translate(-122.416 -138.19)" fill="#6c8ddc"/>
      <path id="Path_99565" data-name="Path 99565" d="M153.465,198.665a31.39,31.39,0,0,1-15.3-25.8V172.3l15.739-6.707L169.63,172.3v.568a31.283,31.283,0,0,1-15.278,25.8l-.461.284Z" transform="translate(-127.488 -156.381)" fill="#fff" opacity="0.3"/>
      <path id="Path_99566" data-name="Path 99566" d="M147.05,166.14l14.852,6.317a30.165,30.165,0,0,1-14.852,25.037Z" transform="translate(-120.611 -155.955)" fill="#fff" opacity="0.6"/>
      <path id="Path_99567" data-name="Path 99567" d="M153.54,166.14l-14.87,6.317a30.165,30.165,0,0,0,14.87,25.037Z" transform="translate(-127.101 -155.955)" fill="#fff" opacity="0.4"/>
    </g>
    <g id="freepik--Character--inject-2" transform="translate(86.663 324.87)">
      <g id="freepik--group--inject-2" transform="translate(71.08)">
        <path id="Path_99568" data-name="Path 99568" d="M139,279.2l12.421,1.863a46.283,46.283,0,0,1,8.659-1.863,58.443,58.443,0,0,1,9.582,0s5.625,2.112,5.625,7.488c0,0-13.113,3.549-18.135,1.4L139,286.684Z" transform="translate(-54.213 -155.088)" fill="#e4897b"/>
        <path id="Path_99569" data-name="Path 99569" d="M139,279.2l12.421,1.863a46.283,46.283,0,0,1,8.659-1.863,58.443,58.443,0,0,1,9.582,0s5.625,2.112,5.625,7.488c0,0-13.113,3.549-18.135,1.4L139,286.684Z" transform="translate(-54.213 -155.088)" opacity="0.2"/>
        <path id="Path_99570" data-name="Path 99570" d="M157.579,231.84a31.832,31.832,0,0,0,1.49,7.506,4.134,4.134,0,0,1-4.33,0Z" transform="translate(-42.023 -191.609)" fill="#aa473d"/>
        <path id="Path_99571" data-name="Path 99571" d="M160.119,230.951c-.479,1.153-1.331,1.9-1.916,1.65s-.639-1.349-.177-2.5,1.331-1.881,1.916-1.65S160.58,229.815,160.119,230.951Z" transform="translate(-39.719 -194.268)" fill="#263238"/>
        <path id="Path_99572" data-name="Path 99572" d="M164.009,228.608a.55.55,0,0,1-.319,0,7.31,7.31,0,0,0-6.3-.532.647.647,0,0,1-.586-1.153,8.446,8.446,0,0,1,7.541.586.639.639,0,0,1,.213.887.6.6,0,0,1-.55.213Z" transform="translate(-40.699 -195.9)" fill="#263238"/>
        <path id="Path_99573" data-name="Path 99573" d="M167.735,255.679c-.408.5-.816.976-1.26,1.42a17.637,17.637,0,0,1-9.209,5.057,19.68,19.68,0,0,1-2.7.355,16.094,16.094,0,0,1-12.829-5.146,15.845,15.845,0,0,1-3.3-5.5c-3.176-8.517,0-15.225,4.6-27.024a17.318,17.318,0,0,1,28.852-5.873C181.079,228.654,174.9,246.452,167.735,255.679Z" transform="translate(-55.64 -205.795)" fill="#e4897b"/>
        <path id="Path_99574" data-name="Path 99574" d="M155.266,244.314a19.679,19.679,0,0,1-2.7.355,16.094,16.094,0,0,1-12.829-5.146,18.951,18.951,0,0,1,3.815-2.963,24.841,24.841,0,0,1,11.711,7.754Z" transform="translate(-53.64 -187.954)" opacity="0.2"/>
        <path id="Path_99575" data-name="Path 99575" d="M126.93,254.229c1.171,8.3,19.341,11.409,19.341,11.409s8.872,4.081,9.333.532c-3.709-4.294-4.117-8.038-2.839-11.321a16.146,16.146,0,0,1,3.655-5.323,31.507,31.507,0,0,1,2.644-2.449l-5.554-22.748C149.518,233.025,135.926,252.987,126.93,254.229Z" transform="translate(-63.56 -197.425)" fill="#e4897b"/>
        <path id="Path_99576" data-name="Path 99576" d="M173.932,215.968s3.886-.479,6.867,6.761c2.5,6.086-3.407,7.417-3.141,13.894S171.98,246.7,171.98,246.7s-4.968,4.294-9.209,1.97c0,0-5.536,2.715-6.991,7.453s-10.025-3.815-17.744-2.52c0,0-5.217-4.88-4.826-16.733A40.954,40.954,0,0,1,136.935,222a20.192,20.192,0,0,1,11.072-11C156.827,206.99,172.282,209.971,173.932,215.968Z" transform="translate(-58.714 -209.167)" fill="#263238"/>
        <path id="Path_99577" data-name="Path 99577" d="M149.349,232.157a8.162,8.162,0,0,0,1.526,6.831c1.881,2.058,4.915-.55,6.14-4.152,1.065-3.212,1.437-8.233-1.331-8.872S149.934,228.7,149.349,232.157Z" transform="translate(-46.356 -196.22)" fill="#e4897b"/>
        <path id="Path_99578" data-name="Path 99578" d="M190.908,248.485q-3.815,10.646-6.814,20.406c-1.278,4.046-2.449,8-3.549,11.818q-1.349,4.809-2.52,9.333c-.373,1.455-.745,2.892-1.1,4.312-1.952,7.825-3.549,14.958-4.773,21.293a281.526,281.526,0,0,0-4.6,29.934L98,336.816c2.413-11.96,4.294-22.411,6.92-33.714,1.455-6.175,3.105-12.6,5.323-19.643,1.49-5.057,3.229-10.434,5.323-16.271,6.991-20.051,13.432-25.6,13.432-25.6C155.6,237.324,190.908,248.485,190.908,248.485Z" transform="translate(-85.964 -184.814)" fill="#263238"/>
        <path id="Path_99579" data-name="Path 99579" d="M163.41,279.926l12.421,1.863a46.285,46.285,0,0,1,8.659-1.863,58.693,58.693,0,0,1,9.6,0s5.607,2.112,5.607,7.488c0,0-13.1,3.549-18.135,1.4l-18.135-1.4Z" transform="translate(-35.309 -154.523)" fill="#e4897b"/>
        <path id="Path_99580" data-name="Path 99580" d="M120.08,422.159l12.971.231,6.459-29.9-12.953-.231Z" transform="translate(-68.865 -67.377)" fill="#ebb376"/>
        <path id="Path_99581" data-name="Path 99581" d="M125.287,392.26l12.953.248L134.549,409.6l-12.829-.852Z" transform="translate(-67.595 -67.377)" opacity="0.2"/>
        <path id="Path_99582" data-name="Path 99582" d="M169.172,413.215A406.678,406.678,0,0,1,150.275,469l-23.653-1.775s9.706-37.919,13.219-72.662c2.182-21.435,1.987-39.179-4.294-40.545-3.939-.869-13.184-.852-25.037-.568V309.27c33.235,6.832,66.31,19.7,68.83,30.023C182.853,353.826,176.713,384.594,169.172,413.215Z" transform="translate(-76.276 -131.646)" fill="#6c8ddc"/>
        <path id="Path_99583" data-name="Path 99583" d="M118.17,404.017l28.178,1.881,4.152-12.19-31.052-1.437Z" transform="translate(-70.344 -67.369)" fill="#6c8ddc"/>
        <path id="Path_99584" data-name="Path 99584" d="M118.17,404.017l28.178,1.881,4.152-12.19-31.052-1.437Z" transform="translate(-70.344 -67.369)" fill="#fff" opacity="0.2"/>
        <path id="Path_99585" data-name="Path 99585" d="M128.5,411.306h.266a2.025,2.025,0,0,1,.337.124h.106a15.772,15.772,0,0,0,3.371.674,3.424,3.424,0,0,0,2.466-.479,1.6,1.6,0,0,0,.479-1.668,1.207,1.207,0,0,0-.657-.9,5.324,5.324,0,0,0-3.549.674,4.684,4.684,0,0,0,1.278-2.963,1.242,1.242,0,0,0-1.1-.994,2.005,2.005,0,0,0-1.437.337c-1.366,1.171-1.579,4.844-1.579,5.057h0Zm1.4-.745-.266.142a6.388,6.388,0,0,1,1.082-3.957.852.852,0,0,1,.657-.248h.16a.476.476,0,0,1,.532.461A6.122,6.122,0,0,1,129.9,410.56Zm.177.639c1.562-.869,3.78-1.774,4.614-1.437a.568.568,0,0,1,.3.444,1.083,1.083,0,0,1-.284,1.065c-.639.568-2.342.532-4.631-.071Z" transform="translate(-62.36 -56.932)" fill="#6c8ddc"/>
        <path id="Path_99586" data-name="Path 99586" d="M135.726,408.4l-14.532-.9a.923.923,0,0,0-1.011.816h0l-1.42,11.445a2.289,2.289,0,0,0,2.112,2.431c5.075.231,7.506.089,13.894.444a119.811,119.811,0,0,0,17.07.532c5.323-.515,4.738-5.856,2.413-6.1-5.554-.639-12.882-4.7-16.36-7.79A3.549,3.549,0,0,0,135.726,408.4Z" transform="translate(-69.889 -55.585)" fill="#263238"/>
        <path id="Path_99587" data-name="Path 99587" d="M169.172,413.215c-8.872-5.589-19.181-12.172-29.331-18.685,2.182-21.435,1.987-39.179-4.294-40.545-3.939-.869-13.184-.852-25.037-.568V309.27c33.235,6.832,66.31,19.7,68.83,30.023C182.853,353.826,176.713,384.594,169.172,413.215Z" transform="translate(-76.276 -131.646)" opacity="0.2"/>
        <path id="Path_99588" data-name="Path 99588" d="M162.81,422.159l12.971.231,6.459-29.9-12.953-.231Z" transform="translate(-35.774 -67.377)" fill="#ebb376"/>
        <path id="Path_99589" data-name="Path 99589" d="M168.017,392.26l12.953.248L177.279,409.6l-12.829-.852Z" transform="translate(-34.504 -67.377)" opacity="0.2"/>
        <path id="Path_99590" data-name="Path 99590" d="M171.16,319.012l2.094-16.751L105.524,291.1S83.362,335,94.2,356.576c9.954,19.732,115.816,7.967,132.105,11.534s-8.872,113.225-8.872,113.225l23.671,1.774s36.553-98.658,29.047-129.692C266.819,339.843,211.013,321.9,171.16,319.012Z" transform="translate(-91.217 -145.717)" fill="#6c8ddc"/>
        <path id="Path_99591" data-name="Path 99591" d="M160.9,404.017l28.178,1.881,4.152-12.19-31.052-1.437Z" transform="translate(-37.253 -67.369)" fill="#6c8ddc"/>
        <path id="Path_99592" data-name="Path 99592" d="M160.9,404.017l28.178,1.881,4.152-12.19-31.052-1.437Z" transform="translate(-37.253 -67.369)" fill="#fff" opacity="0.2"/>
        <path id="Path_99593" data-name="Path 99593" d="M171.228,411.306h.266a2.024,2.024,0,0,1,.337.124h.106a15.776,15.776,0,0,0,3.371.674,3.424,3.424,0,0,0,2.466-.479,1.6,1.6,0,0,0,.479-1.668,1.207,1.207,0,0,0-.657-.9,5.324,5.324,0,0,0-3.549.674,4.684,4.684,0,0,0,1.278-2.963,1.242,1.242,0,0,0-1.1-.994,2.005,2.005,0,0,0-1.437.337c-1.366,1.171-1.579,4.844-1.579,5.057h0Zm1.4-.745-.266.142a6.388,6.388,0,0,1,1.082-3.957.852.852,0,0,1,.657-.248h.16a.476.476,0,0,1,.532.461,6.032,6.032,0,0,1-2.182,3.6Zm.177.639c1.561-.869,3.779-1.774,4.613-1.437a.568.568,0,0,1,.3.444,1.082,1.082,0,0,1-.284,1.065c-.639.568-2.342.532-4.631-.071Z" transform="translate(-29.269 -56.932)" fill="#6c8ddc"/>
        <path id="Path_99594" data-name="Path 99594" d="M178.456,408.4l-14.532-.9a.923.923,0,0,0-1.011.816h0l-1.42,11.445a2.289,2.289,0,0,0,2.112,2.431c5.075.231,7.506.089,13.894.444a119.809,119.809,0,0,0,17.07.532c5.412-.515,4.755-5.856,2.413-6.1-5.554-.639-12.882-4.7-16.36-7.79A3.549,3.549,0,0,0,178.456,408.4Z" transform="translate(-36.798 -55.585)" fill="#263238"/>
        <path id="Path_99595" data-name="Path 99595" d="M97.88,297.623l31.372,4.117,1.029-4.631L98.838,292.53Z" transform="translate(-86.057 -144.61)"/>
        <path id="Path_99596" data-name="Path 99596" d="M117.78,295.13l-.39,4.6,29.012,3.992v-4.56Z" transform="translate(-70.948 -142.596)"/>
        <path id="Path_99597" data-name="Path 99597" d="M134.75,297.55v4.294l4.223.55v-4.152Z" transform="translate(-57.504 -140.722)"/>
        <path id="Path_99598" data-name="Path 99598" d="M149.455,258.7c-1.278,4.046-2.449,8-3.549,11.818q-1.349,4.809-2.52,9.333c-2.183-11.889,1.774-26.084,1.774-26.084Z" transform="translate(-51.324 -174.626)" opacity="0.2"/>
        <path id="Path_99599" data-name="Path 99599" d="M154.511,245c5.66,1.153,7.524,45.141,7.772,49.826s27.787,13.787,27.787,13.787v6.406s-29.526-2.058-36.429-4.88S145,266.577,145,266.577Z" transform="translate(-49.566 -181.418)" fill="#e4897b"/>
        <path id="Path_99600" data-name="Path 99600" d="M155.853,245c5.2,1.615,7.772,30.626,7.772,30.626l-16.076,6.636-3.992-16.129s-1.136-3.283,1.1-10.2C147.9,245.834,155.853,245,155.853,245Z" transform="translate(-50.908 -181.418)" fill="#263238"/>
      </g>
      <path id="Path_99601" data-name="Path 99601" d="M88.906,326.52H217.054a14.036,14.036,0,0,1,14.036,14.036v7.506H74.87v-7.506A14.036,14.036,0,0,1,88.906,326.52Z" transform="translate(-32.796 -118.287)" fill="#6c8ddc"/>
      <path id="Path_99602" data-name="Path 99602" d="M106.27,296.45h86.041a6.885,6.885,0,0,1,6.707,8.446l-15.384,66.452h-3.549l13.1-58.236a6.867,6.867,0,0,0-6.707-8.393H108.027Z" transform="translate(-8.479 -141.574)" fill="#263238"/>
      <path id="Path_99603" data-name="Path 99603" d="M133.513,340v56.16a3.265,3.265,0,0,1-3.265,3.265H116.425a3.265,3.265,0,0,1-3.265-3.265V340Z" transform="translate(-3.144 -107.848)" fill="#263238"/>
      <path id="Path_99604" data-name="Path 99604" d="M86.994,415.662a5.962,5.962,0,1,0-5.962,5.962A5.962,5.962,0,0,0,86.994,415.662Z" transform="translate(-32.641 -53.871)" fill="#263238"/>
      <path id="Path_99605" data-name="Path 99605" d="M82.712,414.361a2.981,2.981,0,1,0-2.981,2.981,2.981,2.981,0,0,0,2.981-2.981Z" transform="translate(-31.34 -52.57)" fill="#fff" opacity="0.2"/>
      <path id="Path_99606" data-name="Path 99606" d="M167.96,415.678A5.98,5.98,0,1,0,162,421.64a5.98,5.98,0,0,0,5.962-5.962Z" transform="translate(30.032 -53.887)" fill="#263238"/>
      <path id="Path_99607" data-name="Path 99607" d="M163.662,414.361a2.981,2.981,0,1,0-2.981,2.981,2.981,2.981,0,0,0,2.981-2.981Z" transform="translate(31.349 -52.57)" fill="#fff" opacity="0.2"/>
      <path id="Path_99608" data-name="Path 99608" d="M155.375,426.318v-64.2H145.51v64.2c-38.434.994-61.8,14.426-66.47,17.372a1.774,1.774,0,0,0-.869,1.6v5.323a1.881,1.881,0,0,0,1.881,1.9h0a1.9,1.9,0,0,0,1.632-.958l2.289-4.01a216.341,216.341,0,0,1,61.537-10.185V448a2.431,2.431,0,0,0,2.449,2.431h4.986A2.431,2.431,0,0,0,155.375,448V437.355A216.371,216.371,0,0,1,216.93,447.54l2.271,4.01a1.9,1.9,0,0,0,1.65.958h0a1.9,1.9,0,0,0,1.881-1.9v-5.323a1.775,1.775,0,0,0-.869-1.6C217.178,440.744,193.827,427.312,155.375,426.318Z" transform="translate(-30.241 -90.718)" fill="#263238"/>
      <rect id="Rectangle_20806" data-name="Rectangle 20806" width="6.477" height="11.942" transform="translate(116.972 355.811)" fill="#263238"/>
      <rect id="Rectangle_20807" data-name="Rectangle 20807" width="20.299" height="23.334" transform="translate(110.07 232.099)" opacity="0.2"/>
      <path id="Path_99609" data-name="Path 99609" d="M237.27,338.2v6.707a3.425,3.425,0,0,1-3.442,3.425H75.9a3.407,3.407,0,0,1-3.425-3.425V338.2A3.425,3.425,0,0,1,75.9,334.78H233.828a3.442,3.442,0,0,1,3.442,3.425Z" transform="translate(-34.647 -111.89)" fill="#263238"/>
      <path id="Path_99610" data-name="Path 99610" d="M177.37,417.511H85.225S56,368.821,56,288.369V258.825A22,22,0,0,1,78,236.84H117.04a21.985,21.985,0,0,1,21.985,21.293C140.143,299.654,146.247,389.422,177.37,417.511Z" transform="translate(-47.409 -187.737)" fill="#263238"/>
      <path id="Path_99611" data-name="Path 99611" d="M157.142,417.511H89.377a6.956,6.956,0,0,1-6.21-3.762C76.494,400.9,56,355.779,56,288.369V258.825A21.985,21.985,0,0,1,77.985,236.84H111.7a21.985,21.985,0,0,1,21.985,21.293c1.011,37.032,5.98,112.64,29.225,148.359a7.1,7.1,0,0,1-5.767,11.019Z" transform="translate(-47.409 -187.737)" fill="#fff" opacity="0.2"/>
      <path id="Path_99612" data-name="Path 99612" d="M199.757,338.2v6.707a3.425,3.425,0,0,1-3.425,3.425H125.551a4.614,4.614,0,0,1-4.631-4.613v-4.312a4.631,4.631,0,0,1,4.631-4.631h70.764a3.442,3.442,0,0,1,3.442,3.425Z" transform="translate(2.866 -111.89)" opacity="0.2"/>
      <path id="Path_99613" data-name="Path 99613" d="M72.45,238.715l5.856-7.665s25,1.136,25.6,10.274S72.45,238.715,72.45,238.715Z" transform="translate(-34.67 -192.221)" fill="#6c8ddc"/>
      <path id="Path_99614" data-name="Path 99614" d="M70,248.3s1.526,40.634,0,145.5c0,3.549-13.237,3.407-14.2,0-3.176-11.942,0-107.3,0-107.3" transform="translate(-48.653 -178.862)" fill="#6c8ddc"/>
      <path id="Path_99615" data-name="Path 99615" d="M55.36,330.6l13.468.461v6.725l-13.468-.692Z" transform="translate(-47.905 -115.128)" fill="#6c8ddc"/>
      <path id="Path_99616" data-name="Path 99616" d="M70,248.3s1.526,40.634,0,145.5c0,3.549-13.237,3.407-14.2,0-3.176-11.942,0-107.3,0-107.3" transform="translate(-48.653 -178.862)" fill="#fff" opacity="0.2"/>
      <path id="Path_99617" data-name="Path 99617" d="M51.96,384.107c-.728-19.341-3.371-108.239,7.736-137.695,0,0,10.451-13.273,45.815-13.273s46.011,25.108,46.011,25.108,1.526,40.616,0,145.5c0,3.549-13.237,3.425-14.2,0-3.176-11.924,0-107.3,0-107.3l-7.1,86.769a2.147,2.147,0,0,1-2.449,1.934c-11.161-1.774-60.33-8.677-73.337.2a1.615,1.615,0,0,1-2.484-1.242Z" transform="translate(-51.159 -190.602)" fill="#6c8ddc"/>
      <path id="Path_99618" data-name="Path 99618" d="M99.89,329.59l13.468.461v6.725l-13.468-.692Z" transform="translate(-13.42 -115.91)" fill="#6c8ddc"/>
      <path id="Path_99619" data-name="Path 99619" d="M127.392,321.312l-1.065,7.1s-54.883-11.96-72.662.781L52.6,321.33S66.334,308.66,127.392,321.312Z" transform="translate(-50.042 -126.671)" fill="#6c8ddc"/>
      <path id="Path_99620" data-name="Path 99620" d="M51.96,384.107c-.728-19.341-3.371-108.239,7.736-137.695,0,0,10.451-13.273,45.815-13.273s46.011,25.108,46.011,25.108,1.526,40.616,0,145.5c0,3.549-13.237,3.425-14.2,0-3.176-11.924,0-107.3,0-107.3l-7.1,86.769a2.147,2.147,0,0,1-2.449,1.934c-11.161-1.774-60.33-8.677-73.337.2a1.615,1.615,0,0,1-2.484-1.242Z" transform="translate(-51.159 -190.602)" fill="#fff" opacity="0.4"/>
      <path id="Path_99621" data-name="Path 99621" d="M99.867,285.493s.781-27.539,14.2-38.2C114.01,247.29,97.295,254.476,99.867,285.493Z" transform="translate(-13.646 -179.644)" opacity="0.2"/>
      <path id="Path_99622" data-name="Path 99622" d="M85.622,234.93S69.475,243.8,66.9,364.693C66.9,364.693,59.876,242.737,85.622,234.93Z" transform="translate(-39.645 -189.216)" opacity="0.2"/>
    </g>
  </g>
</svg>
