<svg xmlns="http://www.w3.org/2000/svg" width="3503.589" height="3376.227" viewBox="0 0 3503.589 3376.227">
  <g id="_33651940_a_girl_stands_next_to_a_huge_phone_payment_info_on_screen" data-name="33651940_a_girl_stands_next_to_a_huge_phone_payment_info_on_screen" transform="translate(-107.785 319.094)">
    <g id="bg_elements">
      <ellipse id="Ellipse_1" data-name="Ellipse 1" cx="1252.82" cy="1247.49" rx="1252.82" ry="1247.49" transform="matrix(0.435, -0.9, 0.9, 0.435, 274.438, 1936.484)" fill="#ffc8d2"/>
      <ellipse id="Ellipse_2" data-name="Ellipse 2" cx="148.886" cy="148.252" rx="148.886" ry="148.252" transform="matrix(0.435, -0.9, 0.9, 0.435, 193.207, 312.762)" fill="#ffc8d2"/>
      <ellipse id="Ellipse_3" data-name="Ellipse 3" cx="74.443" cy="74.126" rx="74.443" ry="74.126" transform="matrix(0.435, -0.9, 0.9, 0.435, 107.785, 2308.805)" fill="#ffc8d2"/>
      <ellipse id="Ellipse_4" data-name="Ellipse 4" cx="74.443" cy="74.126" rx="74.443" ry="74.126" transform="matrix(0.435, -0.9, 0.9, 0.435, 2972.472, 2628.466)" fill="#ffc8d2"/>
      <g id="Group_44" data-name="Group 44">
        <path id="Path_39" data-name="Path 39" d="M2910.2,1938.86a1113.323,1113.323,0,0,1-92.414,133.274,1079.932,1079.932,0,0,1-240.779,220.02c-95.394,63.656-201.451,112.3-315.227,144.582a22.969,22.969,0,0,1-12.54-44.194c417.2-118.375,711.243-465.241,767.382-905.238,55.669-436.322-141.551-843.272-514.7-1062.04a22.97,22.97,0,0,1-8.2-31.432l.041-.069a22.969,22.969,0,0,1,31.392-8.129c102.435,60.056,193.076,133.718,269.4,218.942a1070.563,1070.563,0,0,1,177.374,271.831c86.285,189.953,117.493,403.209,90.254,616.712a1176.517,1176.517,0,0,1-81.657,305.468A1142.386,1142.386,0,0,1,2910.2,1938.86Z" fill="#fff"/>
      </g>
      <g id="Group_45" data-name="Group 45">
        <path id="Path_40" data-name="Path 40" d="M2818.95,1865.14a1041.322,1041.322,0,0,1-160.524,207.076,998.722,998.722,0,0,1-225.245,169.314,955.529,955.529,0,0,1-271.01,99.19c-99.492,20.055-202.688,24.235-306.722,12.422a8.613,8.613,0,0,1,1.944-17.117c384.816,43.692,745.764-139.558,946.37-479.035,3.159-5.346,6.25-10.682,9.329-16.1,196.984-346.907,171.643-756.309-66.134-1068.44a8.614,8.614,0,0,1,13.7-10.44c63.711,83.634,113.178,174.427,147.028,269.854a947.144,947.144,0,0,1,53.84,282.069c6.8,184.56-39.344,369.72-133.458,535.463Q2823.584,1857.309,2818.95,1865.14Z" fill="#fff"/>
      </g>
      <g id="Group_46" data-name="Group 46">
        <path id="Path_41" data-name="Path 41" d="M1682.02,2723.72c-518.336-66.04-951.958-434.689-1118.36-927.875C412.511,1350.853,498.6,848.885,790.8,480.865c7.054-9.032,10.25-12.572,16.811-20.714,8.092-10.27,17.527-20.625,25.863-30.5,9.869-11.5,17.614-19.5,26.724-29.7,16.41-17.759,33.964-35.3,51.186-52.277,16.385-15.527,36.785-34.461,53.88-49.319l10.125-8.58,10.135-8.556,5.065-4.275c17.417-14.177,39.311-31.409,57.438-44.812,17.084-12.432,36.68-26.232,54.216-37.826,21.809-14.466,44.7-28.5,67.291-41.678-12.9,9.814-29.732,21.9-42,31.769-6.389,4.955-14.6,11.293-20.658,16.252-26.876,21.627-54.236,45.147-79.539,68.386-485.493,444.285-615.947,1168.9-294.443,1746.5,201.849,364.71,544.487,613.83,949.127,708.19Z" fill="#ffc8d2"/>
      </g>
      <g id="Group_47" data-name="Group 47">
        <path id="Path_42" data-name="Path 42" d="M3182.33,1724.05c-39.06,683.3-763.265,1114.69-1402.47,1030.53-90.763-11.24-180.528-31.78-266.194-63.378,88.839,17.076,178.575,27.7,268.725,30.161C2409.43,2742.58,3052.75,2367.34,3182.33,1724.05Z" fill="#ffc8d2"/>
      </g>
      <g id="Group_48" data-name="Group 48">
        <path id="Path_43" data-name="Path 43" d="M2567.58,569.926a22.978,22.978,0,0,1-39.522.016l-97.947-165.057a22.97,22.97,0,0,1,20.494-34.679l184.152,5.934a22.969,22.969,0,1,1-1.479,45.915L2491,417.47,2567.566,546.5A23.01,23.01,0,0,1,2567.58,569.926Z" fill="#fff"/>
      </g>
      <ellipse id="Ellipse_5" data-name="Ellipse 5" cx="1459.55" cy="105.033" rx="1459.55" ry="105.033" transform="translate(206.99 2847.067)" fill="#ffc8d2"/>
    </g>
    <g id="girl_body">
      <path id="Path_44" data-name="Path 44" d="M2039.03,1714.94q-15.885-16.665-32.55-32.52a1005.561,1005.561,0,0,0-95.07-79.86c-64.77-48.03-135.15-88.67-208.66-121.88-21.86-9.88-25.12-21.51-27.15-33.4-16.75-97.93-26.95-199.63-1.72-295.73s92.17-186.32,187.21-215.26c15.52-4.73,31.71-7.79,47.91-7.04,26.48,1.23,51.72,12.66,73.03,28.42,68.43,50.63,95.38,139.77,108.23,223.91A1100.072,1100.072,0,0,1,2039.03,1714.94Z" fill="#ff385c"/>
      <path id="Path_45" data-name="Path 45" d="M2042.2,1470.1c-.77,49.46-2.42,99.2-12.27,147.68-4.59,22.58-11.14,45.22-23.45,64.63a1005.561,1005.561,0,0,0-95.07-79.86,390.451,390.451,0,0,1,16.12-65.14c9.93-29.08,23.45-57.74,24.53-88.45,1.24-35.62-14.5-69.68-33.47-99.86s-41.59-58.25-56.72-90.53c-1.75-3.74-4.5-8.19-8.6-7.7-3.51.42-5.38,4.28-6.57,7.62a620.9,620.9,0,0,0-36.2,226.21c-48.98-103.49-92.46-172.47-87.73-247.94,2.76-43.98,22.05-85.41,46.04-122.37,16.81-25.91,37.1-51.06,64.98-64.33,42.61-20.29,98.78-5.78,126.23,32.6,10.07,14.07,16.35,30.43,22.53,46.58,17.76,46.43,35.59,93.08,46.07,141.67C2042.69,1336.11,2043.25,1403.41,2042.2,1470.1Z" fill="#c53650"/>
      <path id="Path_46" data-name="Path 46" d="M2099.98,809.741c21.153-16.162,50.547-15.39,76.786-10.9,9.487,1.622,19.3,3.624,28.612,1.2,12.17-3.166,23.041-13.7,35.375-11.252,4.784.949,9.156,3.848,14.032,3.929,9.3.154,15.376-9.413,19.371-17.809,3.763-7.909,7.434-16.065,8.333-24.777,1.71-16.557-6.791-32.458-16.772-45.779a115.244,115.244,0,0,0-18.425-19.946c-15.761-13.045-36.3-19.9-56.762-19.983s-40.747,6.443-57.925,17.557c-6.5,4.2-12.672,9.154-17.01,15.561-10.034,14.818-8.57,34.279-7.026,52.108S2110.82,787.181,2099.98,809.741Z" fill="#4d090b"/>
      <path id="Path_47" data-name="Path 47" d="M2210.59,962.715c-.24,19.56-6,39.8-19.69,53.76-12.2,12.44-29.31,18.68-46.14,23.2a331.292,331.292,0,0,1-185.22-4.31c-11.29-3.6-23.9-9.41-26.75-20.91-1.34-5.37-.19-11.03,1.25-16.38,8.58-31.86,27.32-59.71,43.94-88.42,10.36-17.88,19.89-36.1,25.63-55.84,8.04-27.59,8.26-56.77,8.42-85.5,58.7-50.74,116.79-76.69,176.77-81.46,5.52-.43,11.86-.39,15.59,3.71,4.92,5.42,2.15,13.98-.87,20.64q-7.935,17.5-15.86,35.01c-5.13,11.32-10.33,22.89-11.78,35.22-.05.39-.09.79-.13,1.19-1.27,13.16,1.93,26.31,5.1,39.15q10.275,41.58,20.56,83.16C2206.1,923.915,2210.83,943.155,2210.59,962.715Z" fill="#ff8e68"/>
      <path id="Path_48" data-name="Path 48" d="M2203.53,711.205q-7.935,17.5-15.86,35.01c-5.13,11.32-10.33,22.89-11.78,35.22-24.92,27.95-61.6,46.27-142.43,55.51-4.55.52-9.52,1.19-12.63,4.55-3.04,3.29-3.38,8.18-3.4,12.66-.17,34.62,30.55,58.95,48.57,88.51-25.68-.33-60.07-2.78-72.41-15.78-5.31-5.6-10.54-11.34-15.6-17.23,10.36-17.88,19.89-36.1,25.63-55.84,8.04-27.59,8.26-56.77,8.42-85.5,58.7-50.74,116.79-76.69,176.77-81.46,5.52-.43,11.86-.39,15.59,3.71C2209.32,695.985,2206.55,704.545,2203.53,711.205Z" fill="#f15d27"/>
      <path id="Path_49" data-name="Path 49" d="M2569.34,657.505a346.037,346.037,0,0,0-26.92,107.45q-1.08,12.6-1.22,25.25c-.05,3.62-.03,7.23.04,10.85-9.52,1.4-18.71,2.2-27.66,2.96-7.51.64-14.84,1.25-22.07,2.17-3.35.41-6.69.9-10,1.49a2.547,2.547,0,0,1-3.62-2.96v-.3a304.071,304.071,0,0,1,1.64-37.56c.13-1.28.28-2.57.43-3.85.82-6.89,1.86-14-.02-20.68-1.68-5.97-5.54-11.04-8.31-16.58a49.009,49.009,0,0,1-2.74-36.69,61.643,61.643,0,0,0-3.08-29.37,3.487,3.487,0,0,0-1.38-1.74c-7.02-4.47-13.86-13.35-4.81-21.37,4.21-3.73,9.24-4.62,14.93-4.42a.564.564,0,0,0,.53-.82c-2.23-4.63-1.11-14.28,6.17-15.14h.01a10.557,10.557,0,0,1,3.56.22.455.455,0,0,0,.56-.41c.01-.23.03-.52.06-.86.25-2.9,1.45-9.46,6.96-11.8,3.67-1.56,8.08,1.49,10.12,3.19a.708.708,0,0,0,.86.04.762.762,0,0,0,.32-.5,8.887,8.887,0,0,1,1.11-2.93c1.37-2.39,3.76-4.48,6.01-4.63,8.28-.54,38.51,26.19,54.34,40.23,2.78,2.47,5.69,5.24,6.35,8.89C2572.13,650.995,2570.7,654.365,2569.34,657.505Z" fill="#ff8e68"/>
      <g id="Group_49" data-name="Group 49">
        <path id="Path_50" data-name="Path 50" d="M2488.4,729.087a1.5,1.5,0,0,1-1.44-1.084,31.265,31.265,0,0,1,6.2-28.385,59.622,59.622,0,0,1,4.2-4.265,54.471,54.471,0,0,0,4.118-4.2c1.6-1.885,4.2-5.645,3.646-9.642a1.5,1.5,0,1,1,2.972-.41c.527,3.818-1.011,8.077-4.33,11.993a57.45,57.45,0,0,1-4.341,4.433,56.161,56.161,0,0,0-3.988,4.047,28.189,28.189,0,0,0-5.586,25.6,1.5,1.5,0,0,1-1.025,1.857A1.482,1.482,0,0,1,2488.4,729.087Z" fill="#f15d27"/>
      </g>
      <g id="Group_50" data-name="Group 50">
        <path id="Path_51" data-name="Path 51" d="M2467.35,660.152A1.5,1.5,0,0,1,2467,657.2a30.081,30.081,0,0,0,13.1-6.986,1.5,1.5,0,0,1,2.023,2.215,33.068,33.068,0,0,1-14.414,7.686A1.534,1.534,0,0,1,2467.35,660.152Z" fill="#f15d27"/>
      </g>
      <g id="Group_51" data-name="Group 51">
        <path id="Path_52" data-name="Path 52" d="M2471.32,690.044a1.5,1.5,0,0,1-1.422-1.979,38.581,38.581,0,0,1,12.013-17.456,1.5,1.5,0,0,1,1.91,2.314,36.079,36.079,0,0,0-11.079,16.1A1.5,1.5,0,0,1,2471.32,690.044Z" fill="#f15d27"/>
      </g>
      <g id="Group_52" data-name="Group 52">
        <path id="Path_53" data-name="Path 53" d="M2480.56,643.653a1.5,1.5,0,0,1-1.384-.919l-4.058-9.643a1.5,1.5,0,0,1,2.766-1.163l4.058,9.644a1.5,1.5,0,0,1-1.382,2.081Z" fill="#f15d27"/>
      </g>
      <path id="Path_54" data-name="Path 54" d="M2524.1,631.585c-13.1-3.618-30.06-10.76-42.84-15.39a10.557,10.557,0,0,1,3.56.22.455.455,0,0,0,.56-.41c.01-.23.03-.52.06-.86C2494.03,618.675,2529.84,633.169,2524.1,631.585Z" fill="#f15d27"/>
      <path id="Path_55" data-name="Path 55" d="M2534.61,626.1c-11.79-6.17-20.7-13.1-31.23-19.53a.762.762,0,0,0,.32-.5,8.887,8.887,0,0,1,1.11-2.93c.03.02.05.04.08.06l30.1,22.31A.352.352,0,0,1,2534.61,626.1Z" fill="#f15d27"/>
      <path id="Path_56" data-name="Path 56" d="M2507.74,667.722a.687.687,0,0,1-1.056.306c-2.271-1.671-4.678-3.275-7.447-3.688-1.1-.163-2.51-.641-2.838-1.355-.823-1.788.526-8.658,1.287-7.766.853,1,2.017,3.9,2.921,4.85,1.743,1.843,4.557,2.1,6.774,3.333a1.9,1.9,0,0,1,.985,1,2.115,2.115,0,0,1-.042,1.032A19.453,19.453,0,0,1,2507.74,667.722Z" fill="#f15d27"/>
      <path id="Path_57" data-name="Path 57" d="M2510.21,673.888c2.839-2.626-4.839,3.079-7.867,4.953a3.883,3.883,0,0,1-1.391.621,3.819,3.819,0,0,1-1.743-.266,72.749,72.749,0,0,1-11.247-4.734,7.256,7.256,0,0,1-3.873-5.922c-.626-8.679-.626-20.874-.59-26.274a6.137,6.137,0,0,1,2.925-5.281,3.626,3.626,0,0,1,1.17-.474c2.028-.353,24.166,4.489,37.916,6.235,7,.89-22.508-6.118-33.043-7.456a21.56,21.56,0,0,0-6.121-.154,7.937,7.937,0,0,0-5.228,2.918c-1.549,2.133-1.515,4.989-1.418,7.623.3,8.155.7,17.919.933,23.584a7.762,7.762,0,0,0,4.482,6.722c3.977,1.852,10.093,4.468,13.066,5.729a3.178,3.178,0,0,0,3.235-.447C2503.72,679.422,2507.14,676.726,2510.21,673.888Z" fill="#f15d27"/>
      <path id="Path_58" data-name="Path 58" d="M2542.43,764.955q-1.08,12.6-1.22,25.25a40.113,40.113,0,0,1-11.71,8.11,77.406,77.406,0,0,1-15.91,5.7c-7.51.64-14.84,1.25-22.07,2.17a76.278,76.278,0,0,1-13.62-1.77,304.071,304.071,0,0,1,1.64-37.56C2490.82,773.4,2518.7,778.575,2542.43,764.955Z" fill="#f15d27"/>
      <path id="Path_59" data-name="Path 59" d="M2122.36,472.458c-56.649-12.707-150.533,1.819-159.621,75a.862.862,0,0,0,1.632.483c8.329-17.213,21.16-34.037,32.386-37.2a1.914,1.914,0,0,1,1.983,3.091c-20.07,23.5-12.424,64.289-34.14,87.28-7.473,7.912-17.609,12.7-26.176,19.411a72.223,72.223,0,0,0-25.436,39.828.846.846,0,0,0,1.538.65c11.894-18.53,34.858-29.512,56.75-27.019a2.026,2.026,0,0,1,1.3,3.366c-22.046,24.922-24.421,65.491-4.846,92.549,16.832,23.267,47.469,37.5,54.451,65.354,10.63-18.057,28.954-30.651,39.29-48.877,9.615-16.956,11.408-37.133,12.119-56.612.978-26.8.341-53.948,6.488-80.058s20.244-51.744,43.662-64.825c10.117-5.652,21.555-8.754,31.362-14.928s18.17-16.91,16.553-28.385c-1.63-11.562-13.192-19.758-24.8-21.053C2140.25,479.773,2134.54,475.19,2122.36,472.458Z" fill="#5f1013"/>
      <path id="Path_60" data-name="Path 60" d="M2313.58,1424.66c-1.16,2.33-3.51,3.81-5.76,5.13a284.293,284.293,0,0,1-28.58,14.69c-39.67,17.67-83.18,26.72-126.61,30.29-54.14,4.45-108.58.76-162.77-2.93-3.57-.24-7.31-.54-10.33-2.45-5.2-3.29-6.59-10.1-7.71-16.15a308.368,308.368,0,0,0-44.04-110.96c-10.63-16.47-22.82-31.89-33.31-48.46a276.506,276.506,0,0,1-37.72-96.71c-9.95-52.96-4.95-108.76,16.01-158.42,9.49-22.49,21.96-43.58,34.38-64.6q22.74-38.46,45.48-76.93c9.29-15.71,21.2-37.12,29.22-59.72a10.285,10.285,0,0,1,19.47.2,290.867,290.867,0,0,0,10.55,27.62c38.97,87.44,95.25,70.15,141.94,43.53,15.69-8.95,30.3-18.96,42.8-26.4q2.34-1.395,4.59-2.66a10.281,10.281,0,0,1,14.54,5.05c24.98,60.65,28.36,128.15,36.66,193.49,14.44,113.66,44.87,224.75,61.66,338.09C2314.47,1419.15,2314.84,1422.14,2313.58,1424.66Z" fill="#ffeccf"/>
      <g id="Group_53" data-name="Group 53">
        <path id="Path_61" data-name="Path 61" d="M2090.96,948.361a76.6,76.6,0,0,1-21.028-2.866c-23.988-6.813-44.625-25.889-61.339-56.7a1.5,1.5,0,0,1,2.637-1.431c16.313,30.07,36.339,48.655,59.521,55.24,23.279,6.613,50.231,1.286,80.11-15.829a1.5,1.5,0,1,1,1.49,2.6C2130.3,942.016,2109.74,948.361,2090.96,948.361Z" fill="#feba57"/>
      </g>
      <g id="Group_54" data-name="Group 54">
        <path id="Path_62" data-name="Path 62" d="M2046.19,953.073a1.494,1.494,0,0,1-.958-.347l-31.526-26.211a1.5,1.5,0,1,1,1.918-2.306l31.526,26.211a1.5,1.5,0,0,1-.96,2.653Z" fill="#feba57"/>
      </g>
      <g id="Group_55" data-name="Group 55">
        <path id="Path_63" data-name="Path 63" d="M2099.46,1251.79a89.719,89.719,0,0,1-49.943-15.3c-1.445-.979-2.88-2.014-4.269-3.014-3.688-2.658-7.5-5.407-11.657-7.195-8.593-3.7-18.623-3.327-27.47-3a1.5,1.5,0,1,1-.112-3c9.167-.338,19.553-.723,28.767,3.243a65.932,65.932,0,0,1,12.225,7.517c1.371.988,2.788,2.01,4.2,2.964a86.7,86.7,0,0,0,50.4,14.758,1.476,1.476,0,0,1,1.538,1.461,1.5,1.5,0,0,1-1.461,1.538C2100.93,1251.78,2100.2,1251.79,2099.46,1251.79Z" fill="#feba57"/>
      </g>
      <g id="Group_56" data-name="Group 56">
        <path id="Path_64" data-name="Path 64" d="M2135.82,1381.44a1.5,1.5,0,0,1-.9-.3l-125.369-93.679a1.5,1.5,0,0,1,1.8-2.4l125.369,93.679a1.5,1.5,0,0,1-.9,2.7Z" fill="#feba57"/>
      </g>
      <g id="Group_57" data-name="Group 57">
        <path id="Path_65" data-name="Path 65" d="M2120.64,1362.32a1.488,1.488,0,0,1-.919-.316c-19.889-15.458-40.358-30.742-60.842-45.426a1.5,1.5,0,0,1,1.748-2.438c20.515,14.706,41.016,30.013,60.935,45.5a1.5,1.5,0,0,1-.922,2.684Z" fill="#feba57"/>
      </g>
      <g id="Group_58" data-name="Group 58">
        <path id="Path_66" data-name="Path 66" d="M2002.78,1354.46a1.5,1.5,0,0,1-1.237-.65,504.081,504.081,0,0,0-70.058-81.6,1.5,1.5,0,1,1,2.055-2.187,507.141,507.141,0,0,1,70.475,82.088,1.5,1.5,0,0,1-.386,2.086A1.452,1.452,0,0,1,2002.78,1354.46Z" fill="#feba57"/>
      </g>
      <g id="Group_59" data-name="Group 59">
        <path id="Path_67" data-name="Path 67" d="M1958.4,1028.7a1.5,1.5,0,0,1-1.195-2.4,254.387,254.387,0,0,0,36.862-68.474,1.5,1.5,0,1,1,2.828,1,257.411,257.411,0,0,1-37.3,69.281A1.523,1.523,0,0,1,1958.4,1028.7Z" fill="#feba57"/>
      </g>
      <path id="Path_68" data-name="Path 68" d="M2279.25,1444.47c-39.67,17.67-83.18,26.72-126.61,30.29-54.14,4.45-108.58.76-162.77-2.93-3.57-.24-7.31-.54-10.33-2.45-5.2-3.29-6.59-10.1-7.71-16.15a306.957,306.957,0,0,0-15.53-54.9,90.922,90.922,0,0,1,13.76,4.73c30.66,12.4,62.73,23.8,95.81,22.96s67.65-16.38,82.59-45.9c7.06-13.96,9.28-29.91,9.38-45.56.17-26.45-5.39-52.67-5.57-79.12-.18-26.63,5.09-53.27,2.41-79.76-1.36-13.48-4.76-26.67-6.48-40.11-4.36-34.22,2.34-68.78,9.02-102.64,21.78,18.63,20.61,42.26,30.74,60.91,3.97,7.31,9.55,13.61,13.82,20.74,3.78,6.31,6.49,13.19,9.19,20.03,7.64,19.43,15.29,38.86,22.21,58.56a853.547,853.547,0,0,1,36.76,143.07,655.559,655.559,0,0,1,9.22,92.17C2279.28,1433.76,2279.32,1439.11,2279.25,1444.47Z" fill="#ffd9a1"/>
      <path id="Path_69" data-name="Path 69" d="M2209.13,988.925c-.36,45.18,2.19,91.7-13.37,134.12-1.53,4.18-3.73,8.78-7.98,10.12-5.33,1.69-10.56-2.64-14.25-6.85-33.77-38.53-42.35-94.7-31.51-144.78,3.49-16.1,8.8-31.82,11.15-48.13a97.575,97.575,0,0,0,.64-24.62c15.69-8.95,30.3-18.96,42.8-26.4C2211.38,915.175,2209.42,952.865,2209.13,988.925Z" fill="#ffd9a1"/>
      <path id="Path_70" data-name="Path 70" d="M1969.96,1246.3a1.212,1.212,0,0,1-.969-2.164c15.12-11.018,31.335-15.685,50.574-13.794,32.713,3.216,19.869,20.833,94.714,27.8a2.257,2.257,0,0,1,.094,4.484c-23.593,2.876-51.365-5.829-67.429-14.013C2027.51,1238.71,1991.76,1241.43,1969.96,1246.3Z" fill="#ffd9a1"/>
      <path id="Path_71" data-name="Path 71" d="M2011.86,865.255c-13.67,60.09-45.417,113.315-73.29,167.37-22.34,43.326-57.66,71.93-72.22,115.61-5.26,15.8-8.07,32.21-9.6,48.87-9.95-52.96-4.95-108.76,16.01-158.42,9.49-22.49,21.96-43.58,34.38-64.6q22.74-38.46,45.48-76.93c9.29-15.71,21.2-37.12,29.22-59.72a10.285,10.285,0,0,1,19.47.2C2004.67,847.825,2008.19,857.005,2011.86,865.255Z" fill="#ffd9a1"/>
      <path id="Path_72" data-name="Path 72" d="M2009.56,823.4c-1.58,13.36-3.88,26.86-6.81,40.38-.36,1.66-.73,3.33-1.12,4.99-11.97,52.3-33.38,104.58-59.75,149.44-18.16,30.89-55.68,79.7-89.85,125.27q-5.625,7.485-11.09,14.84c-26.44,35.55-49.18,67.55-56.73,85.32-8.99,21.15-14.09,44.42-27.94,62.76-39.74-79.1-55.2-169.2-51.41-257.64.88-20.65,2.81-41.39,8.33-61.31,5.45-19.68,14.32-38.22,23.6-56.41,11.74-23.02,24.55-46.07,42.31-64.66q4.065-4.275,8.5-8.2c16.11-14.26,36.91-29.34,56.01-39.25,21.65-11.23,66.13-24.81,80.66-29.11a10.471,10.471,0,0,0,6.16-5.01c.16-.28.33-.57.51-.88,3.97-6.45,15.78-18.89,50.58-31.19a5.7,5.7,0,0,1,2.16-.35c2.49.17,4.68,1.61,6.65,3.13C2010.6,771.135,2012.41,799.225,2009.56,823.4Z" fill="#ff385c"/>
      <path id="Path_73" data-name="Path 73" d="M2002.75,863.775c-.36,1.66-.73,3.33-1.12,4.99L1973.5,824.7a25.5,25.5,0,0,0-30.009-10.313l-.262.093a4.867,4.867,0,0,0-2.926,6.328c5.6,14.512,6.155,30.754,3.812,46.21-2.58,17.08-8.51,33.45-14.4,49.7-1.76,4.84-3.7,9.95-7.76,13.12s-10.94,3.32-13.66-1.06c-1.4,7.04-2.95,14.42-7.65,19.84-4.181,4.821-12.961-12.277-17.6-1.943a4.637,4.637,0,0,1-7.686,1.083c-4.433-4.937-8.847-13.37-10.154-20.121-1.166-6.027-10.728-4.422-12.688-10.255a.355.355,0,0,0-.692.1c-1.944,72.568,1.3,153.406.2,225.993q-5.625,7.485-11.09,14.84c-27.62-57.19-49.23-117.31-63.12-179.26-4.39-19.57-8.02-39.49-7.56-59.54.41-18.01,4.11-35.72,8.84-53.14q4.065-4.275,8.5-8.2c16.11-14.26,36.91-29.34,56.01-39.25,21.65-11.23,66.13-24.81,80.66-29.11a10.471,10.471,0,0,0,6.16-5.01c.16-.28.33-.57.51-.88q.931,10.836,1.864,21.671a5.705,5.705,0,0,0,7.487,4.915,254.341,254.341,0,0,1,25.186-6.861,3.613,3.613,0,0,1,3.747,1.495C1981.9,823.762,1992.56,843.648,2002.75,863.775Z" fill="#c53650"/>
      <g id="Group_60" data-name="Group 60">
        <path id="Path_74" data-name="Path 74" d="M1846.29,1125.39a1.5,1.5,0,0,1-1.159-2.452,791.643,791.643,0,0,0,145.906-275.029,1.5,1.5,0,1,1,2.876.852,794.654,794.654,0,0,1-146.464,276.08A1.482,1.482,0,0,1,1846.29,1125.39Z" fill="#c53650"/>
      </g>
      <g id="Group_61" data-name="Group 61">
        <path id="Path_75" data-name="Path 75" d="M1847.84,1148.42a1.5,1.5,0,0,1-1.115-2.5c21.2-23.6,128.192-148.04,152.632-280.87a1.5,1.5,0,1,1,2.95.543c-10.527,57.213-36.928,118.97-78.469,183.555a806.7,806.7,0,0,1-74.882,98.777A1.506,1.506,0,0,1,1847.84,1148.42Z" fill="#c53650"/>
      </g>
      <g id="Group_62" data-name="Group 62">
        <path id="Path_76" data-name="Path 76" d="M1968.9,803.723a1.5,1.5,0,0,1-1.487-1.71,163.145,163.145,0,0,1,14.222-47.319,1.5,1.5,0,1,1,2.709,1.288,160.18,160.18,0,0,0-13.961,46.45A1.494,1.494,0,0,1,1968.9,803.723Z" fill="#ffeccf"/>
      </g>
      <path id="Path_77" data-name="Path 77" d="M2283.15,612.125c-4.13,41.99-21.68,81.83-47.92,115a247.573,247.573,0,0,1-45.71,44.5c-.92.69-1.84,1.37-2.77,2.04-44.97,32.66-99.79,50.2-155.37,54.19a39.161,39.161,0,0,1-39.34-25.29c-16.61-43.68-17.73-93.07-7.84-139.06q1.53-7.11,3.38-14.14c12.67-48.19,36.17-93.12,63.09-135.25q1.56-2.445,3.14-4.87c6.54-10.09,24.74-17.52,41.1-23.54a177.194,177.194,0,0,1,96.88-7.15c22.47,4.69,44.47,14.14,60.76,30.3C2278.91,534.995,2286.78,575.185,2283.15,612.125Z" fill="#ff8e68"/>
      <path id="Path_78" data-name="Path 78" d="M2235.23,727.125a247.573,247.573,0,0,1-45.71,44.5,58.3,58.3,0,0,0-3.14-15.05c-7.02-18.68-21.04-42.22-48.78-46.61-21.01-3.33-21.04-47.6-20.09-65.69.55-10.52,1.74-22.27-4.94-30.4.6,16.22-4.78,31.98-8.09,47.87-4.52,21.63-5.19,44.33.47,65.68,4.85,18.28,14.57,35.52,28.6,48.09a1.087,1.087,0,0,1-1.21,1.78c-16.88-8.34-33.41-18.45-41.65-35.03-3.98-7.99-5.67-16.92-6.84-25.77a251.063,251.063,0,0,1-1.95-43.85c.58-13.23,2.04-27.29-4.19-38.98-4.47-8.36-12.31-14.32-18.27-21.69a58.417,58.417,0,0,1-9.84-53.75.939.939,0,0,0-1.42-1.07c-10.46,7.16-16.57,19.45-20.93,31.5-4.67,12.91-8.16,26.59-16.32,37.63-6.34,8.57-15.1,14.99-22.72,22.46-.21.21-.42.42-.63.62,12.67-48.19,36.17-93.12,63.09-135.25,9.92-6.57,21.17-10.48,33.06-9.75,10.34.64,20.16,4.74,29.32,9.59,46.65,24.68,80.32,69.42,100.71,118.1,6.05,14.43,11.06,29.28,16.06,44.1,3.02,8.96,6.06,18.02,6.89,27.43C2237.41,711.435,2236.55,719.335,2235.23,727.125Z" fill="#f15d27"/>
      <path id="Path_79" data-name="Path 79" d="M2057.64,589.7c4.293,21.405,29.819,30.944,35.949,51.9,5.989,20.469-4.224,47.684-.31,68.649,4.652,24.92,24.876,46.1,49.341,52.426a1.36,1.36,0,0,0,1.267-2.308c-23.643-21.793-37.069-54.362-35.386-86.5.7-13.335,3.832-26.565,3.066-39.9a69.046,69.046,0,0,0-11.681-34.495,1.313,1.313,0,0,1,1.531-1.976c10.4,3.677,17.477,14.626,19.9,25.66,2.7,12.273,1.051,25.021,1.1,37.587s2.24,26.027,10.906,35.127c8.461,8.884,21.351,11.842,31.41,18.867,15,10.478,22.139,28.623,30.439,44.932,6.661,13.089,14.684,25.743,25.684,35.474s25.306,16.342,39.983,15.837c14.726-.507,28.945-7.989,43.569-6.191,9.6,1.18,18.322,6.279,27.836,8.036,8.732,1.613,19.513-1.05,23.23-8.707a1.807,1.807,0,0,0-1.273-2.543,32.277,32.277,0,0,1-20.278-49.584c9.94-14.828,35.235-22.92,34.634-42.807-.9-29.848-48.824-22.506-40.038-74.143,5.069-29.787,19.079-65.9,10.838-94.97-12.492-44.064-53.165-32.679-67.782-53.07-6.012-8.386-22.368-79.643-123.466-47.029C2113.31,451.2,2038.4,493.741,2057.64,589.7Z" fill="#5f1013"/>
      <path id="Path_80" data-name="Path 80" d="M2141.52,550.444a1,1,0,0,0-.795,1.753A81.012,81.012,0,0,1,2168.448,613c-.037,7.244-1.039,14.684,1.134,21.595,3,9.532,11.449,16.245,19.964,21.474s17.764,9.78,24.235,17.394c13.49,15.873,11,39.73,19.357,58.811,7.548,17.232,24.725,29.724,43.317,32.131a1.4,1.4,0,0,0,.814-2.627c-9.282-4.914-18.3-10.49-24.739-18.683-18.8-23.912-5.263-69.265-31.746-84.233-22.789-12.881-34.881-27.9-40.438-47.164C2177.77,602.777,2173.53,554.6,2141.52,550.444Z" fill="#4d090b"/>
      <path id="Path_81" data-name="Path 81" d="M2268.83,523.736a.7.7,0,0,1,.63-1.228c47.68,13.521,34.861,85.3,30.19,113.1-2,11.9-1.164,25.26,6.772,34.351,9.365,10.729,26.207,12.871,34.733,24.277a25.065,25.065,0,0,1,2.991,23.658.614.614,0,0,1-1.185-.254c.442-6.25-3.275-12.9-8.276-17.117-6.423-5.418-14.6-8.226-21.756-12.635-38.407-23.678-23.572-69.748-21.327-83.4C2300.23,552.026,2278.83,531.425,2268.83,523.736Z" fill="#4d090b"/>
      <path id="Path_82" data-name="Path 82" d="M1959.58,684.622a68.965,68.965,0,0,1,30.488-46.531c5.521-3.536,11.682-6.378,15.958-11.349,4.614-5.364,6.435-12.507,8.293-19.334,5.164-18.967,12.229-38.443,26.891-51.537,16.851-15.049,41.048-19.272,58.761-33.295,6.278-4.97,11.907-11.774,12.3-19.771.22-4.426-1.194-8.775-2.986-12.828-2.685-6.072-6.746-12.151-13.03-14.3-4.832-1.648-10.135-.676-15.082.583-16.14,4.108-31.812,11.34-43.7,23-12.357,12.121-19.953,28.306-25.28,44.776s-8.632,33.536-13.88,50.032a222.425,222.425,0,0,1-29.78,60.146C1963.47,661.455,1957.69,670.37,1959.58,684.622Z" fill="#5f1013"/>
      <path id="Path_83" data-name="Path 83" d="M2110.96,2671a689.186,689.186,0,0,1-19.068,120.575c-6.095,24.316-26.48,83.936-8.754,101.662,15.327,15.326,41.61,6.146,54.288,16.643,24.638,20.4,33.081,33,61.926,46.825,6.688,3.205,13.929,6.09,21.3,5.3s14.726-6.427,14.967-13.839c.147-4.5-2.24-8.675-4.8-12.385-14.9-21.62-37.907-36.908-51.52-59.359-18.218-30.046-13.546-70.17-5.456-104.364s32.952-69.8,38.229-104.538c1.286-8.47-12.643-13.849-19.55-18.917-5.845-4.288-13.95-2.787-21-1.1C2153.59,2651.82,2135.66,2656.12,2110.96,2671Z" fill="#ff8e68"/>
      <path id="Path_84" data-name="Path 84" d="M2446.53,1687.44a388.5,388.5,0,0,1-8.94,83.58c-12.37,55.48-39.08,98.45-90.5,290.94-36.33,136-61.66,274.65-81.55,414.18-.27,1.86-.54,3.73-.8,5.59q-4.575,32.34-8.79,64.72-6.54,50.2-12.4,100.49-2.85,24.27-5.57,48.55-.87,7.59-1.71,15.18a15.245,15.245,0,0,1-10.09,12.69h-.01a14.767,14.767,0,0,1-4.47.85,353.742,353.742,0,0,1-106.62-12.57c-5.13-1.42-10.66-3.27-13.51-7.77a14.486,14.486,0,0,1-2.05-6.84,43.978,43.978,0,0,1,.28-7.52q1.29-13.05,2.69-26.09c4.56-42.53,9.89-84.99,14.13-127.53q.645-6.51,1.26-13.04c2.49-26.52,4.5-53.06,5.58-79.68,2.41-59.54.17-119.28,5.51-178.62.04-.39.07-.78.11-1.17q.8-8.73,1.81-17.45c8.32-72.66,26.15-144.18,31.35-217.16,4.4-61.77-.28-123.61-4.72-185.46-1.84-25.78-3.65-51.56-4.74-77.34-3.48-82.41.37-164.91,5.44-247.29q.69-11.325,1.42-22.63.615-9.84,1.26-19.66c.15-2.34.3-4.67.45-7.01q55.395-5.01,110.79-10.03c4-.36,8.28-.81,12.79-1.27,18.07-1.9,39.85-4.27,62.15-3.99,9.68.12,19.71.31,28.48,4.43a39.027,39.027,0,0,1,11.13,8c6.75,6.8,11.65,15.81,15.85,24.58,5.84,12.2,11.16,24.86,15.91,37.86A464.994,464.994,0,0,1,2446.53,1687.44Z" fill="#386d93"/>
      <path id="Path_85" data-name="Path 85" d="M2265.53,2476.15c-.27,1.86-.54,3.73-.8,5.59q-4.575,32.34-8.79,64.72-6.54,50.2-12.4,100.49a270.941,270.941,0,0,0-24.576-35.465,12.514,12.514,0,0,0-16.642-2.54l-2.1,1.394a24.108,24.108,0,0,1-24.61,1.46c-6.96-3.71-11.84-10.59-3.52-23.27,1.91-2.91-30.86-31.83-55.48-52.63q.645-6.51,1.26-13.04c2.49-26.52,4.5-53.06,5.58-79.68,2.41-59.54.17-119.28,5.51-178.62.04-.39.07-.78.11-1.17q.8-8.73,1.81-17.45c21.71,18.76,44.14,57.38,51.28,79.22C2202.63,2387.72,2235.82,2432.04,2265.53,2476.15Z" fill="#163a54"/>
      <path id="Path_86" data-name="Path 86" d="M2237.98,2695.5q-.87,7.59-1.71,15.18a15.245,15.245,0,0,1-10.09,12.69h-.01c-.94,0-1.88-.01-2.81-.04-12.88-.37-25.64-2.54-38.29-4.99a845.028,845.028,0,0,1-85.55-21.3,43.978,43.978,0,0,1,.28-7.52q1.29-13.05,2.69-26.09a50.482,50.482,0,0,1,9.27,2.61c12.94,5.04,24.07,13.96,36.92,19.25,9.21,3.8,19.09,5.64,28.94,7.14C2197.57,2695.47,2217.91,2697.18,2237.98,2695.5Z" fill="#163a54"/>
      <path id="Path_87" data-name="Path 87" d="M2276.88,2529.28l-20.93,17.17-54.94,45.08a15.782,15.782,0,0,1-16.45,2.2,15.555,15.555,0,0,1-5.19-3.74l-3.29-3.59-58.2-63.55-117.96-128.8c-21.31-23.27-42.69-46.61-66.73-67.05-22.87-19.45-49.06-37.45-61.07-64.96-10.94-25.04-8.16-53.65-5.18-80.81q18.78-171.03,37.57-342.06c4.37-39.83,8.75-79.7,16.34-119.04,2.61-13.54,5.6-27.09,6.11-40.87.56-15.16-1.91-30.24-2.91-45.38-2.81-42.58,17.02-82.97,25.8-124.73a112.191,112.191,0,0,1,4.27-15.88c.58-1.56,1.22-3.08,1.93-4.54.01-.03.03-.05.04-.08a38.051,38.051,0,0,1,2.34-4.14c.15-.24.31-.47.48-.7.16-.26.34-.5.52-.75v-.01c.28-.38.57-.75.86-1.12.32-.41.66-.8,1-1.18h.01a25.705,25.705,0,0,1,5.05-4.39c8.36-5.51,8.12-7.31,18.13-6.92q60.15,2.37,120.29,4.74,28.065,1.11,56.13,2.21l8.27.33a69.749,69.749,0,0,1,17,18.7h.01a93.637,93.637,0,0,1,8.07,15.96c.15.38.3.76.44,1.14a114.718,114.718,0,0,1,6.63,27.33c2.89,24.58-1.1,49.38-5.07,73.8q-10.335,63.48-20.68,126.96c-5.3,32.62-11.04,67.68-18.05,102.7v.01l-.3,1.5c-8.79,43.83-19.61,87.55-34.1,126.29q-.9,2.415-1.82,4.83c-25.79,68.28-57.54,139.24-60.8,195.07q-.315,5.085-.28,9.99a37.907,37.907,0,0,0,16.62,31.02q4.14,2.835,8.09,5.88c17.09,13.12,31.69,28.94,44.15,45.48,29.54,39.21,46.99,82.45,56.78,103.2a440.961,440.961,0,0,0,78.88,115.15l.06.06q7.17,7.56,14.7,14.76c3.3,3.15,6.82,6.58,8.37,10.75a12.291,12.291,0,0,1,.75,3.15C2289.41,2518.15,2282.84,2524.39,2276.88,2529.28Z" fill="#386d93"/>
      <path id="Path_88" data-name="Path 88" d="M2287.86,2507.3c-32.54,30.68-67.72,58.4-102.85,86.07-.15.12-.3.24-.46.36a15.555,15.555,0,0,1-5.19-3.74l-3.29-3.59c5.73-14.55,27.36-33.54,34.75-40.35a332.013,332.013,0,0,0,53.97-64.26q7.17,7.56,14.7,14.76C2282.8,2499.71,2286.32,2503.14,2287.86,2507.3Z" fill="#163a54"/>
      <path id="Path_89" data-name="Path 89" d="M2157.22,1844.82c-8.79,43.83-19.61,87.55-34.1,126.29q-.9,2.415-1.82,4.83c12.174-74.161,20.768-138.626,18.52-216.712a2.9,2.9,0,0,1,5.535-1.283C2157.62,1785.05,2164.32,1806.84,2157.22,1844.82Z" fill="#163a54"/>
      <path id="Path_90" data-name="Path 90" d="M2084.93,2217.91a96.826,96.826,0,0,0-16.64-1.65,14.073,14.073,0,0,1-13.92-13.71c-.31-13.56,2.15-23.25,6.13-31.53q-.315,5.085-.28,9.99a37.907,37.907,0,0,0,16.62,31.02Q2080.965,2214.865,2084.93,2217.91Z" fill="#163a54"/>
      <path id="Path_91" data-name="Path 91" d="M2389,1485.17c-18.06,2.05-36.16,3.57-54.28,4.76h-.01c-36.1,2.37-72.31,3.37-108.48,4.38q-20.04.555-40.05,1.12h-.01c-.64.01-1.28.03-1.92.05-8.2.23-16.41.45-24.61.58-6.36.11-12.71.16-19.06.1-21.18-.17-42.34-1.47-63.5-2.53-41.33-2.06-72.7-3.2-113.14-3.84a40.1,40.1,0,0,1-3.65-7.85.01.01,0,0,0-.01-.01,3.638,3.638,0,0,1-.15-1.7,4.4,4.4,0,0,1,.32-1.05c9.93-21.63-3.28-36.88,19.17-36.88,44.81,0,81.69,3.71,126.58,4.65l3.02.06h.05q3.75.075,7.5.13c1.89.04,3.79.07,5.69.08,2.06.04,4.12.06,6.18.08q4.83.06,9.68.08,13.26.075,26.52-.06,4.785-.045,9.57-.12,5.7-.09,11.39-.23c.16,0,.32,0,.48-.01q7.32-.18,14.62-.43c2.51-.08,5.02-.18,7.54-.28l2.72-.12c1.91-.07,3.81-.16,5.72-.25q5-.24,9.97-.51c1.77-.09,3.54-.19,5.3-.3q4.245-.255,8.47-.54,3.405-.21,6.79-.47,10.635-.765,21.23-1.75l1.61-.15c29.57-2.79,59.01-6.84,88.25-12.55,8.17-1.6,18.54-2.44,22.92,4.64,1.54,2.49,1.94,5.5,2.3,8.4q1.485,11.94,2.96,23.87c0,.01,0,.01.01.01Q2387.845,1475.845,2389,1485.17Z" fill="#386d93"/>
      <path id="Path_92" data-name="Path 92" d="M2446.53,1685.85a3,3,0,0,1-1.32,2.48c-63.92,42.8-129.03,64.73-195.51,68.39-9.96.55-22.78-9.22-22.03-25.1,3.03-64.14-7-149.24-17.71-230.13-.34-2.52-4.74-4.03-5.15-1.52-1.17,7.21-5,10.8-10.12,12.55-9.42,3.23-23.22.22-32.78,2.16-14.02,2.84-38.74,12.57-48.23,1.34-2.99-3.54-3.13-8.63-4.99-12.87-4.61-10.5-16.99-9.11-27.99-5.9-4.59,1.34-8.71,4.61-11.85,7.79-5.44,5.52-17.52,4.45-25.26,4.06-6.7-.34,10.26-14.17-27.39-14.17-22.86,0-34.46-3.71-57.27-2.06a2.938,2.938,0,0,1-2.88-4.14c.01-.03.03-.05.04-.08a38.051,38.051,0,0,1,2.34-4.14c.15-.24.31-.47.48-.7.16-.26.34-.5.52-.75v-.01c.28-.38.57-.75.86-1.12a.01.01,0,0,0-.01-.01,3.638,3.638,0,0,1-.15-1.7,5.047,5.047,0,0,0,1.16.53h.01c46.23,8.29,82.52,8.54,129.31,4.66,3.5-.29,7.21-.71,9.93-2.92,2.47-2.02,3.61-5.1,4.23-8.31.23-1.17.38-2.35.51-3.5a162.191,162.191,0,0,0,1-20.67,2.941,2.941,0,0,1,2.94-3.01h.05q3.75.075,7.5.13c1.9.03,3.8.06,5.69.08,2.06.04,4.12.06,6.18.08,3.23.04,6.45.06,9.68.08q13.26.075,26.52-.06,4.785-.045,9.57-.12,5.7-.09,11.39-.23c.16,0,.32,0,.48-.01q7.32-.18,14.62-.43c2.51-.08,5.03-.18,7.54-.28l2.72-.12c1.91-.07,3.82-.16,5.72-.25q5-.24,9.97-.51c1.77-.09,3.54-.19,5.3-.3q4.245-.255,8.47-.54,3.405-.21,6.79-.47,10.635-.765,21.23-1.75a2.946,2.946,0,0,1,2.59,1.13c1.15,1.5,2.32,2.98,3.53,4.4a94.678,94.678,0,0,0,10.17,10.25c9.1,7.95,19.54,14.47,30,20.62q9.81,5.76,19.78,11.22h.01a726.665,726.665,0,0,0,82.49,38.56,2.864,2.864,0,0,1,1.69,1.73A465.12,465.12,0,0,1,2446.53,1685.85Z" fill="#163a54"/>
      <g id="Group_63" data-name="Group 63">
        <path id="Path_93" data-name="Path 93" d="M1925.86,1631.54a1.5,1.5,0,0,1-.409-2.944c26.827-7.621,48.91-26.074,70.265-43.919,7.11-5.942,13.827-11.554,20.6-16.662,3.135-2.365,4.989-4.444,6.014-6.742a20.751,20.751,0,0,0,1.274-7.117l1.4-22.328a1.866,1.866,0,0,0-1.05-1.819,1.845,1.845,0,0,0-2.062.251c-6.374,5.452-12.742,11.5-18.9,17.341-21.657,20.554-44.051,41.808-72.847,43.813a1.5,1.5,0,1,1-.208-2.993c27.72-1.931,49.717-22.808,70.989-43,6.187-5.872,12.583-11.943,19.016-17.445a4.893,4.893,0,0,1,8.056,4.035l-1.4,22.329a23.35,23.35,0,0,1-1.528,8.151c-1.61,3.611-4.736,6.246-6.947,7.914-6.712,5.063-13.4,10.652-20.481,16.57-21.6,18.046-43.928,36.707-71.368,44.5A1.607,1.607,0,0,1,1925.86,1631.54Z" fill="#163a54"/>
      </g>
      <g id="Group_64" data-name="Group 64">
        <path id="Path_94" data-name="Path 94" d="M1951.74,1593.92a1.5,1.5,0,0,1-.239-2.981c9.774-1.591,28.615-14.479,51.691-35.361a1.5,1.5,0,1,1,2.013,2.225c-13.806,12.493-39.079,33.8-53.221,36.1A2.077,2.077,0,0,1,1951.74,1593.92Z" fill="#163a54"/>
      </g>
      <g id="Group_65" data-name="Group 65">
        <path id="Path_95" data-name="Path 95" d="M2155.75,1695.3c-7.5,0-15.573-1.566-19.694-8.277-3.461-5.637-2.448-12.862-1.708-18.139a1210.4,1210.4,0,0,0,11.45-143.509,1.5,1.5,0,0,1,3,.059,1213.654,1213.654,0,0,1-11.479,143.866c-.877,6.257-1.386,11.79,1.293,16.152,4.553,7.414,15.694,7.26,23.675,6.5,5.278-.5,9.951-1.123,13.688-3.648,3.468-2.342,5.984-7.245,4-11.084a1.5,1.5,0,1,1,2.666-1.376c2.774,5.374-.357,11.819-4.988,14.947-4.317,2.917-9.6,3.627-15.083,4.148C2160.45,1695.14,2158.13,1695.3,2155.75,1695.3Z" fill="#163a54"/>
      </g>
      <g id="Group_66" data-name="Group 66">
        <path id="Path_96" data-name="Path 96" d="M2173.71,1631.48c-.031,0-.063,0-.095,0a1.5,1.5,0,0,1-1.4-1.591c.918-14.662,1.6-29.586,2.256-44.018a1.485,1.485,0,0,1,1.566-1.43,1.5,1.5,0,0,1,1.43,1.567c-.657,14.445-1.338,29.381-2.258,44.069A1.507,1.507,0,0,1,2173.71,1631.48Z" fill="#163a54"/>
      </g>
      <g id="Group_67" data-name="Group 67">
        <path id="Path_97" data-name="Path 97" d="M2171.64,1730.39h-.049a1.5,1.5,0,0,1-1.451-1.547c.909-28.539,1.39-57.468,1.43-85.983a1.5,1.5,0,0,1,1.5-1.5h0a1.5,1.5,0,0,1,1.5,1.5c-.04,28.546-.521,57.506-1.432,86.075A1.5,1.5,0,0,1,2171.64,1730.39Z" fill="#163a54"/>
      </g>
      <g id="Group_68" data-name="Group 68">
        <path id="Path_98" data-name="Path 98" d="M2123.77,1658.06a1.558,1.558,0,0,1-.27-.024,1.5,1.5,0,0,1-1.208-1.743,510.059,510.059,0,0,0,7.846-72.983,1.5,1.5,0,1,1,3,.1,513.031,513.031,0,0,1-7.892,73.414A1.505,1.505,0,0,1,2123.77,1658.06Z" fill="#163a54"/>
      </g>
      <g id="Group_69" data-name="Group 69">
        <path id="Path_99" data-name="Path 99" d="M1994.08,1728.37a1.476,1.476,0,0,1-.511-.09c-11.615-4.212-23.625-8.567-34.544-14.963-12.419-7.272-21.516-16.146-27.038-26.372a1.5,1.5,0,0,1,2.64-1.426c5.257,9.736,13.976,18.218,25.914,25.21,10.683,6.257,22.563,10.564,34.051,14.73a1.5,1.5,0,0,1-.512,2.911Z" fill="#163a54"/>
      </g>
      <g id="Group_70" data-name="Group 70">
        <path id="Path_100" data-name="Path 100" d="M1965.79,1732.56a1.51,1.51,0,0,1-.369-.046,61.229,61.229,0,0,1-34.917-24.271,1.5,1.5,0,0,1,2.469-1.7,58.19,58.19,0,0,0,33.184,23.065,1.5,1.5,0,0,1-.367,2.955Z" fill="#163a54"/>
      </g>
      <g id="Group_71" data-name="Group 71">
        <path id="Path_101" data-name="Path 101" d="M2313.9,1764.41a1.5,1.5,0,0,1-.371-2.953,409.91,409.91,0,0,0,110.92-46.6,1.5,1.5,0,0,1,1.555,2.565,412.879,412.879,0,0,1-111.73,46.947A1.8,1.8,0,0,1,2313.9,1764.41Z" fill="#163a54"/>
      </g>
      <g id="Group_72" data-name="Group 72">
        <path id="Path_102" data-name="Path 102" d="M2218.56,1695.64a1.5,1.5,0,0,1-1.5-1.452,782.69,782.69,0,0,0-13.3-120.637,1.5,1.5,0,1,1,2.947-.559,785.7,785.7,0,0,1,13.352,121.1,1.5,1.5,0,0,1-1.451,1.547Z" fill="#163a54"/>
      </g>
      <g id="Group_73" data-name="Group 73">
        <path id="Path_103" data-name="Path 103" d="M2248.86,2270.98a148.178,148.178,0,0,1-24.76-2.459,1.5,1.5,0,0,1-.024-2.952c19.019-3.6,38.364-6.9,57.5-9.833a1.5,1.5,0,0,1,1.3,2.533C2275.32,2265.99,2266.23,2270.98,2248.86,2270.98Zm-15.45-4.09c25.64,3.225,36.579-1.344,43.831-7.44C2262.65,2261.72,2247.96,2264.22,2233.41,2266.89Z" fill="#163a54"/>
      </g>
      <g id="Group_74" data-name="Group 74">
        <path id="Path_104" data-name="Path 104" d="M2257.79,2373.26a1.493,1.493,0,0,1-1.062-.44,335.129,335.129,0,0,1-31.271-36.176,1.5,1.5,0,0,1,1.057-2.39l12.612-1.232-15.211-11.528a1.5,1.5,0,0,1,.711-2.683c11.027-1.449,22.1-3.426,32.983-5.886A379.915,379.915,0,0,0,2200,2302.642a1.5,1.5,0,0,1,.3-2.985,383.015,383.015,0,0,1,63.865,11.918,1.5,1.5,0,0,1-.045,2.9c-11.671,2.842-23.6,5.131-35.5,6.816l15.376,11.653a1.5,1.5,0,0,1-.761,2.689l-13.769,1.345a332.222,332.222,0,0,0,29.386,33.721,1.5,1.5,0,0,1-1.06,2.558Z" fill="#163a54"/>
      </g>
      <g id="Group_75" data-name="Group 75">
        <path id="Path_105" data-name="Path 105" d="M1976.91,2192.33a1.5,1.5,0,0,1-.88-2.716c20.106-14.529,49.067-15.867,70.429-3.255a1.5,1.5,0,0,1-1.525,2.584c-20.366-12.025-47.977-10.749-67.146,3.1A1.571,1.571,0,0,1,1976.91,2192.33Z" fill="#163a54"/>
      </g>
      <g id="Group_76" data-name="Group 76">
        <path id="Path_106" data-name="Path 106" d="M2029.63,2145.44a1.473,1.473,0,0,1-.456-.071,1.5,1.5,0,0,1-.974-1.885c8.5-26.644,17.223-52.313,25.663-77.137,28.521-83.883,55.459-163.114,71.795-272.137a1.5,1.5,0,1,1,2.967.445c-16.376,109.288-43.356,188.643-71.921,272.657-8.436,24.81-17.158,50.466-25.645,77.083A1.5,1.5,0,0,1,2029.63,2145.44Z" fill="#92bfd6"/>
      </g>
      <g id="Group_77" data-name="Group 77">
        <path id="Path_107" data-name="Path 107" d="M2222.92,2502.02a1.5,1.5,0,0,1-1.182-.575,850.615,850.615,0,0,1-77.2-117.413q-3.378-6.2-6.691-12.451c-8.5-15.918-17.287-32.378-27.868-47.283-19.365-27.279-44.9-49.776-69.592-71.531a1.5,1.5,0,0,1,1.983-2.251c24.822,21.868,50.489,44.482,70.055,72.046,10.691,15.06,19.524,31.606,28.068,47.607,2.216,4.15,4.432,8.3,6.68,12.427a847.569,847.569,0,0,0,76.928,117,1.5,1.5,0,0,1-.256,2.1A1.471,1.471,0,0,1,2222.92,2502.02Z" fill="#92bfd6"/>
      </g>
      <g id="Group_78" data-name="Group 78">
        <path id="Path_108" data-name="Path 108" d="M2300.96,2219.36a1.549,1.549,0,0,1-.321-.034,1.5,1.5,0,0,1-1.146-1.786c30.1-137.733,61.224-280.156,117.281-412.444a1.5,1.5,0,1,1,2.762,1.17c-55.948,132.032-87.042,274.315-117.111,411.915A1.5,1.5,0,0,1,2300.96,2219.36Z" fill="#92bfd6"/>
      </g>
      <g id="Group_79" data-name="Group 79">
        <path id="Path_109" data-name="Path 109" d="M2043.23,2203.41a1.489,1.489,0,0,1-.63-.139,109.126,109.126,0,0,0-15.518-5.8c-3.72-1.076-8.392-2.013-11.539.313a1.5,1.5,0,0,1-1.783-2.415c4.2-3.1,9.773-2.048,14.154-.782a112.214,112.214,0,0,1,15.946,5.962,1.5,1.5,0,0,1-.63,2.863Z" fill="#163a54"/>
      </g>
      <g id="Group_80" data-name="Group 80">
        <path id="Path_110" data-name="Path 110" d="M1939.74,2307.43h-.11a1.5,1.5,0,0,1,0-3h.108a92.856,92.856,0,0,0,65.516-27.779,1.5,1.5,0,0,1,2.156,2.086A95.924,95.924,0,0,1,1939.74,2307.43Z" fill="#163a54"/>
      </g>
      <path id="Path_111" data-name="Path 111" d="M2275.33,2504.22c25.258,28.646,52.435,58.566,88.956,69.738,8.3,2.538,17.091,4.115,24.381,8.819,12.563,8.107,18.015,23.844,19.368,38.734,3.521,38.73-14.557,75.827-21.215,114.143-4.2,24.143-3.835,48.83-6.284,73.212s-8.071,49.28-22.577,69.031c-2.151,2.928-4.577,5.8-7.81,7.46-8.2,4.208-18.693-1.208-23.266-9.208s-4.788-17.672-4.884-26.886c-.407-39.513-.812-79.4-9.676-117.9s-27.01-76.071-57.43-101.292c-17.918-14.855-39.959-25.448-53.535-44.353C2228.49,2562.9,2252.49,2536.39,2275.33,2504.22Z" fill="#ff8e68"/>
      <path id="Path_112" data-name="Path 112" d="M2048.24,1441.45a2.6,2.6,0,0,0-2.617,3.077c2.47,11.567.971,39.511.136,51.929a6.286,6.286,0,0,0,5.917,6.6l.792.059a13.179,13.179,0,0,0,14.217-11.356c1.41-11.8,2.93-30.007,1.321-44.993a6.367,6.367,0,0,0-6.649-5.608C2057.4,1441.31,2053.19,1441.43,2048.24,1441.45Z" fill="#163a54"/>
      <g id="Group_81" data-name="Group 81">
        <path id="Path_113" data-name="Path 113" d="M2053.9,1493.43a1.668,1.668,0,0,1-.186-.011,1.5,1.5,0,0,1-1.3-1.673,206.877,206.877,0,0,0,.757-43.514,1.5,1.5,0,1,1,2.988-.265,209.751,209.751,0,0,1-.768,44.146A1.509,1.509,0,0,1,2053.9,1493.43Z" fill="#386d93"/>
      </g>
      <g id="Group_82" data-name="Group 82">
        <path id="Path_114" data-name="Path 114" d="M1993.95,1474.63a5.218,5.218,0,0,1-.623-.044,51.375,51.375,0,0,1-9.087-1.891,3.207,3.207,0,0,1-2.084-1.512,3.241,3.241,0,0,1-.176-2.124l2.626-14.147a1.5,1.5,0,0,1,1.638-1.217l.125.014a12.9,12.9,0,0,1,10.937,16.512l-.618,2.075a3.2,3.2,0,0,1-1.363,1.993A2.737,2.737,0,0,1,1993.95,1474.63Zm.04-3Zm-9.08-1.88c.055.02.125.043.212.07a48.37,48.37,0,0,0,8.554,1.78l.088.01c.017-.05.035-.109.055-.176l.618-2.076a9.907,9.907,0,0,0-7.144-12.455l-2.357,12.7C1984.93,1469.64,1984.92,1469.69,1984.91,1469.75Zm-.03.22h0Z" fill="#163a54"/>
      </g>
      <path id="Path_115" data-name="Path 115" d="M2272.97,2488.73l-96.65,102.877c-10.178,10.882,9.055,17.806,14.465,16.694,34.175-7.022,79.7-58.965,111.758-83.582a99.736,99.736,0,0,0,8.859-7.409c4.093-3.981,1.433-10.844-4.253-11.365-5.034-.461-9.551-2.22-12.021-6.5-1.521-2.638-1.905-5.824-3.5-8.416a13.076,13.076,0,0,0-7.07-5.259A10.919,10.919,0,0,0,2272.97,2488.73Z" fill="#92bfd6"/>
      <path id="Path_116" data-name="Path 116" d="M2204.03,1470.58c-.68-9.74-3.35-32.14-8.26-37.13-3.7-3.75-9.89-5.41-18.49-3.57a290.021,290.021,0,0,1-54.86,6.39c-4.67.1-10.1.81-12.31,4.94-4.9,9.15,3.98,63.42,10.11,68.62,9.14,7.74,30.44-3.11,54.1-2.82,11.85.15,21.93,5.26,27.88-13.32C2204.57,1486.3,2204.57,1478.34,2204.03,1470.58Zm-24.79,18.69c-14.22-1.39-34.8,3.66-48.2,3.66-5.52,0-8.72-21.56-7.62-33.71a5.557,5.557,0,0,1,5.47-5.04c17.12-.25,45.51-6.45,45.51-6.45a4.841,4.841,0,0,1,5.42,4.26l3.57,32.02C2183.71,1486.61,2181.84,1489.53,2179.24,1489.27Z" fill="#feba57"/>
      <path id="Path_117" data-name="Path 117" d="M2585.53,1122.44c-1.59,8.55-5.11,17.11-8.49,23.94a33.386,33.386,0,0,1-21.82,17.57c-16.9,4.21-44.59,10.76-54.93,11.22-35.86,1.55-86.45-12.24-129.37-35.21-1.26-.67-2.5-1.34-3.74-2.03a2.3,2.3,0,0,0-3.27,2.81q4.215,11.43,8.27,22.88c56.6,159.84,89.07,323.2,89.07,493.54a24.268,24.268,0,0,1-3.53,12.61c-2.66,4.33-7.18,7.12-11.54,9.74-59.65,35.91-126.56,71.71-194.78,64.45a15.968,15.968,0,0,1-14.16-15.24q-2.82-67.575-11.09-134.76a2278.4,2278.4,0,0,0-37.94-259.52c-7.91-38.44-16.85-76.87-18.99-116.05-.93-17.04-.58-34.26-3.94-50.99-3.21-16.02-9.74-31.17-13.94-46.96-6.19-23.27-7.25-47.55-8.27-71.61-.17-3.87-.33-7.74-.46-11.62-.17-5.19-.27-10.39-.22-15.58a176.914,176.914,0,0,1,1.74-24.45c4.04-27.38,16.3-52.99,20.87-80.28,7.16-42.69-6.79-87.65,10.7-126.88a2.034,2.034,0,0,1,3.17-.74c11.08,9.51,29.64,34.71,38.05,49.1a18.446,18.446,0,0,0,6.26,6.4,17.987,17.987,0,0,0,4.59,2.03c.4.13.81.23,1.22.32a493.641,493.641,0,0,0,67.8,10.13c17.57,1.33,37.5,2.66,48.68,16.3,3.54,4.32,5.82,9.52,8.93,14.17,4.55,6.8,10.77,12.28,16.49,18.13,31.38,32.13,48.25,76.73,79.93,108.14.25.25.51.51.77.76a2.568,2.568,0,0,0,4.32-2.27c-.27-1.54-.49-3.07-.66-4.61-2.41-21.09,3.63-41.67,4.13-54.4a128.309,128.309,0,0,1,2.4-21.51,113.853,113.853,0,0,0-.8-50.33c-2.54-10.39-6.58-20.59-6.65-31.29-.09-11.57,13.78-33.45,13.78-33.45s2.56-27.16,2.29-39.08a2.167,2.167,0,0,1,2.29-2.2c22.18,1.18,48.99-1.38,70.96-4.64a4.43,4.43,0,0,1,5.07,4.22s-7.96,30.09,2.63,42.88c4.4,5.32,5.73,13.62,6.44,20.89,4.91,50.72,13.2,101.06,21.47,151.34C2586.46,1034.06,2593.65,1078.86,2585.53,1122.44Z" fill="#ff385c"/>
      <path id="Path_118" data-name="Path 118" d="M2117.56,1460.45a1.127,1.127,0,0,1,2.2.15,6.207,6.207,0,0,0,.506,1.552,9.935,9.935,0,0,0,10.085,5.559c8.874-.909,26.165-2.724,29.8-3.436a1.323,1.323,0,0,1,1.536.966h0a6.362,6.362,0,0,1-4.545,7.78c-7.877,2.03-19.814,3.773-26.451,5.3a9.759,9.759,0,0,0-6.887,5.926,19.726,19.726,0,0,0-.841,2.561.844.844,0,0,1-1.608.1C2118.15,1478.72,2115.11,1469.92,2117.56,1460.45Z" fill="#feba57"/>
      <path id="Path_119" data-name="Path 119" d="M2181.23,2697.27c-17.8.244-34.478-7.854-50.939-14.63-13.166-5.419-27.531-10.118-41.462-9.109a5.215,5.215,0,0,0-1.716,9.957l2.973,1.335a7.134,7.134,0,0,1,4.283,5.848c.4,5.207-5.422,6.187-7.787,9.778-2.205,3.347-.655,8.116,2.359,10.76s7.073,3.678,10.973,4.6a854.589,854.589,0,0,0,107.661,18.354c10.725,1.129,21.759,2.031,32.136-.908,8.575-2.429,4.5-3.26,2.062-12.863-.352-1.385,2.875-4.639,6.58-7.835a5.628,5.628,0,0,0-2.879-9.839c-6.193-.874-12.978-1.789-16.356-2.109C2210.02,2698.81,2190.92,2697.14,2181.23,2697.27Z" fill="#92bfd6"/>
      <path id="Path_120" data-name="Path 120" d="M2459.74,2586.91c-1.32,46.74-24.08,95.39-32.01,141.47-4.25,24.72-4.48,50-2.74,75.02,1.33,19.1,3.8,38.35,1.04,57.3-2.63,18.04-9.88,35.04-17.28,51.7-4.91,11.07-10.55,22.82-21.08,28.8-16.99,9.65-53.11,1.75-61.95-4.54-14.35-10.21-15.55-30.87-13.82-48.39.58-5.83,1.33-11.65,2.13-17.47.96-6.95,2.01-13.9,2.94-20.85,2.15-16.18,3.7-32.35,2.18-48.56-7.93-84.39-53.56-124.37-60.63-135.01-6.38-9.62-9.98-22.29-5.04-32.72,4.16-8.75,16.11-13.46,24.3-9.56a6.122,6.122,0,0,0,5.35-.02,5.807,5.807,0,0,0,2.32-2.04c15.19-22.97,29.73-46.28,34.71-72.15a5.978,5.978,0,0,1,7.62-4.66c13.13,4.22,27.93,2.31,42.28,1.23,14.68-1.1,30.42-.98,43.27,5.66a50.26,50.26,0,0,0,8.19,3.34,58.691,58.691,0,0,0,8.07,1.89c12.35,2.03,24.7,4.42,28.68,15.83C2459.78,2577.54,2459.88,2582.27,2459.74,2586.91Z" fill="#ff385c"/>
      <path id="Path_121" data-name="Path 121" d="M2459.74,2586.91c-1.32,46.74-24.08,95.39-32.01,141.47-4.25,24.72-4.48,50-2.74,75.02,1.33,19.1,3.8,38.35,1.04,57.3-2.63,18.04-9.88,35.04-17.28,51.7-4.91,11.07-10.55,22.82-21.08,28.8-16.99,9.65-53.11,1.75-61.95-4.54-14.35-10.21-15.55-30.87-13.82-48.39.58-5.83,1.33-11.65,2.13-17.47a195.481,195.481,0,0,1,66.1-32.934,8.5,8.5,0,0,0,5.692-5.269c31.723-86,46.147-248.292,35.694-277.137a58.691,58.691,0,0,0,8.07,1.89c12.35,2.03,24.7,4.42,28.68,15.83C2459.78,2577.54,2459.88,2582.27,2459.74,2586.91Z" fill="#ffeccf"/>
      <path id="Path_122" data-name="Path 122" d="M2342.32,2784.68c-.55,13.76-2.34,27.65-7.57,40.38a63.723,63.723,0,0,1-17.79,24.89c2.15-16.18,3.7-32.35,2.18-48.56-7.93-84.39-53.56-124.37-60.63-135.01-6.38-9.62-9.98-22.29-5.04-32.72,4.16-8.75,16.11-13.46,24.3-9.56a6.122,6.122,0,0,0,5.35-.02c.35.36.69.73,1.04,1.09C2324.25,2667.27,2344.63,2726.59,2342.32,2784.68Z" fill="#e23151"/>
      <g id="Group_83" data-name="Group 83">
        <path id="Path_123" data-name="Path 123" d="M2330.05,2936.43a23.887,23.887,0,0,1-5.362-.616,1.5,1.5,0,1,1,.668-2.924,20.526,20.526,0,0,0,4.583.524c31.792.006,53.595-76.1,62.042-105.583,27.691-96.645,39.008-181.333,35.612-266.521a1.5,1.5,0,0,1,3-.12c3.408,85.517-7.944,170.506-35.726,267.467C2385.43,2861.55,2363.98,2936.42,2330.05,2936.43Z" fill="#e23151"/>
      </g>
      <g id="Group_84" data-name="Group 84">
        <path id="Path_124" data-name="Path 124" d="M2401.86,2739.73a1.5,1.5,0,0,1-1.463-1.836A542.046,542.046,0,0,0,2414,2602.81a1.5,1.5,0,0,1,3-.076,545.09,545.09,0,0,1-13.674,135.832A1.505,1.505,0,0,1,2401.86,2739.73Z" fill="#e23151"/>
      </g>
      <g id="Group_85" data-name="Group 85">
        <path id="Path_125" data-name="Path 125" d="M2328.57,2590.03a1.5,1.5,0,0,1-1.321-2.207,151.139,151.139,0,0,0,13.212-34.09,1.5,1.5,0,0,1,2.908.738,154.133,154.133,0,0,1-13.476,34.765A1.511,1.511,0,0,1,2328.57,2590.03Z" fill="#e23151"/>
      </g>
      <g id="Group_86" data-name="Group 86">
        <path id="Path_126" data-name="Path 126" d="M2337.51,2585.75a1.5,1.5,0,0,1-1.31-2.23,105.894,105.894,0,0,0,11.038-29.435,1.5,1.5,0,1,1,2.933.625,108.88,108.88,0,0,1-11.351,30.269A1.492,1.492,0,0,1,2337.51,2585.75Z" fill="#e23151"/>
      </g>
      <g id="Group_87" data-name="Group 87">
        <path id="Path_127" data-name="Path 127" d="M2330.14,2677.94a1.478,1.478,0,0,1-.5-.084,1.5,1.5,0,0,1-.921-1.911,20.832,20.832,0,0,0,1.484-7.693,7.778,7.778,0,0,0-3.026-6.122,12.969,12.969,0,0,0-3.774-1.486c-.679-.192-1.356-.385-2.017-.615a1.5,1.5,0,1,1,.99-2.832c.6.211,1.223.385,1.842.559a15.391,15.391,0,0,1,4.643,1.89,10.772,10.772,0,0,1,4.339,8.452,23.554,23.554,0,0,1-1.648,8.837A1.493,1.493,0,0,1,2330.14,2677.94Z" fill="#e23151"/>
      </g>
      <g id="Group_88" data-name="Group 88">
        <path id="Path_128" data-name="Path 128" d="M2348.62,2745.89a1.5,1.5,0,0,1-1.261-2.311,12.084,12.084,0,0,0-2.826-15.574,1.5,1.5,0,0,1,1.793-2.407,15.015,15.015,0,0,1,3.557,19.6A1.517,1.517,0,0,1,2348.62,2745.89Z" fill="#e23151"/>
      </g>
      <g id="Group_89" data-name="Group 89">
        <path id="Path_129" data-name="Path 129" d="M2330.8,2851.62a1.5,1.5,0,0,1-.926-2.681,83.651,83.651,0,0,1,43.5-17.247,1.5,1.5,0,0,1,.272,2.988,80.619,80.619,0,0,0-41.927,16.62A1.471,1.471,0,0,1,2330.8,2851.62Z" fill="#e23151"/>
      </g>
      <g id="Group_90" data-name="Group 90">
        <path id="Path_130" data-name="Path 130" d="M2316.2,2819.81a1.5,1.5,0,0,1-1.282-2.277c8.931-14.737,18.5-29.314,28.5-43.419l-25.626,15.219a2.888,2.888,0,0,1-4-3.874l24.913-45.335a75.193,75.193,0,0,1-7.78,3.125c-6.487,2.314-12.616,4.5-22.555,14.437a1.5,1.5,0,0,1-2.536-1.33c4.22-22.993,18.119-42.69,23.826-50.011-11.465,1.915-18.506,6.007-31.709,20.635a1.5,1.5,0,0,1-2.6-1.219c3.676-25.572,11.483-37.466,24.943-56.075-18.3,5.663-30.147,12.406-42.171,23.983a1.5,1.5,0,0,1-2.467-1.542c7.547-23.292,16.349-40.511,28.285-55.212-2.225.259-4.361.378-6.44.423-2.134.948-4.291,2.707-4.789,5.222a12.69,12.69,0,0,0-.152,2.342,19.593,19.593,0,0,1-.094,2.166c-.65,5.664-5.18,9.023-9.561,12.272-3,2.227-6.106,4.529-7.811,7.508a25.179,25.179,0,0,0-2.267,6.776c-1.065,4.522-2.273,9.646-7.8,12.314a7.372,7.372,0,0,0-3.84,3.934c-1.051,2.839.291,4.162,2.957,6.445a17.885,17.885,0,0,1,3.3,3.373c3.047,4.457,1.366,10.511-1.651,14.533a44.469,44.469,0,0,1-5.144,5.463,46.744,46.744,0,0,0-4.379,4.534c-2.3,2.861-4.3,7.481-2.337,11.08a14.222,14.222,0,0,0,3.363,3.649,19.071,19.071,0,0,1,3.647,3.824c3.27,4.975,2.089,11.685-3.512,19.944-3.977,5.865-7.385,11.563-5.425,16.777a1.5,1.5,0,0,1-2.809,1.055c-2.668-7.1,2.2-14.276,5.751-19.515,4.854-7.159,6.027-12.748,3.487-16.612a16.574,16.574,0,0,0-3.107-3.207,16.664,16.664,0,0,1-4.031-4.481c-2.664-4.9-.246-10.814,2.634-14.4a49.819,49.819,0,0,1,4.653-4.83,41.67,41.67,0,0,0,4.807-5.087c2.376-3.166,3.784-7.808,1.575-11.039a15.505,15.505,0,0,0-2.772-2.787c-2.516-2.153-5.646-4.833-3.819-9.765a10.325,10.325,0,0,1,5.35-5.595c4.242-2.048,5.144-5.872,6.188-10.3a27.8,27.8,0,0,1,2.583-7.578c2.016-3.523,5.377-6.017,8.627-8.427,4.045-3,7.865-5.832,8.367-10.2a17.3,17.3,0,0,0,.074-1.842c0-.448,0-.9.029-1.365a79.659,79.659,0,0,1-29.313,20.423c-1.906.76-5.455,2.175-8.442-.531a7.815,7.815,0,0,1-1.857-8.541c3.765-9.944,13.712-17.346,26.608-19.8a68.51,68.51,0,0,1,14.319-.757q1.088.019,2.187.034c1.772-2.525,3.431-5.216,5.036-7.818a112.549,112.549,0,0,1,7.509-11.152,57.468,57.468,0,0,1,26.73-18.632,14.643,14.643,0,0,1,7.73-.493,10.158,10.158,0,0,1,7.03,5.053c1.785,3.309,1.838,7.956.14,12.43-5.708,15.053-23.466,21.255-38.5,22.085-11.99,13.906-20.867,30.025-28.415,51.733,11.076-9.644,22.612-15.684,39.424-20.848a2.873,2.873,0,0,1,3.168,4.431c-12.782,17.662-20.01,28.463-23.849,50.177,12.086-12.745,19.723-16.724,33.959-18.487a1.5,1.5,0,0,1,1.318,2.471c-.193.223-18.251,21.24-24.578,46.892a52.018,52.018,0,0,1,20.119-11.767,56.53,56.53,0,0,0,11.8-5.374,1.5,1.5,0,0,1,2.1,2l-27.2,49.5,31.428-18.664a1.5,1.5,0,0,1,1.98,2.17c-11.467,15.835-22.413,32.334-32.535,49.038A1.467,1.467,0,0,1,2316.2,2819.81Zm-29.38-182.54a51.2,51.2,0,0,0-9.673.75c-11.863,2.257-20.971,8.954-24.364,17.915a4.806,4.806,0,0,0,1.066,5.256c1.346,1.218,2.906.927,5.318-.033a76.613,76.613,0,0,0,31.728-23.842h-.04C2289.49,2637.29,2288.15,2637.27,2286.82,2637.27Zm50.4-38.32a12.634,12.634,0,0,0-3.92.652,54.424,54.424,0,0,0-25.318,17.649,110.713,110.713,0,0,0-7.3,10.859c-1.272,2.064-2.578,4.181-3.958,6.247l.156,0c.213-.084.425-.161.634-.23a31.347,31.347,0,0,1,8.989-1.205l1.3-.05c14.247-.6,31.357-6.223,36.655-20.193,1.372-3.617,1.382-7.427.025-9.941a7.16,7.16,0,0,0-5.041-3.55A9.793,9.793,0,0,0,2337.22,2598.95Z" fill="#ffeccf"/>
      </g>
      <path id="Path_131" data-name="Path 131" d="M2260.47,2969.7a23.3,23.3,0,0,1-.16,3.22,9.737,9.737,0,0,1-8.08,7.98c-37.25,5.81-90.66,3.91-104.86,1.4-10.4-1.84-21.33-5.72-27.15-14.53-2.37-3.59-3.73-7.78-6.16-11.32-5.7-8.28-16.22-11.68-26.15-13.15s-20.28-1.62-29.47-5.66a11.8,11.8,0,0,1-4.94-3.49c-1.47-1.98-1.78-4.58-1.92-7.04-.62-10.72.98-21.21,3.65-31.59,7.37-28.73,22.86-56.63,21.58-86.33-.22-5.2-.95-10.51,1.32-15.44a10.093,10.093,0,0,1,5.13-5.2c5.73-2.39,11.08,2.05,14.91,6.4,2.84,3.23,5.92,6.84,9.81,8.24a1.544,1.544,0,0,0,.23.07,2.386,2.386,0,0,0,2.91-1.97,38.548,38.548,0,0,1,6.58-16.78c4.16-5.68,10.65-9.87,17.68-10.31,6.99-.44,13.8,2.79,19.09,7.38a40.709,40.709,0,0,1,13.76,28.6,1.341,1.341,0,0,0,.53,1.02,1.386,1.386,0,0,0,.96.28c3.74-.32,7.35,3.47,8.06,7.41.81,4.45-3.38,11.44-3.93,15.93a22.165,22.165,0,0,0,.7,6.66c3.86,17.93,21.93,58.53,37.08,68.27a11.786,11.786,0,0,0,5.86,2.13,30.135,30.135,0,0,1,4.39,1.22c11.33,3.7,39.99,15.56,34.76,32.16C2259.46,2950.97,2260.47,2963.45,2260.47,2969.7Z" fill="#ff385c"/>
      <path id="Path_132" data-name="Path 132" d="M2260.47,2969.7a23.3,23.3,0,0,1-.16,3.22,9.737,9.737,0,0,1-8.08,7.98c-37.25,5.81-90.66,3.91-104.86,1.4-10.4-1.84-21.33-5.72-27.15-14.53-2.37-3.59-3.73-7.78-6.16-11.32-5.7-8.28-16.22-11.68-26.15-13.15s-20.28-1.62-29.47-5.66a11.8,11.8,0,0,1-4.94-3.49c-1.47-1.98-1.78-4.58-1.92-7.04-.62-10.72.98-21.21,3.65-31.59.64,1.07,1.3,2.12,2.01,3.15,6.65,9.72,16.18,17.1,26.09,23.46,23.56,15.13,50.23,25.38,76.94,31.57a4.028,4.028,0,0,0,4.52-2.22c8.62-17.63,31.61-34.6,57.09-38.38,11.33,3.7,39.99,15.56,34.76,32.16C2259.46,2950.97,2260.47,2963.45,2260.47,2969.7Z" fill="#ffeccf"/>
      <path id="Path_133" data-name="Path 133" d="M2211.63,2909.75a6.268,6.268,0,0,1-.7.22c-8.05,2.22-16.26,4.46-24.61,4.16-15.27-.54-29.03-9.5-40.1-20.03-9.39-8.94-18.194-18.891-23.74-30.6-14.953-31.567-11.59-60.81-11.36-62.21a38.548,38.548,0,0,1,6.58-16.78c4.16-5.68,10.65-9.87,17.68-10.31,6.99-.44,13.8,2.79,19.09,7.38a40.709,40.709,0,0,1,13.76,28.6,1.341,1.341,0,0,0,.53,1.02c-.23,2.08-.42,4.17-.45,6.26-.12,8.46,2.35,16.49,6.24,24.02C2178.41,2859.41,2196.48,2900,2211.63,2909.75Z" fill="#e23151"/>
      <g id="Group_91" data-name="Group 91">
        <path id="Path_134" data-name="Path 134" d="M2137.46,2942.58a1.5,1.5,0,0,1-.572-.113,334.049,334.049,0,0,1-49.323-25.34,1.5,1.5,0,0,1,1.587-2.545,331.031,331.031,0,0,0,48.88,25.111,1.5,1.5,0,0,1-.572,2.887Z" fill="#e23151"/>
      </g>
      <g id="Group_92" data-name="Group 92">
        <path id="Path_135" data-name="Path 135" d="M2142.93,2921.27a10.726,10.726,0,0,1-8.944-16.819,1.5,1.5,0,1,1,2.47,1.7,7.741,7.741,0,0,0,8.355,11.875,1.5,1.5,0,0,1,.768,2.9A10.3,10.3,0,0,1,2142.93,2921.27Z" fill="#e23151"/>
      </g>
      <g id="Group_93" data-name="Group 93">
        <path id="Path_136" data-name="Path 136" d="M2105.53,2881.3a1.49,1.49,0,0,1-.409-.057,10.57,10.57,0,0,1-5.049-17.163,1.5,1.5,0,0,1,2.25,1.984,7.57,7.57,0,0,0,3.615,12.292,1.5,1.5,0,0,1-.407,2.944Z" fill="#e23151"/>
      </g>
      <g id="Group_94" data-name="Group 94">
        <path id="Path_137" data-name="Path 137" d="M2078.25,2840.76a1.5,1.5,0,0,1-1.36-2.129c1.72-3.718,3.668-7.93,3.482-12.158a27.546,27.546,0,0,0-1.2-6.015c-.789-2.86-1.6-5.816-1.193-8.934a1.5,1.5,0,0,1,2.975.393c-.332,2.513.369,5.053,1.111,7.743a30.223,30.223,0,0,1,1.3,6.68c.218,4.957-1.894,9.522-3.757,13.551A1.5,1.5,0,0,1,2078.25,2840.76Z" fill="#e23151"/>
      </g>
      <g id="Group_95" data-name="Group 95">
        <path id="Path_138" data-name="Path 138" d="M2097.05,2902.69a1.494,1.494,0,0,1-.564-.11,64.641,64.641,0,0,1-28.787-23.237,1.5,1.5,0,1,1,2.479-1.689,61.6,61.6,0,0,0,27.436,22.147,1.5,1.5,0,0,1,.825,1.954A1.479,1.479,0,0,1,2097.05,2902.69Z" fill="#e23151"/>
      </g>
      <g id="Group_96" data-name="Group 96">
        <path id="Path_139" data-name="Path 139" d="M2166.61,2938.82a1.5,1.5,0,0,1-1.245-2.335,51.979,51.979,0,0,1,21.714-18.405,1.5,1.5,0,0,1,1.24,2.733,49.669,49.669,0,0,0-20.462,17.343A1.494,1.494,0,0,1,2166.61,2938.82Z" fill="#e23151"/>
      </g>
      <g id="Group_97" data-name="Group 97">
        <path id="Path_140" data-name="Path 140" d="M2201.07,2960.81c-2.092,0-4.1-.032-6-.08a156.182,156.182,0,0,1-30.859-3.4,1.5,1.5,0,0,1,.662-2.926,153.205,153.205,0,0,0,30.273,3.324c16.09.411,39.679-.38,58.764-11.9a1.5,1.5,0,0,1,1.551,2.569C2237.99,2958.95,2217.06,2960.81,2201.07,2960.81Z" fill="#e23151"/>
      </g>
      <g id="Group_98" data-name="Group 98">
        <path id="Path_141" data-name="Path 141" d="M2139.62,2913.46a1.5,1.5,0,0,1-1.37-2.107c3.565-8.046,30.406-37.761,53.872-29.026a1.5,1.5,0,1,1-1.047,2.811c-21.625-8.05-47.122,20.751-50.082,27.43A1.488,1.488,0,0,1,2139.62,2913.46Z" fill="#ffeccf"/>
      </g>
      <g id="Group_99" data-name="Group 99">
        <path id="Path_142" data-name="Path 142" d="M2139.68,2913.96a1.5,1.5,0,0,1-1.415-2c3.391-9.67,9.891-18.672,19.32-26.758,7.66-6.569,16.372-11.783,24.315-16.192-9.668-1.684-33.445.283-53.155,23.35a1.5,1.5,0,0,1-2.454-1.7,103.343,103.343,0,0,1,49.759-44.977,1.5,1.5,0,0,1,1.176,2.76,100.393,100.393,0,0,0-41.116,32.474c20.35-16.726,43.051-17.08,50.335-13.711a1.5,1.5,0,0,1,.089,2.678c-8.614,4.7-18.515,10.321-27,17.595-9.022,7.737-15.228,16.308-18.442,25.472A1.49,1.49,0,0,1,2139.68,2913.96Z" fill="#ffeccf"/>
      </g>
      <g id="Group_100" data-name="Group 100">
        <path id="Path_143" data-name="Path 143" d="M2105.86,2873.32a1.5,1.5,0,0,1-1.365-2.121c5.345-11.771,22.61-26.707,38.487-33.3,9.354-3.882,19.432-5.354,29.177-6.779a1.5,1.5,0,0,1,.433,2.969c-9.563,1.4-19.451,2.842-28.46,6.581-15.274,6.339-31.831,20.59-36.906,31.766A1.51,1.51,0,0,1,2105.86,2873.32Z" fill="#ffeccf"/>
      </g>
      <g id="Group_101" data-name="Group 101">
        <path id="Path_144" data-name="Path 144" d="M2106.58,2871.77a1.5,1.5,0,0,1-1.227-2.362c6.09-8.686,15.251-15.558,26.493-19.872,9.417-3.614,20.084-5.431,32.608-5.557,4.144-.038,8.922.1,13.07,2.347a1.5,1.5,0,0,1-1.428,2.638c-3.521-1.905-7.844-2.018-11.612-1.985-12.161.122-22.486,1.874-31.564,5.358-10.682,4.1-19.366,10.6-25.112,18.794A1.486,1.486,0,0,1,2106.58,2871.77Z" fill="#ffeccf"/>
      </g>
      <g id="Group_102" data-name="Group 102">
        <path id="Path_145" data-name="Path 145" d="M2101.22,2847.71a1.5,1.5,0,0,1-.913-2.692,87.434,87.434,0,0,1,55.82-17.94c4.869.154,11.111.745,16.406,3.945a1.511,1.511,0,0,1,1.008,1.221,1.467,1.467,0,0,1-1.263,1.67l-.16.019a1.493,1.493,0,0,1-.938-.219c-4.736-2.948-10.583-3.492-15.147-3.637a84.614,84.614,0,0,0-53.9,17.324A1.49,1.49,0,0,1,2101.22,2847.71Z" fill="#ffeccf"/>
      </g>
      <g id="Group_103" data-name="Group 103">
        <path id="Path_146" data-name="Path 146" d="M2227.21,2875.98a1.5,1.5,0,0,1-1.409-2.017,10.139,10.139,0,0,0-6-12.512,25.267,25.267,0,0,0-4.5-.9c-3.381-.471-7.213-1.006-9.309-4.233-1.285-1.979-1.43-4.388-1.558-6.513-.137-2.289-.256-4.266-1.569-5.4a6.863,6.863,0,0,0-2.7-1.158,43.119,43.119,0,0,0-11.088-1.369l-1.021.014c-3.766.056-8.035.124-10.939-2.8a1.5,1.5,0,0,1-.428-.905c-.214-2.112,1.232-4.821,2.907-7.958,1.9-3.562,4.268-7.994,2.445-9.309-5.869-4.233-10.241-3.924-12.34-3.771a3.494,3.494,0,0,1-2.021-.22,1.5,1.5,0,0,1-.635-.214c-2.972-1.825-6.77-2.2-10.12-2.521-19.477-1.9-43.716-4.26-62.811,8.435a1.5,1.5,0,0,1-1.662-2.5c18.01-11.975,39.956-11.194,58.719-9.5-3.33-1.192-5.032-3.194-4.692-5.563.292-2.039,2.192-3.6,4.959-4.083,4.891-.852,11.911.182,15.77,4.441a9.853,9.853,0,0,1,2.571,6.149c3.316-.9,5.752-3.916,8.319-7.1.753-.934,1.532-1.9,2.329-2.8a32.664,32.664,0,0,1,24.153-10.842c.212,0,.423,0,.636.006,5.529.114,11.482,2.64,12.315,8.025.587,3.794-1.732,7.688-6.532,10.967a47.114,47.114,0,0,1-28.144,8q.464.308.938.649c3.949,2.848,1.025,8.324-1.554,13.155-1.107,2.072-2.344,4.389-2.547,5.737,2.043,1.61,5.232,1.563,8.314,1.515l1.042-.014a45.66,45.66,0,0,1,11.867,1.465,9.376,9.376,0,0,1,3.9,1.788c2.276,1.958,2.453,4.9,2.608,7.491.115,1.925.225,3.743,1.078,5.058,1.351,2.08,4.064,2.459,7.207,2.9a27.7,27.7,0,0,1,5.044,1.025,13.128,13.128,0,0,1,7.854,16.387A1.5,1.5,0,0,1,2227.21,2875.98Zm-53.25-63.05c.7.174,1.383.409,2.059.642a18.484,18.484,0,0,0,4.077,1.043,43.8,43.8,0,0,0,29.219-7.254c2.2-1.5,5.8-4.539,5.259-8.031-.564-3.646-5.274-5.4-9.413-5.484-.191,0-.384-.006-.576-.006a29.622,29.622,0,0,0-21.906,9.834c-.751.844-1.473,1.741-2.238,2.689A30.24,30.24,0,0,1,2173.96,2812.93Zm-19.19-9.22a16.7,16.7,0,0,0-2.815.231c-1.125.2-2.389.765-2.5,1.554-.142.99,1.556,1.969,3.3,2.5,3.256.99,6.547,1.956,9.781,2.871a24.669,24.669,0,0,0,4.254.931,6.834,6.834,0,0,0-1.8-4.354C2162.65,2804.86,2158.5,2803.71,2154.77,2803.71Z" fill="#ffeccf"/>
      </g>
      <g id="Group_104" data-name="Group 104">
        <path id="Path_147" data-name="Path 147" d="M2210.83,2720.91a110.912,110.912,0,0,1-25.783-3.021c-10.262-2.462-20.353-6.445-30.111-10.3-17.5-6.908-34.023-13.446-51.911-12.246a1.5,1.5,0,0,1-.2-2.994c18.558-1.225,36.173,5.725,53.21,12.449,9.662,3.815,19.653,7.758,29.709,10.17a108.169,108.169,0,0,0,40.889,1.771,1.5,1.5,0,0,1,.445,2.967A109.67,109.67,0,0,1,2210.83,2720.91Z" fill="#386d93"/>
      </g>
      <g id="Group_105" data-name="Group 105">
        <path id="Path_148" data-name="Path 148" d="M2210.92,2713.55a116.519,116.519,0,0,1-33.675-4.967,1.5,1.5,0,0,1,.865-2.873,113.7,113.7,0,0,0,36.433,4.782,1.5,1.5,0,1,1,.1,3Q2212.78,2713.55,2210.92,2713.55Z" fill="#386d93"/>
      </g>
      <g id="Group_106" data-name="Group 106">
        <path id="Path_149" data-name="Path 149" d="M2200.98,2588.04a2.776,2.776,0,0,1-1.928-4.733c5.021-5.012,10.484-10.365,16.27-16.033,26.038-25.512,55.552-54.427,62.582-69.692a1.5,1.5,0,0,1,2.724,1.256c-7.262,15.766-36.983,44.887-63.207,70.58-4.829,4.73-9.435,9.242-13.74,13.516,10.6-8.116,19.911-16.528,28.944-24.686,19.26-17.394,37.451-33.823,66.134-46.552a1.5,1.5,0,1,1,1.216,2.742c-28.244,12.534-46.263,28.808-65.34,46.036-9.879,8.922-20.095,18.147-31.986,27A2.786,2.786,0,0,1,2200.98,2588.04Z" fill="#386d93"/>
      </g>
      <g id="Group_107" data-name="Group 107">
        <path id="Path_150" data-name="Path 150" d="M2192.4,1484.64a1.564,1.564,0,0,1-.215-.015,1.5,1.5,0,0,1-1.272-1.7,91.526,91.526,0,0,0-1.625-34.154c-.851-3.516-2.415-8.383-6.173-10.045-2.647-1.17-5.9-.549-9.267.252l-1.792.426c-13.439,3.2-27.337,6.505-41.367,5.813a1.5,1.5,0,0,1-1.424-1.572,1.478,1.478,0,0,1,1.572-1.424c13.6.665,27.291-2.588,40.525-5.736l1.793-.426c3.893-.923,7.677-1.624,11.174-.076,4.972,2.2,6.875,7.949,7.875,12.083a94.573,94.573,0,0,1,1.68,35.284A1.51,1.51,0,0,1,2192.4,1484.64Z" fill="#ffcb7d"/>
      </g>
      <g id="Group_108" data-name="Group 108">
        <path id="Path_151" data-name="Path 151" d="M2127.15,1472.64a1.5,1.5,0,0,1-.048-3,173.41,173.41,0,0,0,30.151-3.659,1.5,1.5,0,1,1,.621,2.934,176.259,176.259,0,0,1-30.673,3.723Z" fill="#ffcb7d"/>
      </g>
      <g id="Group_109" data-name="Group 109">
        <path id="Path_152" data-name="Path 152" d="M2130.47,1503.57a1.5,1.5,0,0,1-.4-2.946,146.246,146.246,0,0,1,46.582-5.167,1.5,1.5,0,1,1-.15,3,143.355,143.355,0,0,0-45.629,5.062A1.252,1.252,0,0,1,2130.47,1503.57Z" fill="#ffcb7d"/>
      </g>
      <path id="Path_153" data-name="Path 153" d="M2253.77,882.415c-1.65,9.15-5.61,29.84-9.57,40.67-10.32-4.71-16.41-19.14-28.6-16.09a16.868,16.868,0,0,0-9.05,6c-29.12,36.82-47.92,80.15-63.94,124.22-.17-5.19-.27-10.39-.22-15.58,14.71-53.57,38.47-102.91,70.93-149.38a2.727,2.727,0,0,1,4.58.21c8.41,14.43,17.55,25.4,25.83,40.47q3.06-13.05,6.12-26.12a12.313,12.313,0,0,0,.48-3.9,11.859,11.859,0,0,0-2.02-4.96c-7.39-12.1-16.14-20.68-25.13-33.17a17.987,17.987,0,0,0,4.59,2.03c10.47,11.5,19.46,22.18,23.88,27.51A9.932,9.932,0,0,1,2253.77,882.415Z" fill="#c53650"/>
      <path id="Path_154" data-name="Path 154" d="M2372.18,1163.63c-22.656-55.656-45.13-94.2-64.77-117.55-1.4-1.66,7.87,3.7,7.87,3.7a5.159,5.159,0,0,0,7.34-4.98c-1.13-18.35-3.29-41.36,2.15-57.61a1.011,1.011,0,0,1,1.96.46c-4.73,36.64,4.45,41.33,8.11,46.33,1.58,2.16,3.92,3.7,5.43,5.92,4.19,6.18.46,14.78,2.61,21.94,1.38,4.62,12.6,6.43,5.27,16.43-3.73,5.1,7.57,26.6,10.11,32.26,4.17,9.3,8.42,19.16,12.66,29.44-1.26-.67-2.5-1.34-3.74-2.03a2.3,2.3,0,0,0-3.27,2.81Q2368.125,1152.165,2372.18,1163.63Z" fill="#c53650"/>
      <path id="Path_155" data-name="Path 155" d="M2478.05,1043.71a128.075,128.075,0,0,1-12.37-12.18,4.09,4.09,0,0,0-6.97,1.64c-4.49,16.41-1.79,42.9,1.83,61.72a2.155,2.155,0,0,1-4.08,1.29c-6.85-14.77-7.69-28.68-6.6-48.76.61-11.14,2.04-22.34.96-33.42.25.25.51.51.77.76a2.568,2.568,0,0,0,4.32-2.27c-.27-1.54-.49-3.07-.66-4.61.87,1.71,1.78,3.4,2.73,5.05,6.04,10.53,13.66,20.04,21.55,29.29A1.054,1.054,0,0,1,2478.05,1043.71Z" fill="#c53650"/>
      <g id="Group_110" data-name="Group 110">
        <path id="Path_156" data-name="Path 156" d="M2471.51,819.037a1.5,1.5,0,0,1,0-3,343,343,0,0,0,70.059-7.493,1.5,1.5,0,0,1,.625,2.934,346.085,346.085,0,0,1-70.674,7.558Z" fill="#c53650"/>
      </g>
      <g id="Group_111" data-name="Group 111">
        <path id="Path_157" data-name="Path 157" d="M2496.2,823.879a1.5,1.5,0,0,1-.1-3,257.686,257.686,0,0,0,40.14-5.888,1.5,1.5,0,0,1,.668,2.924,260.732,260.732,0,0,1-40.608,5.956C2496.26,823.878,2496.23,823.879,2496.2,823.879Z" fill="#c53650"/>
      </g>
      <g id="Group_112" data-name="Group 112">
        <path id="Path_158" data-name="Path 158" d="M2325.42,957.69c-.05,0-.1,0-.151-.007a1.5,1.5,0,0,1-1.343-1.642c1.8-17.982,4.5-36.086,8.042-53.809a1.5,1.5,0,1,1,2.942.588c-3.521,17.627-6.212,35.634-8,53.519A1.5,1.5,0,0,1,2325.42,957.69Z" fill="#c53650"/>
      </g>
      <g id="Group_113" data-name="Group 113" opacity="0.349">
        <path id="Path_159" data-name="Path 159" d="M2334.84,1665.25h-.032a1.5,1.5,0,0,1-1.469-1.531c.474-22.646.962-46.062-.607-69.021-3.863-56.479-20.28-112.168-36.157-166.023-17.973-60.966-36.559-124.007-36.959-188.389-.069-11.14.388-22.595.829-33.672,1.358-34.062,2.762-69.283-10.913-100.351a1.5,1.5,0,1,1,2.747-1.209c13.954,31.7,12.536,67.277,11.165,101.68-.44,11.043-.9,22.462-.827,33.534.4,63.959,18.922,126.793,36.837,187.559,15.922,54.01,32.387,109.859,36.271,166.667,1.579,23.094,1.089,46.578.615,69.289A1.5,1.5,0,0,1,2334.84,1665.25Z" fill="#ffeccf"/>
      </g>
      <g id="Group_114" data-name="Group 114">
        <path id="Path_160" data-name="Path 160" d="M2244.04,1045.68H2244a1.5,1.5,0,0,1-1.461-1.538,332.789,332.789,0,0,1,41.64-152.606,1.5,1.5,0,0,1,2.623,1.457,329.779,329.779,0,0,0-41.264,151.225A1.5,1.5,0,0,1,2244.04,1045.68Z" fill="#ff7784"/>
      </g>
      <g id="Group_115" data-name="Group 115">
        <path id="Path_161" data-name="Path 161" d="M2430.72,1045.71a1.487,1.487,0,0,1-.994-.378,517.269,517.269,0,0,1-67.111-72.082,1.5,1.5,0,1,1,2.381-1.825,514.4,514.4,0,0,0,66.721,71.663,1.5,1.5,0,0,1-1,2.622Z" fill="#ff7784"/>
      </g>
      <g id="Group_116" data-name="Group 116">
        <path id="Path_162" data-name="Path 162" d="M2430.22,1011.31a1.494,1.494,0,0,1-1.017-.4,256.724,256.724,0,0,1-47.948-59.737,1.5,1.5,0,1,1,2.594-1.508,253.711,253.711,0,0,0,47.388,59.039,1.5,1.5,0,0,1,.086,2.12A1.473,1.473,0,0,1,2430.22,1011.31Z" fill="#ff7784"/>
      </g>
      <g id="Group_117" data-name="Group 117">
        <path id="Path_163" data-name="Path 163" d="M2481.88,810.673a1.5,1.5,0,0,1-1.478-1.256,74.61,74.61,0,0,1,.153-25.267,1.5,1.5,0,1,1,2.953.524,71.614,71.614,0,0,0-.146,24.254,1.506,1.506,0,0,1-1.482,1.745Z" fill="#ff7784"/>
      </g>
      <g id="Group_118" data-name="Group 118">
        <path id="Path_164" data-name="Path 164" d="M2496.05,809.813a1.5,1.5,0,0,1-1.457-1.147,67.611,67.611,0,0,1-1.406-24.156,1.5,1.5,0,0,1,2.979.362,64.63,64.63,0,0,0,1.344,23.087,1.5,1.5,0,0,1-1.46,1.854Z" fill="#ff7784"/>
      </g>
      <g id="Group_119" data-name="Group 119">
        <path id="Path_165" data-name="Path 165" d="M2578.94,1040.78a1.5,1.5,0,0,1-1.466-1.193c-6.45-30.825-13.12-62.7-17.239-94.474-1.864-14.377-3.247-29.043-4.584-43.227-1.742-18.488-3.544-37.607-6.432-56.244a1.5,1.5,0,1,1,2.965-.459c2.9,18.726,4.707,37.889,6.454,56.421,1.334,14.158,2.714,28.8,4.571,43.123,4.1,31.659,10.763,63.476,17.2,94.246a1.5,1.5,0,0,1-1.16,1.775A1.4,1.4,0,0,1,2578.94,1040.78Z" fill="#ff7784"/>
      </g>
      <g id="Group_120" data-name="Group 120">
        <path id="Path_166" data-name="Path 166" d="M2539.95,1152.85a1.5,1.5,0,0,1-.638-2.858c13.984-6.568,28.062-14.089,33.124-27.34,2.455-6.428,2.474-13.666,2.3-19.945-.69-24.666-4.989-49.473-9.147-73.464-3.473-20.038-7.063-40.758-8.561-61.386a1.5,1.5,0,1,1,2.992-.216c1.486,20.479,5.064,41.125,8.524,61.091,4.176,24.095,8.494,49.01,9.189,73.892.184,6.568.157,14.157-2.494,21.1-5.461,14.294-20.112,22.157-34.651,28.986A1.6,1.6,0,0,1,2539.95,1152.85Z" fill="#ff7784"/>
      </g>
      <g id="Group_121" data-name="Group 121">
        <path id="Path_167" data-name="Path 167" d="M2466.46,940.851a1.5,1.5,0,0,1-1.342-2.169,60.644,60.644,0,0,0,5.237-15.422c2.1-10.761,1.237-22.03.4-32.928-.42-5.494-.854-11.174-.915-16.77a1.5,1.5,0,0,1,1.483-1.516h.017a1.5,1.5,0,0,1,1.5,1.484c.059,5.5.49,11.128.906,16.573.85,11.1,1.728,22.572-.449,33.731a63.708,63.708,0,0,1-5.5,16.185A1.5,1.5,0,0,1,2466.46,940.851Z" fill="#ff7784"/>
      </g>
      <g id="Group_122" data-name="Group 122">
        <path id="Path_168" data-name="Path 168" d="M2518.24,974.882a1.5,1.5,0,0,1-1.463-1.172,286.444,286.444,0,0,1-4.987-96.427,1.5,1.5,0,1,1,2.978.35,283.426,283.426,0,0,0,4.937,95.42,1.5,1.5,0,0,1-1.136,1.792A1.536,1.536,0,0,1,2518.24,974.882Z" fill="#ff7784"/>
      </g>
      <g id="Group_123" data-name="Group 123">
        <path id="Path_169" data-name="Path 169" d="M2486.65,1162.43a1.471,1.471,0,0,1-.227-.017c-17.253-2.612-35.094-5.313-52.022-10.922-19.151-6.345-34.43-15.638-45.411-27.621a1.5,1.5,0,1,1,2.211-2.028c10.633,11.6,25.484,20.619,44.144,26.8,16.687,5.529,34.4,8.211,51.528,10.8a1.5,1.5,0,0,1-.223,2.983Z" fill="#ff7784"/>
      </g>
      <g id="Group_124" data-name="Group 124" opacity="0.349">
        <path id="Path_170" data-name="Path 170" d="M2390.36,1627.63c-.045,0-.09,0-.136-.006a1.5,1.5,0,0,1-1.36-1.628c8.851-99.125-18.178-195.66-42.714-268.687-2.227-6.627-4.5-13.265-6.78-19.914-17.231-50.275-35.05-102.262-33.448-155.768a1.5,1.5,0,1,1,3,.089c-1.585,52.96,16.144,104.684,33.288,154.706,2.281,6.655,4.558,13.3,6.786,19.932,24.629,73.3,51.759,170.228,42.858,269.909A1.5,1.5,0,0,1,2390.36,1627.63Z" fill="#ffeccf"/>
      </g>
      <g id="Group_125" data-name="Group 125" opacity="0.349">
        <path id="Path_171" data-name="Path 171" d="M2428.23,1585.13a1.5,1.5,0,0,1-1.4-.956c-3.72-9.547-3.6-19.963-3.491-30.037l.013-1.186a740,740,0,0,0-24.451-196.62,1.5,1.5,0,1,1,2.9-.766,743.015,743.015,0,0,1,24.551,197.417l-.013,1.188c-.109,9.788-.223,19.908,3.286,28.914a1.5,1.5,0,0,1-.853,1.942A1.4,1.4,0,0,1,2428.23,1585.13Z" fill="#ffeccf"/>
      </g>
      <g id="Group_126" data-name="Group 126">
        <path id="Path_172" data-name="Path 172" d="M2170.63,1068.33h-.147a15.987,15.987,0,0,1-6.369-30.582h0c8.432-3.767,16.92-2.438,21.126,3.306,3.934,5.369,3.808,13.569-.3,19.5A17.775,17.775,0,0,1,2170.63,1068.33Zm-5.29-27.84a12.987,12.987,0,0,0,5.174,24.843,14.824,14.824,0,0,0,11.963-6.489c3.4-4.909,3.546-11.645.345-16.015-3.3-4.5-10.482-5.469-17.482-2.339Z" fill="#c53650"/>
      </g>
      <g id="Group_127" data-name="Group 127">
        <path id="Path_173" data-name="Path 173" d="M2188.93,1173.04a15.927,15.927,0,0,1-5.136-31.083h0a14.337,14.337,0,0,1,17.684,8.29c2.117,5.316,1.158,11.86-2.565,17.5a12.317,12.317,0,0,1-3,3.313,10.832,10.832,0,0,1-4.534,1.77A14.89,14.89,0,0,1,2188.93,1173.04Zm-4.21-28.23a12.938,12.938,0,0,0,6.156,25.064,7.9,7.9,0,0,0,3.291-1.251,9.234,9.234,0,0,0,2.243-2.527c3.136-4.753,4.011-10.4,2.282-14.742a11.328,11.328,0,0,0-13.972-6.544Z" fill="#c53650"/>
      </g>
      <g id="Group_128" data-name="Group 128">
        <path id="Path_174" data-name="Path 174" d="M2204.94,1309.24a13.183,13.183,0,0,1-5.948-1.48,16.794,16.794,0,0,1-8.319-9.827,15.893,15.893,0,0,1,1.932-14.006c3.1-4.25,8.889-6.151,13.459-4.421,6.262,2.368,10.034,5.443,11.534,9.4a15.747,15.747,0,0,1-1.828,13.863,14.353,14.353,0,0,1-7.13,5.854A11.44,11.44,0,0,1,2204.94,1309.24Zm-2.51-27.39a9.384,9.384,0,0,0-7.4,3.839,13.066,13.066,0,0,0-1.488,11.355,13.924,13.924,0,0,0,6.809,8.034,9.33,9.33,0,0,0,7.309.707,11.353,11.353,0,0,0,5.6-4.656,12.708,12.708,0,0,0,1.538-11.164c-1.178-3.107-4.381-5.613-9.79-7.659h0A7.419,7.419,0,0,0,2202.43,1281.85Z" fill="#c53650"/>
      </g>
      <g id="Group_129" data-name="Group 129">
        <path id="Path_175" data-name="Path 175" d="M2223.55,1415.52a13.866,13.866,0,0,1-9.432-3.955,13.456,13.456,0,0,1-4.363-11.225c.487-3.943,2.614-7.583,6.5-11.128,5.936-5.411,15.1-5.309,20.422.23h0a12.242,12.242,0,0,1,3.275,6.054c1.142,5.729-1.6,12.148-6.979,16.355a16.87,16.87,0,0,1-7.423,3.495A11.8,11.8,0,0,1,2223.55,1415.52Zm2.98-27.31a12.271,12.271,0,0,0-8.252,3.217c-3.336,3.042-5.15,6.077-5.547,9.279a11.142,11.142,0,0,0,12.3,11.683,13.912,13.912,0,0,0,6.1-2.9c3.685-2.881,6.934-8.144,5.886-13.406a9.283,9.283,0,0,0-2.5-4.561h0A11.025,11.025,0,0,0,2226.53,1388.21Z" fill="#c53650"/>
      </g>
      <g id="Group_130" data-name="Group 130">
        <path id="Path_176" data-name="Path 176" d="M2240.7,1532.53a15.3,15.3,0,0,1-9.512-3.192c-4.932-3.925-6.717-11.306-4.063-16.8,3.271-6.78,11.126-9.15,18.231-10.84a1.224,1.224,0,0,1,.383-.04,11.051,11.051,0,0,1,7.923,3.7,14.59,14.59,0,0,1,3.819,10.261,18.285,18.285,0,0,1-8.966,14.912A16.039,16.039,0,0,1,2240.7,1532.53Zm5.16-27.87c-6.382,1.526-13.355,3.641-16.027,9.178a11.22,11.22,0,0,0,3.23,13.152,12.884,12.884,0,0,0,14,.919,15.234,15.234,0,0,0,7.433-12.434,11.485,11.485,0,0,0-3.02-8.076A8.19,8.19,0,0,0,2245.86,1504.66Z" fill="#c53650"/>
      </g>
      <g id="Group_131" data-name="Group 131">
        <path id="Path_177" data-name="Path 177" d="M2251.09,1650.62a20.11,20.11,0,0,1-3.467-.3l-.129-.023a12.974,12.974,0,0,1-10.481-13.681c.494-7.91,4.064-13.014,10.055-14.371,8.7-1.973,15.5,1.653,18.966,5.7,3.132,3.666,4.183,8.186,2.743,11.8C2266.18,1646.25,2258.81,1650.62,2251.09,1650.62Zm.87-25.94a19.117,19.117,0,0,0-4.229.483h0c-4.709,1.067-7.308,4.98-7.723,11.633a9.98,9.98,0,0,0,8.034,10.544l-.159,1.495.259-1.478c6.6,1.156,15.08-1.794,17.849-8.733,1.026-2.571.169-5.918-2.237-8.734A15.255,15.255,0,0,0,2251.96,1624.68Zm-4.56-.98h0Z" fill="#c53650"/>
      </g>
      <g id="Group_132" data-name="Group 132">
        <path id="Path_178" data-name="Path 178" d="M2528.61,1125.05a1.5,1.5,0,0,1-.6-.125c-27.18-11.831-44.452-38.923-58.33-60.692a1.5,1.5,0,0,1,2.529-1.613c13.659,21.425,30.658,48.088,57,59.554a1.5,1.5,0,0,1-.6,2.876Z" fill="#c53650"/>
      </g>
      <g id="Group_133" data-name="Group 133">
        <path id="Path_179" data-name="Path 179" d="M2538.03,1115.78a1.483,1.483,0,0,1-.439-.066,76.56,76.56,0,0,1-42.343-32.772,1.5,1.5,0,1,1,2.557-1.568,73.521,73.521,0,0,0,40.663,31.472,1.5,1.5,0,0,1-.438,2.934Z" fill="#c53650"/>
      </g>
      <g id="Group_134" data-name="Group 134">
        <path id="Path_180" data-name="Path 180" d="M2215.43,869.424a1.5,1.5,0,0,1-1.463-1.174c-3.166-14.219-10.887-27.125-18.352-39.6-6.557-10.96-13.336-22.294-17.2-34.666a1.5,1.5,0,1,1,2.863-.893c3.756,12.031,10.441,23.209,16.908,34.019,7.588,12.685,15.434,25.8,18.705,40.493a1.5,1.5,0,0,1-1.138,1.791A1.54,1.54,0,0,1,2215.43,869.424Z" fill="#ffeccf"/>
      </g>
      <g id="Group_135" data-name="Group 135">
        <path id="Path_181" data-name="Path 181" d="M1878.74,1045.73a1.5,1.5,0,0,1-1.159-2.451,554.819,554.819,0,0,0,88.85-152.677,1.5,1.5,0,1,1,2.8,1.078,557.823,557.823,0,0,1-89.33,153.5A1.516,1.516,0,0,1,1878.74,1045.73Z" fill="#fecb81"/>
      </g>
      <g id="Group_136" data-name="Group 136">
        <path id="Path_182" data-name="Path 182" d="M1872.82,1014.17a1.5,1.5,0,0,1-1.165-2.443,620.812,620.812,0,0,0,40.195-55.784,1.5,1.5,0,0,1,2.528,1.616,623.854,623.854,0,0,1-40.39,56.055A1.5,1.5,0,0,1,1872.82,1014.17Z" fill="#fecb81"/>
      </g>
      <path id="Path_183" data-name="Path 183" d="M2031.33,521a.451.451,0,0,0-.494-.73c-31.762,12.447-33.144,44.425-35.5,56.558-6.732,34.727-24.668,35.325-39.541,46.241a.612.612,0,0,0,.58,1.067c16.3-6.654,52.849-9.725,52.849-52.541C2009.22,548.818,2024.62,527.737,2031.33,521Z" fill="#4d090b"/>
    </g>
    <g id="cell_phone">
      <path id="Path_184" data-name="Path 184" d="M686.529,2826.91V862.729A167.909,167.909,0,0,1,854.438,694.82h824.181a167.909,167.909,0,0,1,167.909,167.909v1964.18a167.909,167.909,0,0,1-167.909,167.909H854.439A167.91,167.91,0,0,1,686.529,2826.91Z" fill="#144769"/>
      <path id="Path_185" data-name="Path 185" d="M686.529,2826.91V874.729A167.909,167.909,0,0,1,854.438,706.82h808.181a167.909,167.909,0,0,1,167.909,167.909v1952.18a167.909,167.909,0,0,1-167.909,167.909H854.439A167.91,167.91,0,0,1,686.529,2826.91Z" fill="#163a54"/>
      <path id="Path_186" data-name="Path 186" d="M715.15,2809.48V872.3A151.408,151.408,0,0,1,866.557,720.888h797.185A151.408,151.408,0,0,1,1815.15,872.3v1937.19a151.407,151.407,0,0,1-151.408,151.407H866.558A151.414,151.414,0,0,1,715.15,2809.48Z" fill="#386d93"/>
      <path id="Path_187" data-name="Path 187" d="M1795.15,872.295v1917.19a151.29,151.29,0,0,1-151.4,151.4H866.56a151.4,151.4,0,0,1-151.41-151.4V872.295a151.412,151.412,0,0,1,151.41-151.41h777.19A151.41,151.41,0,0,1,1795.15,872.295Z" fill="#92bfd6"/>
      <path id="Path_188" data-name="Path 188" d="M1101.53,813.992h0a31.5,31.5,0,0,1,31.5-31.5h281a31.5,31.5,0,0,1,31.5,31.5h0a31.5,31.5,0,0,1-31.5,31.5h-281A31.5,31.5,0,0,1,1101.53,813.992Z" fill="#386d93" opacity="0.251"/>
      <g id="Group_138" data-name="Group 138" opacity="0.549">
        <path id="Path_193" data-name="Path 193" d="M880.15,2147.66h0a17,17,0,0,1,17-17h716a17,17,0,0,1,17,17h0a17,17,0,0,1-17,17h-716A17,17,0,0,1,880.15,2147.66Z" fill="#163a54" opacity="0.251"/>
        <path id="Path_194" data-name="Path 194" d="M1024.15,2147.66h0a17,17,0,0,1,17-17h572a17,17,0,0,1,17,17h0a17,17,0,0,1-17,17h-572A17,17,0,0,1,1024.15,2147.66Z" fill="#386d93"/>
        <path id="Path_195" data-name="Path 195" d="M1168.15,2147.66h0a17,17,0,0,1,17-17h428a17,17,0,0,1,17,17h0a17,17,0,0,1-17,17h-428A17,17,0,0,1,1168.15,2147.66Z" fill="#163a54" opacity="0.349"/>
      </g>
      <g id="Group_139" data-name="Group 139" opacity="0.549">
        <path id="Path_196" data-name="Path 196" d="M880.15,2228.1h0a17,17,0,0,1,17-17h716a17,17,0,0,1,17,17h0a17,17,0,0,1-17,17h-716A17,17,0,0,1,880.15,2228.1Z" fill="#163a54" opacity="0.251"/>
        <path id="Path_197" data-name="Path 197" d="M940.15,2228.1h0a17,17,0,0,1,17-17h656a17,17,0,0,1,17,17h0a17,17,0,0,1-17,17h-656A17,17,0,0,1,940.15,2228.1Z" fill="#386d93"/>
        <path id="Path_198" data-name="Path 198" d="M1392.15,2228.1h0a17,17,0,0,1,17-17h204a17,17,0,0,1,17,17h0a17,17,0,0,1-17,17h-204A17,17,0,0,1,1392.15,2228.1Z" fill="#163a54" opacity="0.349"/>
      </g>
      <path id="Path_199" data-name="Path 199" d="M1609.81,1436.23a353.371,353.371,0,0,1-75.7,219.03q-7.935,10.095-16.58,19.58a355.523,355.523,0,0,1-126.02,88.87,350.849,350.849,0,0,1-73.88,21.68,356.3,356.3,0,0,1-62.48,5.49c-195.87,0-354.65-158.78-354.65-354.65a355.163,355.163,0,0,1,201.57-320q11.535-5.535,23.53-10.24a352.105,352.105,0,0,1,85.09-21.65,358.363,358.363,0,0,1,44.46-2.76C1451.02,1081.58,1609.81,1240.36,1609.81,1436.23Z" fill="#feba57"/>
      <path id="Path_200" data-name="Path 200" d="M1391.51,1763.71a350.849,350.849,0,0,1-73.88,21.68L938.72,1275.92a354.761,354.761,0,0,1,42.07-64.44Z" fill="#fff" opacity="0.149"/>
      <path id="Path_201" data-name="Path 201" d="M1579.4,1580.11a354.657,354.657,0,0,1-45.29,75.15q-7.935,10.095-16.58,19.58a356.308,356.308,0,0,1-40.48,38.06l-423.04-568.8a354.291,354.291,0,0,1,48.06-27.87q11.535-5.535,23.53-10.24a352.105,352.105,0,0,1,85.09-21.65Z" fill="#fff" opacity="0.149"/>
      <path id="Path_202" data-name="Path 202" d="M1534.1,1655.27q-7.935,10.095-16.58,19.58l-415.46-558.61q11.535-5.535,23.53-10.24Z" fill="#fff" opacity="0.22"/>
      <path id="Path_203" data-name="Path 203" d="M1585.91,1436.23a310.52,310.52,0,0,1-24.1,120.23q-4.905,11.73-10.72,22.97a318.01,318.01,0,0,1-34.22,52.65q-7.98,9.99-16.75,19.35a327.643,327.643,0,0,1-31.07,29.08q-4.98,4.11-10.14,8.01a333.318,333.318,0,0,1-87.82,47.74q-7.425,2.7-15.03,5.04a334.587,334.587,0,0,1-48.89,11.24q-6.315.975-12.7,1.71a344.614,344.614,0,0,1-39.32,2.24c-182.67,0-330.75-143.39-330.75-320.26a310.6,310.6,0,0,1,31.69-136.96q2.025-4.14,4.17-8.21a319.019,319.019,0,0,1,33.36-50.91c1.46-1.83,2.95-3.64,4.45-5.44a328.937,328.937,0,0,1,74.55-65.59q6.03-3.87,12.23-7.48a331.868,331.868,0,0,1,37.13-18.64q2.175-.93,4.38-1.83c1.31-.54,2.63-1.07,3.94-1.59q1.845-.735,3.69-1.44,4.125-1.575,8.31-3.04c1.31-.46,2.62-.91,3.94-1.35a336.7,336.7,0,0,1,64.21-14.88h.01q11.97-1.56,24.21-2.29,10.155-.615,20.48-.61C1437.82,1115.97,1585.91,1259.36,1585.91,1436.23Z" fill="#ff385c"/>
      <path id="Path_204" data-name="Path 204" d="M946.994,2636.59h0a70,70,0,0,1,70-70h476.313a70,70,0,0,1,70,70h0a70,70,0,0,1-70,70H1016.994A70,70,0,0,1,946.994,2636.59Z" fill="#6192b1"/>
      <path id="Path_205" data-name="Path 205" d="M1102.07,2636.59h0a70,70,0,0,1,70-70h321.241a70,70,0,0,1,70,70h0a70,70,0,0,1-70,70H1172.07A70,70,0,0,1,1102.07,2636.59Z" fill="#2c5b7d" opacity="0.149"/>
      <path id="Path_206" data-name="Path 206" d="M1297.31,2636.59h0a70,70,0,0,1,70-70h126a70,70,0,0,1,70,70h0a70,70,0,0,1-70,70h-126A70,70,0,0,1,1297.31,2636.59Z" fill="#2c5b7d"/>
      <path id="Path_207" data-name="Path 207" d="M1728.43,896.995a6.35,6.35,0,0,1-2.07,3.41c-85.36,76.34-191.24,232.29-233.38,397.92a6.433,6.433,0,0,1-12.42.16c-22.62-80.6-94.08-206.81-210.95-256.77a4.932,4.932,0,0,1-2.32-1.96,5.046,5.046,0,0,1,3.74-7.67c83.67-8.54,186.7,70,208.74,91.75a4.342,4.342,0,0,0,6.83-.96c34.69-61.38,131.63-174.53,232.29-232.73C1724.21,887.055,1729.47,892.2,1728.43,896.995Z" fill="#2c5b7d"/>
      <path id="Path_208" data-name="Path 208" d="M1728.43,896.995c-86.01,73.67-193.94,213.89-235.56,363.03-1.65,5.93-10.9,6.05-12.71.15-22.23-72.2-87.52-190.96-212.87-220.42a5.046,5.046,0,0,1,3.74-7.67c65.11-6.65,141.95,39.44,183.22,70.47a270.338,270.338,0,0,1,25.52,21.28,4.342,4.342,0,0,0,6.83-.96c10.29-18.2,26.05-40.96,45.75-65.48,46.76-58.18,115.73-126.31,186.54-167.25C1724.21,887.055,1729.47,892.2,1728.43,896.995Z" fill="#386d93"/>
      <g id="Group_140" data-name="Group 140">
        <path id="Path_209" data-name="Path 209" d="M1356.06,1741.31a334.587,334.587,0,0,1-48.89,11.24L960.26,1291.07a319.019,319.019,0,0,1,33.36-50.91Z" fill="#fff" opacity="0.149"/>
        <path id="Path_210" data-name="Path 210" d="M1551.08,1579.44a318.01,318.01,0,0,1-34.22,52.65q-7.98,9.99-16.75,19.35a327.643,327.643,0,0,1-31.07,29.08l-384.2-518.87a331.868,331.868,0,0,1,37.13-18.64q2.175-.93,4.38-1.83c1.31-.54,2.63-1.07,3.94-1.59q1.845-.735,3.69-1.44,4.125-1.575,8.31-3.04c1.31-.46,2.62-.91,3.94-1.35a336.7,336.7,0,0,1,64.21-14.88h.01Z" fill="#fff" opacity="0.149"/>
        <path id="Path_211" data-name="Path 211" d="M1516.86,1632.08q-7.98,9.99-16.75,19.35l-373.76-510.26c1.31-.54,2.63-1.07,3.94-1.59q1.845-.735,3.69-1.44,4.125-1.575,8.31-3.04Z" fill="#fff" opacity="0.22"/>
      </g>
      <path id="Path_212" data-name="Path 212" d="M1795.15,2462.86v326.62a151.37,151.37,0,0,1-.99,17.39L715.15,1427.03V1081.76Z" fill="#fff" opacity="0.051"/>
      <path id="Path_213" data-name="Path 213" d="M1406.92,2940.89H1263.88L715.146,2239.17V2056.25Z" fill="#fff" opacity="0.102"/>
      <path id="Path_214" data-name="Path 214" d="M1795.15,1760.86v30.03L946.994,720.885h34.912Z" fill="#fff" opacity="0.102"/>
      <path id="Path_215" data-name="Path 215" d="M1532.34,1057.4c-17.779,26.936-33.053,55.183-41.259,80.539a4.286,4.286,0,0,1-7.678,1.012,232.688,232.688,0,0,0-29.163-36.391,270.338,270.338,0,0,1,25.52,21.28,4.342,4.342,0,0,0,6.83-.96C1496.89,1104.68,1512.65,1081.92,1532.34,1057.4Z" fill="#2c5b7d"/>
      <path id="Path_217" data-name="Path 217" d="M1290.87,1040.15c16.624-.418,33.3,2.451,49.385,6.969a255.362,255.362,0,0,1,46.439,18.756,277.676,277.676,0,0,1,42.123,27,219.8,219.8,0,0,1,18.832,16.491c5.828,5.959,11.519,12.19,15.781,19.354a158.34,158.34,0,0,0-18.383-16.411c-6.441-5.065-13.148-9.77-19.925-14.342a450.95,450.95,0,0,0-42.122-25,388.475,388.475,0,0,0-44.685-19.888A281.282,281.282,0,0,0,1290.87,1040.15Z" fill="#4f81a4"/>
      <path id="Path_218" data-name="Path 218" d="M1459,1176.04a107.453,107.453,0,0,1,19.03,21.519,123.254,123.254,0,0,1,7.426,12.518c1.13,2.159,2.172,4.364,3.164,6.6.48,1.121.994,2.233,1.447,3.369l.689,1.7.336.854.021.053a.611.611,0,0,0-.021-.083c-.021-.072-.044-.144-.071-.215-.054-.15-.12-.26-.2-.425a4.22,4.22,0,0,0-.618-.878,4.318,4.318,0,0,0-1.846-1.168,4.028,4.028,0,0,0-1.983-.122,4.137,4.137,0,0,0-1.928.894,4.388,4.388,0,0,0-1.3,1.789,2.755,2.755,0,0,0-.148.454l-.022.1.009-.055.019-.111.075-.443.149-.886.3-1.773,1.273-7.083c.507-2.343.992-4.694,1.538-7.031l.808-3.51.912-3.483a258.193,258.193,0,0,1,8.832-27.423,249.544,249.544,0,0,1,26.781-50.85c2.646-3.989,5.582-7.786,8.464-11.595,1.469-1.886,3-3.724,4.525-5.565s3.047-3.673,4.674-5.427l4.84-5.27q2.5-2.561,5.066-5.053c3.335-3.388,7.033-6.446,10.647-9.521-9.912,16.266-19.641,32.075-28.118,48.527a489.783,489.783,0,0,0-22.9,50.174c-.856,2.128-1.62,4.292-2.435,6.437l-1.2,3.224c-.41,1.072-.737,2.173-1.133,3.25l-2.288,6.5-2.121,6.554-1.083,3.274-.981,3.3c-.637,2.208-1.339,4.4-2.012,6.6l-1.834,6.66-1.208,4.15a7.737,7.737,0,0,1-9.5,4.7,7.558,7.558,0,0,1-3.336-2.065,7.481,7.481,0,0,1-1.142-1.581,6.653,6.653,0,0,1-.38-.824l-.155-.418-.062-.185-.014-.051-.22-.817-.423-1.641c-.272-1.1-.6-2.179-.9-3.272-.632-2.176-1.323-4.336-2.022-6.5-1.442-4.316-3.042-8.606-4.831-12.845A217.5,217.5,0,0,0,1459,1176.04Z" fill="#4f81a4"/>
    </g>
    <g id="girl_hand">
      <path id="Path_219" data-name="Path 219" d="M1940.07,858.1a59.742,59.742,0,0,1-1.86,12.65q-5.8,25.875-14.12,51.09a2.515,2.515,0,0,1-3.44,1.49,22.7,22.7,0,0,1-9-7.45c-.06-.08-.11-.16-.17-.24a.922.922,0,0,0-1.42-.13.912.912,0,0,0-.22.37,240.191,240.191,0,0,1-11.02,28.98,1.511,1.511,0,0,1-2.07.7,25.692,25.692,0,0,1-10.84-10.81c-.08-.15-.16-.31-.24-.47a.642.642,0,0,0-1.2.12l-.39,1.51v.01l-1.91,7.5a1.051,1.051,0,0,1-1.64.59,33.458,33.458,0,0,1-13.48-22.22,3.97,3.97,0,0,1-.49-.15,5.015,5.015,0,0,1-.55-.17c-8.4-2.83-13.87-11.92-16.46-21.24-2.7-9.7-2.82-19.9-3.84-29.92a165.415,165.415,0,0,0-7.15-34.16,11,11,0,0,0-4.27-5.68c-10.13-6.95-19.33-17.83-25.87-29.94a119.721,119.721,0,0,1-9.47-23.54,177.289,177.289,0,0,1-4.45-19.59c-1.34-7.76-6.66-19.01-12.01-24.77a22.743,22.743,0,0,1-5.49-9.89c-2.34-8.88.75-18.33,3.88-25.07a38.78,38.78,0,0,1,24.44-20.72c.14-.04.27-.07.41-.11a27.566,27.566,0,0,1,16.36.26,21.9,21.9,0,0,1,2.38,1.03c4.28,2.13,7.91,5.52,11.3,8.95,8.52,8.64,16.22,18.03,23.91,27.41l63.04,76.85a10.319,10.319,0,0,1,1.93,3.68c4.47,15.57,8.89,31.46,12.92,47.46C1938.85,847.615,1940.11,852.815,1940.07,858.1Z" fill="#ff8e68"/>
      <path id="Path_220" data-name="Path 220" d="M1798.66,765.075q-.045,5.97.29,11.92a177.289,177.289,0,0,1-4.45-19.59c-1.34-7.76-6.66-19.01-12.01-24.77a22.743,22.743,0,0,1-5.49-9.89,125.675,125.675,0,0,1,21.33-38.24,64.065,64.065,0,0,1,6.99-7.55c.14-.04.27-.07.41-.11a27.566,27.566,0,0,1,16.36.26,21.9,21.9,0,0,1,2.38,1.03,195.563,195.563,0,0,0-26.01,55.54,31.39,31.39,0,0,0-1.59,9.02c.05,3.06.92,6.04,1.38,9.06C1798.91,756.155,1798.69,760.625,1798.66,765.075Z" fill="#f15d27"/>
      <path id="Path_221" data-name="Path 221" d="M1873.09,875.315c-2.16,15.67-4.31,31.34-6.54,46.33a5.015,5.015,0,0,1-.55-.17c.807-29.79,6.223-44.52,4.9-47.95-3.943-10.226-9.33-53.36-6.43-37.29,4.13,22.92,4.25,21.17,8.2,34.84a12.235,12.235,0,0,1,.54,1.97A8.653,8.653,0,0,1,1873.09,875.315Z" fill="#f15d27"/>
      <path id="Path_222" data-name="Path 222" d="M1897.42,888.475c-5.5,15.26-10.09,30.33-11.51,46.28-.08-.15-.16-.31-.24-.47a.642.642,0,0,0-1.2.12l-.39,1.51a29.012,29.012,0,0,1,.16-3.71c1.38-12.77,6.7-38.5,12.06-44.43A.674.674,0,0,1,1897.42,888.475Z" fill="#f15d27"/>
      <path id="Path_223" data-name="Path 223" d="M1919.51,868.175a9.7,9.7,0,0,1-.26,2.34c-2.6,13.52-5.81,30.39-7.6,45.37-.06-.08-.11-.16-.17-.24a.922.922,0,0,0-1.42-.13c.9-15.54,5.2-38.45,6.57-44.76a6.327,6.327,0,0,0,.01-2.67c-2.69-12.91-4.2-25.2-5.57-41.3a.44.44,0,0,1,.87-.12c3.48,17.41,4.9,28.48,7.34,39.97A10.033,10.033,0,0,1,1919.51,868.175Z" fill="#f15d27"/>
      <path id="Path_224" data-name="Path 224" d="M1885.6,830.485a.537.537,0,0,0-1.044.23,413.3,413.3,0,0,0,9.658,50.042c.139.539.374,1.173.92,1.283.954.193,1.233-1.258,1.056-2.215C1894.52,870.83,1889.3,842.617,1885.6,830.485Z" fill="#f15d27"/>
      <path id="Path_225" data-name="Path 225" d="M1824.09,671.985c-12.84,12.84-28.95,63.47-28.95,63.47-2.69,6.24-5.78,26.79-9.44,25.07-10.96-5.13-25.5-9.4-35.68-16.05a8.083,8.083,0,0,0-7.95-.44,50.436,50.436,0,0,1-8.94,3.3c-9.59,2.59-20.01,2.85-30.05,2.99-22.69.33-46.19.5-66.95-8.66-10.4-4.59-19.75-11.39-30.38-15.42-16.78-6.34-35.28-5.31-53.21-5.49a369.292,369.292,0,0,1-116.9-20.27c-7.83-2.7-16.1-6.1-20.51-13.11-3.71-5.88-3.97-13.18-3.87-20.19.02-.57.03-1.14.04-1.71.11-5.38.51-15.02.83-22.45a20.984,20.984,0,0,1,9.52-16.68c19.91-12.96,71.67-40.59,145.36-35.82a272.229,272.229,0,0,1,36.74,4.92c56.48,11.56,114.29,49.16,166.72,59.88,3.37.69,1.72-3.16,5.15-3.53,3.94-.43,8.21,1.1,12.03,2.64,10.21,4.14,23.92,7.78,34.13,11.91C1824.01,667.245,1826.74,669.345,1824.09,671.985Z" fill="#ff385c"/>
      <g id="Group_142" data-name="Group 142">
        <path id="Path_226" data-name="Path 226" d="M1744.78,666.713a1.463,1.463,0,0,1-.411-.058c-20.89-5.932-41.145-14.862-60.733-23.5-25.449-11.22-51.765-22.821-79.431-27.755-47.687-8.5-95.89,3-136.753,15.366a1.5,1.5,0,0,1-.869-2.871c41.2-12.473,89.838-24.062,138.149-15.448,28.021,5,54.5,16.672,80.115,27.963,19.495,8.594,39.653,17.481,60.342,23.357a1.5,1.5,0,0,1-.409,2.943Z" fill="#ff7583"/>
      </g>
      <g id="Group_143" data-name="Group 143">
        <path id="Path_227" data-name="Path 227" d="M1702.85,685.236a1.54,1.54,0,0,1-.328-.036c-19.753-4.4-38.879-12.138-57.376-19.623-22.849-9.246-46.476-18.807-71.148-21.93-23.265-2.945-48.458-.568-79.285,7.481a1.5,1.5,0,0,1-.758-2.9c31.209-8.149,56.763-10.549,80.419-7.555,25.059,3.172,48.869,12.807,71.9,22.125,18.384,7.439,37.393,15.131,56.9,19.475a1.5,1.5,0,0,1-.323,2.965Z" fill="#ff7583"/>
      </g>
      <g id="Group_144" data-name="Group 144">
        <path id="Path_228" data-name="Path 228" d="M1665.8,730.057c-.029,0-.059,0-.088,0-18.608-1.083-36.331-7.914-53.469-14.52-3.542-1.365-7.2-2.777-10.8-4.109-19.548-7.238-42.47-13.848-64.261-7.986a1.5,1.5,0,1,1-.78-2.9c22.6-6.081,46.089.668,66.083,8.07,3.617,1.339,7.288,2.754,10.839,4.123,16.923,6.523,34.423,13.269,52.564,14.324a1.5,1.5,0,0,1-.086,3Z" fill="#ff7583"/>
      </g>
      <g id="Group_145" data-name="Group 145">
        <path id="Path_229" data-name="Path 229" d="M1782.16,738.672a1.5,1.5,0,0,1-1.446-1.905,270.977,270.977,0,0,1,27.53-64.652,1.5,1.5,0,1,1,2.584,1.524,268,268,0,0,0-27.224,63.936A1.5,1.5,0,0,1,1782.16,738.672Z" fill="#ff7583"/>
      </g>
      <g id="Group_146" data-name="Group 146">
        <path id="Path_230" data-name="Path 230" d="M1776.48,727.625a1.5,1.5,0,0,1-1.408-2.016l15.663-42.831a1.5,1.5,0,0,1,2.818,1.03l-15.663,42.831A1.491,1.491,0,0,1,1776.48,727.625Z" fill="#ff7583"/>
      </g>
      <g id="Group_147" data-name="Group 147">
        <path id="Path_231" data-name="Path 231" d="M1749.41,734.983a1.4,1.4,0,0,1-.223-.017,1.5,1.5,0,0,1-1.262-1.705,276.449,276.449,0,0,1,21.494-73.083,1.5,1.5,0,1,1,2.734,1.235,273.475,273.475,0,0,0-21.262,72.29A1.5,1.5,0,0,1,1749.41,734.983Z" fill="#c53650"/>
      </g>
      <path id="Path_232" data-name="Path 232" d="M1733.14,747.335c-9.59,2.59-20.01,2.85-30.05,2.99-22.69.33-46.19.5-66.95-8.66-10.4-4.59-19.75-11.39-30.38-15.42-16.78-6.34-35.28-5.31-53.21-5.49a369.292,369.292,0,0,1-116.9-20.27c-7.83-2.7-16.1-6.1-20.51-13.11-3.71-5.88-3.97-13.18-3.87-20.19a65.322,65.322,0,0,0,10.78,11.32c10.98,9.11,24.34,14.86,37.87,19.39,34.78,11.64,71.64,15.87,108.29,17.03,9.34.3,18.8.42,27.79,2.96,9.54,2.68,18.1,7.96,26.94,12.45A180.42,180.42,0,0,0,1733.14,747.335Z" fill="#c53650"/>
    </g>
  </g>
</svg>
